<svg width="1183" height="1241" viewBox="0 0 1183 1241" fill="none" xmlns="http://www.w3.org/2000/svg">
<g filter="url(#filter0_d)">
<path d="M601.447 1151.94C893.208 1151.94 1129.73 915.424 1129.73 623.664C1129.73 331.903 893.208 95.3848 601.447 95.3848C309.687 95.3848 73.168 331.903 73.168 623.664C73.168 915.424 309.687 1151.94 601.447 1151.94Z" fill="white"/>
</g>
<g filter="url(#filter1_d)">
<path d="M603.536 828.999C715.786 828.999 806.782 738.002 806.782 625.752C806.782 513.502 715.786 422.506 603.536 422.506C491.286 422.506 400.289 513.502 400.289 625.752C400.289 738.002 491.286 828.999 603.536 828.999Z" fill="#F8F8F8"/>
<path d="M603.533 821.483C711.56 821.483 799.132 733.911 799.132 625.884C799.132 517.858 711.56 430.285 603.533 430.285C495.507 430.285 407.934 517.858 407.934 625.884C407.934 733.911 495.507 821.483 603.533 821.483Z" stroke="white" stroke-width="2.33577"/>
<path d="M595.072 646.072L634.74 712.092C637.84 717.25 636.171 723.944 631.012 727.044L610.3 739.489L557.055 650.875" fill="#CCF5FC"/>
<path d="M669.776 577.718L659.8 583.713L642.031 554.141L652.007 548.146C660.167 543.244 670.755 545.884 675.658 554.043L675.673 554.067C680.575 562.227 677.935 572.816 669.776 577.718Z" fill="#FFF2A0"/>
<path d="M505.224 656.467C514.624 672.111 535.011 677.121 550.76 667.658L562.796 660.426L528.757 603.775L516.721 611.007C500.971 620.47 495.824 640.823 505.224 656.467Z" fill="#D1AEE5"/>
<path d="M654.743 634.247C662.698 634.442 670.665 635.223 678.578 636.622L693.14 639.196L608.694 498.654L604.13 512.72C601.651 520.364 598.6 527.766 595.037 534.88" fill="#FF9EB1"/>
<path d="M595.037 534.879C581.519 561.875 560.518 584.69 534.305 600.44L528.758 603.773L562.797 660.424L568.344 657.09C594.557 641.34 624.56 633.508 654.743 634.246" fill="#FAF7F5"/>
<path d="M632.557 687.892L623.476 693.349L612.219 674.613L621.3 669.157C626.469 666.051 633.178 667.723 636.284 672.893L636.294 672.908C639.399 678.077 637.727 684.786 632.557 687.892Z" fill="#FFF2A0"/>
<path d="M649.837 544.534L643.471 548.359L612.302 496.485C611.452 495.069 609.853 494.281 608.213 494.469C606.573 494.656 605.193 495.784 604.684 497.354L600.12 511.42C597.738 518.761 594.759 526.02 591.267 532.994C578.005 559.48 557.556 581.554 532.132 596.83L514.549 607.395C496.833 618.04 491.029 641.026 501.61 658.636C512.191 676.245 535.211 681.912 552.927 671.268L561.352 666.205L606.686 741.654C607.884 743.648 610.473 744.294 612.466 743.095L633.179 730.65C640.32 726.36 642.639 717.058 638.348 709.917L629.257 694.786L634.726 691.5C641.879 687.202 644.201 677.887 639.894 670.719C635.597 663.567 626.282 661.244 619.129 665.542L613.66 668.829L600.416 646.787C617.771 640.85 636.102 638.006 654.636 638.459C662.435 638.65 670.242 639.428 677.842 640.77L692.404 643.344C693.424 643.525 694.452 643.321 695.307 642.807C695.814 642.502 696.26 642.089 696.608 641.583C697.543 640.223 697.598 638.442 696.748 637.027L665.578 585.153L671.944 581.328C682.081 575.237 685.373 562.034 679.267 551.872C673.176 541.734 659.974 538.443 649.837 544.534ZM508.832 654.297C500.644 640.669 505.155 622.869 518.888 614.617L527.313 609.555L557.013 658.984L548.588 664.047C534.854 672.298 517.02 667.924 508.832 654.297ZM623.469 672.764C626.639 670.859 630.768 671.888 632.682 675.074C634.587 678.244 633.557 682.373 630.387 684.278L624.918 687.564L617.999 676.05L623.469 672.764ZM631.127 714.256C633.025 717.415 631.999 721.53 628.84 723.428L611.738 733.704L568.574 661.866L570.511 660.703C577.545 656.476 584.859 652.831 592.387 649.783L631.127 714.256ZM684.763 633.438L679.308 632.474C672.049 631.191 664.613 630.397 657.168 630.109L639.404 600.546C638.206 598.552 635.618 597.907 633.624 599.105C631.63 600.303 630.984 602.891 632.182 604.885L647.288 630.025C618.699 630.636 590.803 638.682 566.172 653.481L564.235 654.645L534.535 605.216L536.472 604.052C561.103 589.252 581.303 568.398 595.264 543.443L612.566 572.239C613.765 574.233 616.353 574.878 618.347 573.68C620.341 572.482 620.986 569.894 619.788 567.899L599.828 534.679C603.069 527.971 605.859 521.033 608.134 514.02L609.844 508.752L684.763 633.438ZM667.605 574.106L661.24 577.931L647.81 555.581L654.176 551.756C660.331 548.057 668.348 550.056 672.061 556.236C675.759 562.391 673.76 570.407 667.605 574.106Z" fill="black"/>
<path d="M628.528 583.073C627.107 582.027 625.133 581.974 623.667 582.967C622.21 583.953 621.518 585.779 621.941 587.483C622.365 589.19 623.869 590.479 625.617 590.648C627.319 590.813 628.991 589.9 629.772 588.378C630.701 586.569 630.165 584.28 628.528 583.073Z" fill="black"/>
</g>
<g filter="url(#filter2_d)">
<path d="M1061.87 516.263C1123.49 516.263 1173.45 466.306 1173.45 404.68C1173.45 343.054 1123.49 293.096 1061.87 293.096C1000.24 293.096 950.279 343.054 950.279 404.68C950.279 466.306 1000.24 516.263 1061.87 516.263Z" fill="#F8F8F8"/>
<path d="M1061.87 512.066C1121.18 512.066 1169.25 463.988 1169.25 404.68C1169.25 345.373 1121.18 297.295 1061.87 297.295C1002.56 297.295 954.479 345.373 954.479 404.68C954.479 463.988 1002.56 512.066 1061.87 512.066Z" stroke="white" stroke-width="2.33577"/>
<path d="M1039.78 400.238C1038.16 398.504 1035.63 398.603 1034.53 400.808L1007.92 454.029C1007.68 454.514 1007.56 455.053 1007.59 455.594C1007.61 456.136 1007.77 456.663 1008.06 457.124C1008.34 457.586 1008.74 457.966 1009.22 458.23C1009.69 458.494 1010.22 458.633 1010.76 458.633H1047.82C1049.04 458.661 1050.15 457.972 1050.67 456.874C1058.66 440.353 1053.82 415.233 1039.78 400.238Z" fill="url(#paint0_linear)"/>
<path d="M1059.31 351.831C1044.42 375.412 1045.41 401.528 1055.21 421.135L1073.08 456.873C1073.34 457.401 1073.75 457.845 1074.25 458.156C1074.75 458.467 1075.33 458.631 1075.92 458.631H1112.98C1113.52 458.631 1114.06 458.493 1114.53 458.228C1115 457.964 1115.4 457.584 1115.69 457.122C1115.97 456.661 1116.13 456.134 1116.16 455.593C1116.18 455.051 1116.07 454.512 1115.83 454.027C1115.83 454.027 1065.97 354.306 1064.72 351.811C1063.6 349.577 1060.75 349.547 1059.31 351.831Z" fill="#2681FF"/>
</g>
<g filter="url(#filter3_d)">
<path d="M594.552 1231.61C656.178 1231.61 706.136 1181.66 706.136 1120.03C706.136 1058.41 656.178 1008.45 594.552 1008.45C532.926 1008.45 482.969 1058.41 482.969 1120.03C482.969 1181.66 532.926 1231.61 594.552 1231.61Z" fill="#F8F8F8"/>
<path d="M594.551 1228.58C654.5 1228.58 703.097 1179.98 703.097 1120.03C703.097 1060.08 654.5 1011.49 594.551 1011.49C534.603 1011.49 486.006 1060.08 486.006 1120.03C486.006 1179.98 534.603 1228.58 594.551 1228.58Z" stroke="white" stroke-width="1.69035"/>
<path d="M646.376 1174.16C645.956 1174.58 645.43 1174.79 644.8 1174.79C644.17 1174.79 643.645 1174.58 643.225 1174.16C642.805 1173.73 642.595 1173.21 642.595 1172.58C642.595 1171.95 642.805 1171.37 643.277 1170.95C643.697 1170.53 644.222 1170.37 644.8 1170.37C645.43 1170.37 645.955 1170.58 646.376 1171C646.796 1171.42 647.006 1171.95 647.006 1172.58C647.058 1173.21 646.848 1173.73 646.376 1174.16ZM643.54 1171.27C643.172 1171.63 643.015 1172.05 643.015 1172.53C643.015 1173.05 643.172 1173.47 643.54 1173.84C643.907 1174.21 644.327 1174.37 644.853 1174.37C645.378 1174.37 645.798 1174.21 646.166 1173.84C646.533 1173.47 646.691 1173.05 646.691 1172.53C646.691 1172.05 646.533 1171.58 646.165 1171.27C645.798 1170.9 645.378 1170.69 644.853 1170.69C644.327 1170.74 643.907 1170.9 643.54 1171.27ZM645.535 1173.68C645.325 1173.84 645.115 1173.89 644.905 1173.89C644.59 1173.89 644.275 1173.79 644.012 1173.52C643.75 1173.26 643.645 1172.95 643.645 1172.58C643.645 1172.21 643.75 1171.9 643.96 1171.63C644.17 1171.37 644.485 1171.27 644.853 1171.27C645.063 1171.27 645.273 1171.32 645.483 1171.42C645.745 1171.58 645.956 1171.84 646.008 1172.26H645.43C645.378 1172.11 645.325 1171.95 645.22 1171.9C645.115 1171.84 645.01 1171.79 644.905 1171.79C644.748 1171.79 644.59 1171.84 644.485 1172C644.38 1172.16 644.327 1172.37 644.327 1172.63C644.327 1172.89 644.38 1173.1 644.485 1173.21C644.59 1173.31 644.748 1173.42 644.905 1173.42C645.063 1173.42 645.168 1173.37 645.273 1173.31L645.43 1173H645.955C645.903 1173.31 645.745 1173.52 645.535 1173.68ZM651.102 1150.35C651.102 1150.14 651.049 1149.93 651.049 1149.72C651.049 1149.57 650.996 1149.46 650.996 1149.36C650.944 1149.04 650.891 1148.78 650.786 1148.46C650.576 1147.88 650.261 1147.31 649.841 1146.83C649.421 1146.36 648.948 1145.99 648.476 1145.73C647.951 1145.47 647.426 1145.31 647.006 1145.21C646.848 1145.21 646.743 1145.15 646.638 1145.15C647.216 1142.63 646.48 1140.69 646.008 1139.79L646.113 1139.69C646.743 1139.06 647.268 1138.48 647.741 1137.9L647.846 1137.8C648.213 1137.27 648.423 1136.75 648.581 1136.27C648.686 1135.85 648.791 1135.49 648.791 1135.12V1134.12C648.739 1133.33 648.633 1132.33 648.108 1131.23C647.846 1130.7 647.478 1130.13 647.005 1129.6C646.511 1129.05 645.924 1128.59 645.272 1128.23C645.22 1128.18 645.167 1128.18 645.115 1128.13C643.697 1126.08 642.122 1124.45 640.704 1123.24C640.06 1122.69 639.394 1122.17 638.708 1121.67C638.131 1121.25 637.658 1120.93 637.395 1120.72C636.765 1120.25 636.293 1119.99 636.083 1119.88C635.558 1119.57 635.19 1119.3 634.98 1119.14C634.822 1118.99 634.717 1118.93 634.665 1118.88C634.665 1118.88 634.665 1118.83 634.612 1118.72C634.56 1118.57 634.56 1118.36 634.56 1117.99C634.56 1117.46 634.56 1116.68 634.612 1115.62C634.717 1113.94 634.875 1111.68 635.085 1108.58C635.137 1107.59 635.137 1106.64 635.137 1105.8C635.085 1104.38 634.875 1103.12 634.612 1101.96C634.56 1101.7 634.455 1101.44 634.402 1101.18C634.35 1100.97 634.297 1100.86 634.245 1100.76C634.192 1100.6 634.14 1100.44 634.035 1100.23C633.982 1100.12 633.982 1100.02 633.877 1099.91C633.772 1099.65 633.667 1099.39 633.51 1099.13L633.457 1099.07L633.404 1098.92L633.352 1098.81C633.089 1098.34 632.774 1097.92 632.459 1097.55C632.302 1096.81 632.039 1095.76 631.566 1094.56C631.146 1093.5 630.621 1092.35 629.833 1091.19C629.571 1090.77 629.256 1090.4 628.941 1090.04L629.046 1089.93C629.203 1089.77 632.879 1085.89 635.82 1080.84C641.229 1071.44 639.444 1065.71 636.975 1062.56L636.923 1062.45L636.87 1062.35C634.507 1059.72 631.251 1058.14 627.313 1057.62C619.068 1056.57 609.721 1060.67 607.253 1061.82L602.736 1056.88C602.316 1056.46 601.896 1056.04 601.424 1055.73C600.951 1055.41 600.426 1055.1 599.901 1054.83C598.851 1054.36 597.695 1054.05 596.435 1053.89C593.967 1053.57 591.131 1053.89 588.085 1054.68C583.516 1055.83 578.423 1058.14 573.066 1061.35C567.71 1064.55 562.143 1068.71 556.734 1073.64C550.118 1079.63 544.656 1085.99 540.665 1092.09C538.67 1095.08 537.042 1098.02 535.834 1100.86C534.626 1103.64 533.838 1106.32 533.523 1108.74C533.313 1110.53 533.313 1112.21 533.681 1113.73C533.838 1114.42 534.049 1115.05 534.364 1115.68C534.731 1116.47 535.204 1117.2 535.782 1117.83L540.455 1122.72L540.98 1123.24L540.928 1123.3L540.77 1123.61C540.665 1123.77 540.613 1123.93 540.508 1124.03L540.35 1124.35C540.298 1124.5 540.193 1124.66 540.14 1124.82L539.983 1125.13C539.93 1125.29 539.825 1125.45 539.773 1125.61C539.72 1125.71 539.668 1125.82 539.668 1125.92L539.51 1126.4C539.458 1126.5 539.458 1126.61 539.405 1126.71C539.353 1126.87 539.3 1127.03 539.248 1127.24C539.248 1127.29 539.195 1127.34 539.195 1127.39C539.195 1127.45 539.142 1127.5 539.142 1127.55C539.09 1127.71 539.037 1127.92 538.985 1128.08C538.985 1128.18 538.932 1128.29 538.932 1128.39C538.932 1128.44 538.88 1128.55 538.88 1128.6C538.88 1128.71 538.827 1128.81 538.827 1128.92C538.827 1129.02 538.775 1129.13 538.775 1129.23C538.722 1129.44 538.722 1129.65 538.67 1129.92C538.67 1129.97 538.67 1130.02 538.617 1130.13V1130.18C538.617 1130.34 538.565 1130.49 538.565 1130.6C538.565 1130.81 538.512 1131.07 538.512 1131.28V1133.91C538.512 1134.01 538.512 1134.12 538.565 1134.22C538.565 1134.33 538.565 1134.49 538.617 1134.64V1134.8C538.617 1134.91 538.67 1135.06 538.67 1135.17C538.67 1135.27 538.722 1135.38 538.722 1135.54C538.722 1135.59 538.722 1135.64 538.775 1135.7C538.775 1135.75 538.827 1135.85 538.827 1135.91V1136.01C538.827 1136.12 538.88 1136.22 538.932 1136.43C538.932 1136.48 538.932 1136.48 538.985 1136.54C539.037 1136.64 539.037 1136.75 539.037 1136.8L539.09 1136.9C539.09 1136.96 539.09 1136.96 539.142 1137.01L539.195 1137.11V1137.27C539.195 1137.32 539.195 1137.32 539.248 1137.38L539.3 1137.48C539.3 1137.59 539.353 1137.64 539.353 1137.74C539.405 1137.85 539.405 1137.95 539.458 1138.16V1138.11V1138.16C539.458 1138.22 539.458 1138.22 539.51 1138.27C539.563 1138.43 539.615 1138.53 539.615 1138.59C539.668 1138.69 539.72 1138.8 539.773 1139.01L539.825 1139.06C539.878 1139.16 539.878 1139.27 539.93 1139.32L539.983 1139.43C539.983 1139.48 540.035 1139.53 540.035 1139.58C540.035 1139.64 540.088 1139.74 540.14 1139.79L540.193 1139.9C540.245 1139.95 540.245 1140.06 540.298 1140.11C540.35 1140.16 540.35 1140.21 540.35 1140.27C540.403 1140.37 540.455 1140.48 540.508 1140.63L540.56 1140.69C540.613 1140.74 540.613 1140.79 540.665 1140.84C540.718 1140.9 540.718 1141 540.77 1141.05C540.823 1141.11 540.875 1141.21 540.928 1141.37L540.98 1141.42C541.033 1141.47 541.033 1141.53 541.085 1141.58C541.138 1141.68 541.19 1141.74 541.19 1141.79C541.243 1141.84 541.295 1141.95 541.348 1142.05V1142.11C541.4 1142.16 541.4 1142.21 541.453 1142.26C541.505 1142.37 541.558 1142.42 541.611 1142.47C541.663 1142.53 541.716 1142.63 541.821 1142.79C541.873 1142.84 541.926 1142.89 541.926 1142.95C541.978 1143.05 542.031 1143.1 542.083 1143.16C542.136 1143.21 542.188 1143.31 542.241 1143.42C542.293 1143.47 542.346 1143.58 542.398 1143.63C542.451 1143.73 542.503 1143.79 542.608 1143.84L542.766 1144L542.818 1144.05C542.923 1144.15 542.976 1144.26 543.081 1144.36L543.186 1144.47L543.344 1144.63L543.659 1144.94L543.764 1145.05L543.921 1145.21L543.974 1145.26C544.079 1145.36 544.236 1145.47 544.341 1145.63L544.394 1145.68C544.446 1145.73 544.499 1145.73 544.551 1145.84C544.709 1145.99 544.866 1146.1 545.024 1146.26L545.129 1146.31L545.182 1146.36L545.287 1146.41C545.444 1146.52 545.549 1146.62 545.707 1146.73L545.759 1146.78C545.812 1146.83 545.864 1146.83 545.864 1146.83L545.969 1146.94C546.074 1147.04 546.179 1147.1 546.284 1147.2L546.389 1147.25L546.494 1147.36L546.547 1147.41C546.652 1147.46 546.809 1147.57 546.914 1147.62C546.967 1147.67 547.019 1147.73 547.124 1147.73L547.229 1147.78L547.282 1147.83H547.334C547.544 1147.94 547.702 1148.04 547.86 1148.15L547.965 1148.2L548.595 1148.52H548.647L548.752 1148.57L549.067 1148.73C549.12 1148.73 549.172 1148.78 549.225 1148.78C549.278 1148.83 549.33 1148.83 549.435 1148.88H549.488C549.593 1148.94 549.698 1148.99 549.803 1148.99H549.855C549.96 1149.04 550.065 1149.09 550.223 1149.15H550.275L550.38 1149.2C550.433 1149.2 550.485 1149.25 550.538 1149.25H550.59C550.748 1149.3 550.905 1149.36 551.116 1149.41H551.168C551.431 1149.51 551.693 1149.57 551.956 1149.62H552.008C552.218 1149.67 552.481 1149.72 552.691 1149.78H552.901C553.111 1149.83 553.321 1149.88 553.531 1149.88H553.741C553.899 1149.88 554.004 1149.93 554.161 1149.93C554.161 1149.99 554.214 1150.04 554.214 1150.09C554.581 1151.09 554.949 1152.09 555.369 1153.03C561.566 1170.21 578.738 1183.56 598.325 1186.03C617.913 1188.45 638.866 1175.42 647.373 1157.81C647.727 1157.16 648.059 1156.49 648.371 1155.82C649.211 1154.93 649.894 1154.03 650.314 1153.09C650.996 1152.51 651.154 1151.35 651.102 1150.35ZM542.346 1143.52H542.398H542.346Z" fill="#664F44"/>
<path d="M634.48 1064.41C633.534 1063.36 632.431 1062.57 631.223 1061.99C631.013 1061.88 630.802 1061.83 630.54 1061.78C630.435 1061.72 630.33 1061.62 630.225 1061.57C629.174 1061.15 628.07 1060.88 626.914 1060.72C621.24 1059.99 614.725 1062.09 611.047 1063.57C610.837 1063.67 610.627 1063.73 610.416 1063.83C610.101 1063.99 609.786 1064.09 609.471 1064.25C608.945 1064.46 608.42 1064.73 607.842 1064.99C607.737 1065.04 607.684 1065.04 607.579 1065.09L606.581 1063.94L606.108 1063.41L605.688 1062.94L605.53 1062.73L601.695 1058.3L601.379 1057.93L600.959 1057.46H600.906L599.803 1057.72L598.542 1057.99C597.859 1057.67 597.018 1057.46 596.073 1057.3C594.181 1057.04 591.764 1057.3 589.032 1057.99C586.3 1058.67 583.2 1059.88 579.942 1061.51C573.375 1064.78 566.124 1069.78 559.084 1076.2C556.614 1078.42 554.355 1080.73 552.253 1083C550.204 1085.21 548.365 1087.47 546.684 1089.63C543.269 1094.11 540.694 1098.43 539.013 1102.32C537.91 1104.9 537.227 1107.27 536.964 1109.33C536.754 1110.8 536.806 1112.12 537.069 1113.17C537.174 1113.54 537.279 1113.8 537.384 1114.12C537.647 1114.75 537.962 1115.28 538.382 1115.75L542.638 1120.22L543.111 1120.7L543.164 1120.65C543.276 1120.48 543.419 1120.34 543.584 1120.22L543.637 1120.17L543.794 1120.01C543.899 1119.86 544.057 1119.75 544.162 1119.59C544.267 1119.49 544.32 1119.43 544.425 1119.38C544.53 1119.33 544.582 1119.22 544.687 1119.17L544.793 1119.07C544.898 1119.01 544.95 1118.91 545.055 1118.86C545.16 1118.75 545.318 1118.65 545.423 1118.54C545.475 1118.49 545.581 1118.43 545.633 1118.38H545.686C545.843 1118.28 545.949 1118.17 546.106 1118.07C546.211 1118.01 546.264 1117.96 546.369 1117.86C546.526 1117.75 546.631 1117.64 546.789 1117.54C546.894 1117.49 546.947 1117.43 547.052 1117.38C547.209 1117.28 547.367 1117.17 547.525 1117.12C547.63 1117.07 547.682 1117.01 547.787 1116.96C547.945 1116.85 548.103 1116.8 548.26 1116.7C548.365 1116.64 548.418 1116.59 548.523 1116.54L548.628 1116.49C548.786 1116.43 548.891 1116.33 549.048 1116.28C549.101 1116.22 549.206 1116.22 549.258 1116.17C549.364 1116.12 549.469 1116.06 549.626 1116.01L549.942 1115.85L550.047 1115.8L550.835 1115.49C550.94 1115.43 550.992 1115.43 551.097 1115.38C551.202 1115.33 551.255 1115.33 551.36 1115.28L551.465 1115.22C551.518 1115.22 551.57 1115.17 551.623 1115.17C551.728 1115.12 551.833 1115.12 551.991 1115.06H552.096C552.253 1115.01 552.358 1115.01 552.516 1114.96C552.621 1114.91 552.779 1114.91 552.884 1114.85C553.041 1114.8 553.199 1114.8 553.357 1114.75C553.409 1114.75 553.462 1114.7 553.567 1114.7C553.619 1114.7 553.724 1114.7 553.777 1114.64C553.935 1114.59 554.092 1114.59 554.25 1114.59C554.408 1114.59 554.513 1114.54 554.67 1114.54C554.775 1114.54 554.88 1114.49 554.986 1114.49H555.406C555.931 1114.49 556.562 1114.49 557.192 1114.54H557.297C557.928 1114.59 558.663 1114.7 559.399 1114.85C559.557 1114.91 559.767 1114.91 559.924 1114.96C559.977 1114.91 559.977 1114.8 560.029 1114.75C560.45 1114.06 560.818 1113.33 561.238 1112.64C563.602 1108.69 566.124 1105.22 568.699 1102.16C569.592 1101.11 570.485 1100.16 571.378 1099.22C574.663 1095.78 578.289 1092.7 582.202 1090C582.937 1089.47 583.726 1089 584.408 1088.53C585.407 1087.89 586.353 1087.37 587.246 1086.84C587.981 1086.42 588.664 1086.05 589.348 1085.74C590.451 1085.16 591.449 1084.68 592.342 1084.31L593.13 1084C593.498 1083.84 593.866 1083.68 594.181 1083.58C593.919 1083.52 593.603 1083.52 593.341 1083.52H592.29C592.027 1083.52 591.712 1083.52 591.449 1083.58C590.924 1083.63 590.346 1083.68 589.768 1083.73C589.558 1083.79 589.4 1083.79 589.19 1083.84C590.608 1083.1 592.027 1082.58 593.341 1082.15C594.205 1081.9 595.082 1081.69 595.968 1081.52C597.123 1081.31 598.227 1081.15 599.225 1081.1C599.908 1081.05 600.539 1081.05 601.117 1081.05C601.695 1081.05 602.272 1081.1 602.745 1081.1C604.479 1081.21 605.53 1081.47 605.53 1081.47C605.267 1081.1 604.952 1080.84 604.637 1080.58C604.006 1080.1 603.323 1079.79 602.693 1079.52C602.43 1079.42 602.22 1079.36 602.01 1079.26C601.852 1079.21 601.695 1079.15 601.589 1079.15C601.905 1079.1 602.167 1079.05 602.43 1079.05C602.745 1079 603.008 1079 603.323 1078.94C605.793 1078.73 608 1078.94 609.628 1079.21C611.572 1079.57 612.781 1080.05 612.781 1080.05C612.518 1079.52 612.098 1079.05 611.625 1078.63C611.31 1078.36 610.942 1078.1 610.627 1077.89C611.31 1078.05 611.888 1078.21 612.518 1078.42C614.094 1078.89 615.408 1079.47 616.459 1079.94L617.404 1080.42C617.509 1080.47 617.562 1080.52 617.614 1080.52C618.56 1081.05 619.086 1081.42 619.086 1081.42C618.928 1080.84 618.613 1080.31 618.193 1079.84C618.087 1079.73 617.982 1079.57 617.877 1079.47H617.93C617.982 1079.47 618.035 1079.52 618.14 1079.52C618.193 1079.52 618.298 1079.57 618.403 1079.63C618.823 1079.79 619.453 1080.05 620.189 1080.42C620.242 1080.42 620.242 1080.47 620.294 1080.47L620.609 1080.63C620.872 1080.79 621.135 1080.89 621.398 1081.1L622.186 1081.58C622.343 1081.68 622.448 1081.73 622.606 1081.84C622.869 1082.05 623.184 1082.26 623.447 1082.52C623.762 1082.79 624.025 1083.05 624.287 1083.31L624.445 1083.47C624.655 1083.68 624.865 1083.89 625.023 1084.1C625.391 1084.52 625.706 1085 626.021 1085.47C626.389 1086.05 626.652 1086.74 626.914 1087.42C626.914 1087.47 626.914 1087.53 626.967 1087.53C627.125 1087.37 627.44 1087.05 627.807 1086.63C630.855 1083.05 639.997 1071.47 634.48 1064.41Z" fill="#132134"/>
<path d="M647.959 1150.84C647.959 1150.84 648.064 1150.05 647.644 1149.32C647.644 1149.26 647.591 1149.21 647.591 1149.21L647.539 1149.16L647.381 1149C647.276 1148.9 647.171 1148.79 647.013 1148.69C646.961 1148.63 646.856 1148.58 646.751 1148.53C646.488 1148.42 646.226 1148.32 645.858 1148.27C645.596 1148.21 645.333 1148.21 645.018 1148.21H644.598V1148.32C644.598 1148.37 644.651 1148.42 644.651 1148.53C644.651 1148.58 644.651 1148.63 644.703 1148.63C644.756 1148.79 644.808 1149.05 644.861 1149.26C644.861 1149.26 644.861 1149.32 644.808 1149.42V1149.47C644.651 1149.84 644.231 1150.68 643.286 1151.73C643.128 1151.94 642.97 1152.1 642.76 1152.31C640.135 1155.04 634.464 1158.88 622.492 1161.03C618.449 1161.61 614.669 1161.66 611.518 1161.24C606.793 1160.66 603.275 1159.14 601.595 1157.09C601.437 1156.93 601.332 1156.72 601.175 1156.56C601.069 1156.41 601.017 1156.3 600.912 1156.14C600.859 1156.09 600.859 1156.04 600.807 1155.99C600.153 1154.78 599.81 1153.42 599.809 1152.05C599.809 1150.42 600.334 1148.9 601.175 1147.74C601.857 1146.8 602.75 1146.06 603.852 1145.75C604.377 1145.59 604.955 1145.48 605.533 1145.54C605.638 1145.54 605.795 1145.54 606.005 1145.59C606.373 1145.64 606.95 1145.69 607.633 1145.8C607.685 1145.8 607.79 1145.8 607.843 1145.85C610.101 1146.11 613.671 1146.48 617.977 1146.22C625.853 1145.75 636.197 1143.28 645.596 1134.77V1134.72C645.648 1133.98 645.543 1132.72 644.651 1131.72C644.493 1131.56 644.336 1131.41 644.126 1131.25C644.021 1131.14 643.863 1131.09 643.758 1130.99C643.6 1130.93 643.496 1130.83 643.391 1130.78L642.918 1130.46V1130.41C642.865 1130.3 642.813 1130.2 642.708 1130.09C640.293 1126.42 636.932 1124.26 635.567 1123.27C634.937 1122.79 634.517 1122.58 634.517 1122.58C631.629 1120.8 631.209 1120.22 631.471 1115.44C631.576 1113.71 631.734 1111.45 631.944 1108.35C631.944 1107.93 631.996 1107.56 631.996 1107.2V1105.67C631.996 1105.41 631.944 1105.15 631.944 1104.94C631.944 1104.83 631.944 1104.73 631.891 1104.62C631.839 1104.36 631.839 1104.1 631.786 1103.83C631.786 1103.73 631.734 1103.57 631.734 1103.47C631.734 1103.31 631.681 1103.2 631.629 1103.05C631.576 1102.94 631.576 1102.78 631.524 1102.68C631.471 1102.52 631.419 1102.36 631.419 1102.21C631.419 1102.15 631.366 1102.1 631.366 1102.05C631.366 1102 631.314 1101.94 631.314 1101.89V1101.84L631.261 1101.68C631.209 1101.58 631.156 1101.47 631.156 1101.37V1101.31L631.104 1101.21L631.051 1101.1C630.946 1100.89 630.894 1100.68 630.789 1100.53L630.736 1100.37C630.631 1100.21 630.526 1100 630.421 1099.84L630.369 1099.79L630.316 1099.74C630.211 1099.63 630.159 1099.53 630.054 1099.42L629.949 1099.26C629.844 1099.11 629.739 1099 629.634 1098.9V1098.48C629.581 1098.27 629.529 1098 629.476 1097.74C629.476 1097.69 629.424 1097.58 629.424 1097.53V1097.48C629.424 1097.37 629.371 1097.32 629.371 1097.22C629.319 1097.01 629.266 1096.8 629.161 1096.59C629.161 1096.53 629.109 1096.43 629.109 1096.38L628.951 1095.9C628.898 1095.8 628.898 1095.69 628.846 1095.64C628.793 1095.48 628.741 1095.33 628.636 1095.17L628.478 1094.85C628.426 1094.7 628.321 1094.54 628.268 1094.38L628.111 1094.07C628.006 1093.91 627.953 1093.75 627.848 1093.59L627.691 1093.28C627.586 1093.12 627.481 1092.96 627.376 1092.75C627.323 1092.65 627.271 1092.59 627.218 1092.49C627.166 1092.44 627.113 1092.33 627.061 1092.28C626.903 1092.12 626.798 1091.96 626.641 1091.81L626.536 1091.75C626.326 1091.54 626.168 1091.33 625.958 1091.18L625.906 1091.12C625.801 1091.07 625.696 1090.97 625.643 1090.91H625.591C625.486 1090.86 625.433 1090.81 625.328 1090.76L625.275 1090.7C625.17 1090.65 625.013 1090.55 624.803 1090.44C624.75 1090.39 624.645 1090.39 624.54 1090.34C624.068 1090.18 623.49 1089.97 622.755 1089.76C622.703 1089.76 622.65 1089.76 622.598 1089.71C622.02 1089.55 621.338 1089.39 620.602 1089.29C620.34 1089.23 620.13 1089.23 619.867 1089.18C619.762 1089.18 619.657 1089.18 619.5 1089.13H619.342C618.765 1089.08 618.239 1089.02 617.662 1089.02H617.609C616.874 1089.02 616.139 1089.08 615.456 1089.23C615.614 1088.97 616.087 1088.66 616.507 1088.39C617.084 1088.08 617.609 1087.87 617.609 1087.87C617.294 1087.87 616.979 1087.92 616.664 1087.97C616.559 1087.97 616.454 1088.03 616.349 1088.03C616.297 1088.03 616.192 1088.03 616.139 1088.08H616.087C616.034 1088.08 615.982 1088.08 615.929 1088.13C614.301 1088.5 612.726 1089.08 611.834 1089.44L611.518 1089.6H611.466C611.361 1089.6 611.308 1089.6 611.203 1089.65C611.833 1088.45 612.779 1087.82 613.514 1087.5C613.619 1087.45 613.776 1087.4 613.881 1087.34C613.934 1087.34 613.934 1087.34 613.986 1087.29C614.091 1087.24 614.196 1087.24 614.249 1087.19C614.406 1087.13 614.511 1087.13 614.511 1087.13H613.671C611.886 1087.34 610.258 1087.92 608.893 1088.71C607.948 1089.23 607.108 1089.81 606.373 1090.39C606.163 1090.44 606.005 1090.49 605.795 1090.49C603.8 1090.91 601.542 1091.44 599.179 1092.17C598.287 1092.44 597.394 1092.75 596.501 1093.07C595.819 1093.33 595.084 1093.59 594.401 1093.86C593.876 1094.07 593.403 1094.28 592.878 1094.49C589.255 1096.11 585.632 1098.27 582.639 1101.16L582.324 1101.47L581.537 1102.26L581.222 1102.57C581.117 1102.73 580.959 1102.89 580.854 1102.99C580.277 1103.62 579.751 1104.31 579.226 1105.04C578.859 1105.57 578.491 1106.15 578.176 1106.72L578.124 1106.78C577.441 1107.98 576.811 1109.24 576.339 1110.66C576.076 1111.34 575.866 1112.08 575.656 1112.82C575.603 1113.03 575.551 1113.18 575.498 1113.39L575.446 1113.5C575.236 1114.29 575.078 1115.13 574.973 1115.97C574.973 1116.12 574.921 1116.28 574.921 1116.49C574.868 1116.91 574.816 1117.33 574.816 1117.8C574.763 1118.22 574.763 1118.59 574.763 1119.01V1120.64C574.763 1121.11 574.763 1121.59 574.816 1122.06V1122.11C574.816 1122.58 574.868 1123.06 574.921 1123.58C574.921 1123.79 574.973 1124 574.973 1124.21V1124.37C574.973 1124.47 574.973 1124.58 575.026 1124.74C575.078 1125.26 575.183 1125.84 575.236 1126.42C575.236 1126.58 575.288 1126.73 575.288 1126.89C575.393 1127.36 575.446 1127.89 575.551 1128.36C575.551 1128.36 575.446 1127.73 575.498 1126.79C575.498 1126.58 575.551 1126.31 575.551 1126.1C575.603 1125.58 575.708 1124.95 575.919 1124.37L576.076 1123.9C576.076 1123.84 576.129 1123.79 576.181 1123.69C576.286 1123.42 576.444 1123.11 576.601 1122.85C576.654 1123.06 576.654 1123.27 576.706 1123.42V1126.21C576.759 1127.99 576.916 1130.15 577.284 1131.98C577.284 1131.98 577.336 1128.68 577.914 1128.26C577.914 1128.26 578.911 1134.45 579.804 1136.76C579.909 1137.08 580.067 1137.29 580.172 1137.45V1136.82L580.067 1133.4V1133.04C580.749 1134.45 581.537 1135.87 582.429 1137.39C582.692 1137.81 582.902 1138.23 583.164 1138.65C581.484 1140.13 579.909 1142.28 578.754 1144.8C578.596 1145.22 578.386 1145.64 578.229 1146.06C578.124 1146.32 578.071 1146.53 577.966 1146.8C577.966 1146.85 577.914 1146.95 577.914 1147.01C577.861 1147.16 577.809 1147.37 577.756 1147.53C577.756 1147.64 577.704 1147.69 577.704 1147.79C577.651 1147.95 577.599 1148.16 577.546 1148.32C577.546 1148.42 577.494 1148.48 577.494 1148.58L577.336 1149.37C577.284 1149.63 577.231 1149.89 577.231 1150.16C577.231 1150.26 577.231 1150.31 577.179 1150.42C577.179 1150.63 577.126 1150.79 577.126 1151C577.126 1151.1 577.126 1151.21 577.074 1151.31C577.074 1151.52 577.021 1151.68 577.021 1151.89V1153.73C577.021 1153.94 577.021 1154.15 577.074 1154.41V1154.57C577.074 1154.83 577.126 1155.09 577.179 1155.41C577.179 1155.51 577.179 1155.57 577.231 1155.67C577.231 1155.88 577.284 1156.04 577.336 1156.25C577.336 1156.35 577.389 1156.46 577.389 1156.56C577.441 1156.72 577.441 1156.93 577.494 1157.09C577.494 1157.19 577.546 1157.3 577.546 1157.4C577.599 1157.56 577.651 1157.72 577.651 1157.93C577.704 1158.03 577.704 1158.14 577.756 1158.3C577.809 1158.45 577.861 1158.66 577.914 1158.82C577.966 1158.93 577.966 1159.03 578.019 1159.14C578.071 1159.3 578.124 1159.51 578.176 1159.66C578.229 1159.77 578.229 1159.87 578.281 1159.98C578.334 1160.19 578.439 1160.4 578.491 1160.56C578.544 1160.66 578.544 1160.71 578.596 1160.82L579.384 1162.55C579.436 1162.66 579.489 1162.71 579.541 1162.81L579.857 1163.44C579.909 1163.55 579.962 1163.65 580.067 1163.76C580.172 1163.92 580.277 1164.13 580.382 1164.28C580.434 1164.39 580.539 1164.49 580.592 1164.6C580.697 1164.76 580.802 1164.97 580.959 1165.13C581.064 1165.23 581.117 1165.34 581.222 1165.49C581.327 1165.65 581.484 1165.86 581.589 1166.02C581.694 1166.12 581.747 1166.23 581.852 1166.39C582.009 1166.54 582.114 1166.75 582.272 1166.91C582.377 1167.02 582.429 1167.12 582.534 1167.23C582.692 1167.44 582.849 1167.59 583.059 1167.8L583.322 1168.07C583.584 1168.33 583.847 1168.64 584.11 1168.91C584.11 1168.91 583.952 1168.7 583.742 1168.28C583.69 1168.22 583.637 1168.12 583.637 1168.01L583.479 1167.7C583.427 1167.59 583.374 1167.49 583.322 1167.33C582.902 1166.39 582.534 1165.02 582.587 1163.55L583.059 1164.18C583.217 1164.55 583.479 1165.02 583.742 1165.55C583.847 1165.7 583.952 1165.91 584.005 1166.07C584.425 1166.81 584.845 1167.65 585.37 1168.43C586 1169.43 586.63 1170.38 587.313 1171.27C587.313 1171.27 586.525 1169.59 586.262 1168.49C586.21 1168.17 586.157 1167.91 586.21 1167.75C586.262 1167.8 586.315 1167.91 586.42 1167.96C586.472 1168.01 586.525 1168.12 586.63 1168.17C586.735 1168.33 586.892 1168.54 587.102 1168.8L587.207 1168.91C587.313 1169.01 587.365 1169.17 587.47 1169.27C587.575 1169.43 587.68 1169.59 587.838 1169.75C588.94 1171.16 590.463 1173.06 591.513 1174.05C591.881 1174.37 592.196 1174.63 592.406 1174.74L590.883 1172.01C594.349 1174.84 608.736 1178.47 622.86 1174.42C624.593 1173.95 626.273 1173.32 627.953 1172.58C628.951 1172.16 629.949 1171.64 630.946 1171.11L631.104 1171.01C631.786 1170.64 632.469 1170.22 633.152 1169.8C633.677 1169.48 634.202 1169.12 634.674 1168.8C635.539 1168.21 636.38 1167.57 637.195 1166.91C637.247 1166.86 637.3 1166.81 637.352 1166.81C638.14 1166.12 638.927 1165.39 639.61 1164.65C640.555 1163.65 641.395 1162.66 642.13 1161.66L642.183 1161.61C642.393 1161.34 642.55 1161.13 642.708 1160.87L642.76 1160.82C642.813 1160.71 642.865 1160.66 642.918 1160.56C643.18 1160.19 643.39 1159.87 643.653 1159.51C643.705 1159.4 643.758 1159.35 643.811 1159.24C643.916 1159.03 644.021 1158.88 644.178 1158.66C644.283 1158.51 644.336 1158.4 644.441 1158.24C644.546 1158.09 644.651 1157.93 644.703 1157.77C644.861 1157.51 645.018 1157.19 645.176 1156.93L645.333 1156.62L645.648 1155.99L645.806 1155.67L645.858 1155.57C645.963 1155.3 646.121 1155.04 646.226 1154.78V1154.73C646.698 1154.31 647.013 1153.89 647.328 1153.52C647.381 1153.47 647.434 1153.41 647.434 1153.36C647.749 1152.36 647.959 1151.57 647.959 1150.84ZM563.474 1140.65C563.474 1140.6 563.474 1140.55 563.422 1140.44C563.264 1139.55 563.107 1138.6 563.054 1137.66V1137.45C562.897 1137.5 562.739 1137.71 562.529 1137.97C562.477 1138.08 562.372 1138.18 562.319 1138.34C561.847 1139.23 561.426 1140.49 561.426 1140.49C561.479 1140.07 561.531 1139.65 561.531 1139.23V1139.08C561.584 1138.66 561.637 1138.18 561.689 1137.76V1137.6C561.742 1137.08 561.847 1136.61 561.952 1136.13C561.952 1136.08 561.952 1136.03 562.004 1135.92V1135.87C562.004 1135.82 562.004 1135.77 562.057 1135.71C562.057 1135.61 562.109 1135.56 562.109 1135.45C562.162 1135.08 562.267 1134.72 562.319 1134.35C562.372 1134.03 562.424 1133.72 562.477 1133.46V1133.35C562.477 1133.3 562.477 1133.25 562.529 1133.25V1133.14C562.529 1133.09 562.582 1132.98 562.582 1132.93C562.582 1132.88 562.582 1132.83 562.634 1132.77C562.634 1132.67 562.687 1132.56 562.687 1132.51C562.687 1132.46 562.739 1132.35 562.739 1132.3C562.739 1132.19 562.792 1132.09 562.792 1132.04C562.792 1131.98 562.792 1131.93 562.844 1131.88C562.844 1131.83 562.844 1131.77 562.897 1131.77C562.897 1131.67 562.949 1131.62 562.949 1131.56V1131.41L562.844 1131.51C562.739 1131.56 562.687 1131.67 562.582 1131.72L562.477 1131.83C562.372 1131.93 562.267 1132.04 562.214 1132.14L562.162 1132.19L561.847 1132.67L561.794 1132.72C561.794 1132.77 561.742 1132.77 561.742 1132.83L561.584 1133.14V1133.25C561.531 1133.4 561.426 1133.56 561.374 1133.72C561.216 1134.14 561.059 1134.56 560.954 1134.93C560.901 1135.03 560.901 1135.19 560.849 1135.24C560.796 1135.45 560.744 1135.66 560.744 1135.71V1135.77V1135.71C560.744 1135.56 560.744 1135.45 560.796 1135.29C560.796 1135.03 560.849 1134.72 560.849 1134.45C560.849 1134.24 560.901 1133.98 560.954 1133.77C560.954 1133.72 560.954 1133.61 561.006 1133.56C561.006 1133.46 561.059 1133.35 561.059 1133.25C561.059 1133.14 561.111 1133.04 561.111 1132.93V1132.77C561.111 1132.67 561.164 1132.51 561.164 1132.4V1132.04C561.164 1131.98 561.164 1131.93 561.216 1131.88C561.269 1131.72 561.321 1131.51 561.321 1131.35V1131.3C561.374 1131.2 561.374 1131.04 561.426 1130.93V1130.88C561.479 1130.62 561.584 1130.36 561.636 1130.09V1129.99C561.636 1129.94 561.636 1129.88 561.689 1129.83C561.794 1129.41 561.952 1128.99 562.057 1128.62V1128.57C562.162 1128.26 562.319 1127.89 562.424 1127.57V1127.52C562.477 1127.36 562.529 1127.26 562.582 1127.1C562.687 1126.89 562.739 1126.68 562.844 1126.47C562.844 1126.42 562.897 1126.31 563.002 1126.1C563.054 1126.05 563.054 1125.95 563.107 1125.89C563.159 1125.79 563.212 1125.68 563.264 1125.52L563.317 1125.42L564.209 1123.79C564.262 1123.74 564.262 1123.63 564.314 1123.58V1123.53L564.367 1123.42C564.472 1123.27 564.577 1123.06 564.682 1122.9C564.839 1122.64 564.944 1122.37 565.102 1122.16C565.365 1121.69 565.575 1121.27 565.732 1121.06C565.785 1120.9 565.837 1120.85 565.89 1120.8C565.837 1120.8 565.575 1120.59 565.155 1120.33C564.629 1120.01 563.894 1119.59 563.002 1119.17C562.687 1119.01 562.424 1118.91 562.109 1118.75C561.742 1118.59 561.321 1118.43 560.901 1118.28C560.796 1118.22 560.691 1118.22 560.586 1118.17C560.219 1118.07 559.904 1117.96 559.536 1117.86C559.274 1117.8 559.011 1117.75 558.801 1117.7C558.591 1117.65 558.381 1117.65 558.171 1117.59C558.066 1117.59 557.961 1117.59 557.856 1117.54C557.751 1117.54 557.646 1117.54 557.541 1117.49C557.278 1117.49 556.963 1117.44 556.701 1117.44H556.281C555.651 1117.44 555.073 1117.49 554.495 1117.59H554.39C553.34 1117.75 552.343 1118.01 551.345 1118.38C551.03 1118.49 550.715 1118.64 550.347 1118.8C550.242 1118.85 550.19 1118.91 550.085 1118.91L549.77 1119.06C548.825 1119.54 547.932 1120.17 547.092 1120.85H547.039C546.304 1121.43 545.674 1122.11 545.097 1122.79L544.624 1123.42C544.414 1123.69 544.257 1123.95 544.099 1124.21C543.784 1124.68 543.469 1125.21 543.206 1125.73C543.101 1125.94 542.996 1126.1 542.944 1126.31C542.944 1126.37 542.891 1126.37 542.891 1126.42C542.366 1127.68 541.946 1128.99 541.789 1130.41C541.736 1130.67 541.736 1130.93 541.684 1131.25V1131.35C541.684 1131.56 541.631 1131.77 541.631 1132.04V1132.98C541.631 1133.19 541.631 1133.4 541.684 1133.61V1133.88C541.684 1134.03 541.736 1134.19 541.736 1134.35V1134.4C541.736 1134.51 541.736 1134.56 541.789 1134.66C541.789 1134.82 541.841 1134.98 541.841 1135.08C541.841 1135.19 541.894 1135.29 541.894 1135.4C541.946 1135.56 541.946 1135.66 541.999 1135.82C541.999 1135.92 542.051 1136.03 542.104 1136.13V1136.19L542.156 1136.29V1136.4L542.209 1136.5C542.261 1136.61 542.261 1136.71 542.314 1136.82C542.366 1136.92 542.366 1137.08 542.419 1137.18C542.471 1137.29 542.524 1137.39 542.524 1137.55L542.576 1137.66C542.629 1137.76 542.629 1137.81 542.681 1137.92C542.734 1138.02 542.786 1138.13 542.839 1138.29L542.996 1138.6C543.049 1138.65 543.049 1138.71 543.101 1138.76C543.154 1138.81 543.154 1138.87 543.206 1138.92L543.364 1139.23C543.416 1139.34 543.469 1139.5 543.574 1139.6C543.626 1139.71 543.679 1139.81 543.731 1139.86C543.784 1139.97 543.889 1140.13 543.941 1140.23C543.994 1140.34 544.046 1140.39 544.099 1140.49C544.151 1140.6 544.257 1140.76 544.362 1140.86C544.414 1140.97 544.467 1141.02 544.519 1141.07C544.624 1141.18 544.677 1141.33 544.782 1141.44C544.834 1141.49 544.887 1141.6 544.939 1141.65C545.044 1141.75 545.149 1141.91 545.254 1142.02C545.307 1142.07 545.359 1142.12 545.412 1142.23C545.517 1142.33 545.622 1142.49 545.727 1142.59L545.884 1142.75C545.989 1142.86 546.094 1143.01 546.252 1143.12L546.409 1143.28L546.777 1143.64C546.829 1143.7 546.882 1143.75 546.934 1143.75C547.039 1143.85 547.197 1143.96 547.354 1144.12C547.407 1144.17 547.459 1144.17 547.512 1144.22C547.67 1144.33 547.775 1144.43 547.932 1144.54C547.985 1144.59 548.037 1144.59 548.037 1144.64L548.51 1144.96L548.615 1145.01L549.087 1145.32L549.192 1145.38C549.35 1145.48 549.56 1145.59 549.717 1145.69L549.822 1145.75C549.98 1145.85 550.19 1145.96 550.347 1146.01L550.452 1146.06C550.662 1146.17 550.82 1146.22 551.03 1146.32L551.082 1146.38C551.292 1146.48 551.502 1146.53 551.66 1146.64H551.713C551.923 1146.69 552.133 1146.8 552.343 1146.85H552.395C552.5 1146.9 552.605 1146.9 552.71 1146.95C552.815 1147.01 552.92 1147.01 553.078 1147.06H553.13C553.34 1147.11 553.603 1147.16 553.813 1147.22C554.023 1147.27 554.285 1147.32 554.495 1147.32C555.231 1147.43 555.966 1147.48 556.701 1147.53H557.226C557.488 1147.53 557.698 1147.53 557.961 1147.48C558.276 1147.43 558.644 1147.43 559.011 1147.37C559.326 1147.32 559.641 1147.27 559.904 1147.22C560.376 1147.11 560.849 1147.01 561.269 1146.85C562.634 1146.48 563.789 1145.96 564.524 1145.38C564.524 1145.38 564.052 1143.28 563.684 1141.18C563.579 1141.07 563.527 1140.86 563.474 1140.65Z" fill="#90694C"/>
<path d="M597.2 1062.51L597.042 1060.41L598.092 1058.09L598.513 1057.99C597.83 1057.67 596.99 1057.46 596.044 1057.3C594.154 1057.04 591.738 1057.3 589.007 1057.99C586.276 1058.67 583.178 1059.88 579.922 1061.51C573.357 1064.78 566.11 1069.78 559.073 1076.2C556.605 1078.42 554.347 1080.73 552.246 1083C550.198 1085.21 548.36 1087.47 546.679 1089.63C543.266 1094.11 540.692 1098.43 539.012 1102.32C537.909 1104.9 537.226 1107.27 536.964 1109.33C536.754 1110.8 536.806 1112.12 537.069 1113.17C537.174 1113.54 537.279 1113.8 537.384 1114.12C537.647 1114.75 537.962 1115.28 538.382 1115.75L542.636 1120.22L543.108 1120.7L543.161 1120.65C543.273 1120.48 543.416 1120.34 543.581 1120.22L543.633 1120.17L543.791 1120.01C543.896 1119.86 544.054 1119.75 544.159 1119.59C544.264 1119.49 544.316 1119.43 544.421 1119.38C544.526 1119.33 544.579 1119.22 544.684 1119.17L544.789 1119.07C544.894 1119.01 544.946 1118.91 545.051 1118.86C545.156 1118.75 545.314 1118.65 545.419 1118.54C545.471 1118.49 545.576 1118.43 545.629 1118.38H545.681C545.839 1118.28 545.944 1118.17 546.102 1118.07C546.207 1118.01 546.259 1117.96 546.364 1117.86C546.522 1117.75 546.627 1117.64 546.784 1117.54C546.889 1117.49 546.942 1117.43 547.047 1117.38C547.204 1117.28 547.362 1117.17 547.52 1117.12C547.625 1117.07 547.677 1117.01 547.782 1116.96C547.94 1116.85 548.097 1116.8 548.255 1116.7C548.36 1116.64 548.412 1116.59 548.517 1116.54L548.622 1116.49C549.62 1113.7 551.143 1110.59 553.139 1107.43C555.555 1103.53 558.653 1099.43 562.329 1095.32C564.64 1092.74 567.16 1090.16 569.891 1087.68C573.41 1084.47 577.033 1081.58 580.605 1079.05C583.02 1077.36 585.384 1075.84 587.694 1074.52C587.904 1074.41 588.114 1074.26 588.377 1074.15C588.978 1073.8 589.592 1073.46 590.215 1073.15C591.528 1072.47 592.841 1071.83 594.101 1071.31L593.471 1070.57L593.366 1070.47L592.578 1069.57L588.219 1064.3L588.272 1060.51L588.219 1060.46L591.318 1059.51L597.2 1062.51Z" fill="#2F83C1"/>
<path d="M647.96 1150.7C647.96 1150.7 648.065 1149.91 647.645 1149.18C647.645 1149.13 647.592 1149.07 647.592 1149.07L647.54 1149.02L647.382 1148.86C647.277 1148.76 647.172 1148.65 647.015 1148.55C646.962 1148.5 646.857 1148.45 646.752 1148.39C646.49 1148.29 646.227 1148.18 645.86 1148.13C645.597 1148.08 645.335 1148.08 645.02 1148.08H644.6V1148.18C644.6 1148.24 644.652 1148.29 644.652 1148.39C644.652 1148.45 644.652 1148.5 644.705 1148.5C644.757 1148.65 644.81 1148.92 644.862 1149.13C644.862 1149.13 644.862 1149.18 644.81 1149.28V1149.34C644.652 1149.7 644.232 1150.54 643.287 1151.59C643.13 1151.8 642.972 1151.96 642.762 1152.17C640.137 1154.9 634.467 1158.73 622.497 1160.88C618.454 1161.46 614.674 1161.51 611.524 1161.09C606.799 1160.51 603.282 1158.99 601.602 1156.94C601.444 1156.79 601.339 1156.58 601.182 1156.42C601.077 1156.26 601.024 1156.16 600.919 1156C600.867 1155.95 600.867 1155.9 600.814 1155.84C600.16 1154.63 599.817 1153.28 599.817 1151.91C599.817 1150.28 600.342 1148.76 601.182 1147.61C601.864 1146.66 602.757 1145.93 603.859 1145.61C604.384 1145.45 604.962 1145.35 605.539 1145.4C605.644 1145.4 605.802 1145.4 606.012 1145.45C606.379 1145.51 606.957 1145.56 607.639 1145.66C607.692 1145.66 607.797 1145.66 607.849 1145.72C610.107 1145.98 613.677 1146.35 617.982 1146.08C625.857 1145.61 636.2 1143.15 645.597 1134.65V1134.59C645.65 1133.86 645.545 1132.6 644.652 1131.6C644.495 1131.45 644.337 1131.29 644.127 1131.13C644.022 1131.03 643.865 1130.97 643.76 1130.87C643.602 1130.82 643.497 1130.71 643.392 1130.66L642.92 1130.34V1130.29C642.867 1130.19 642.815 1130.08 642.71 1129.98C640.295 1126.3 636.935 1124.15 635.57 1123.16C634.94 1122.68 634.52 1122.47 634.52 1122.47C631.632 1120.69 631.212 1120.11 631.474 1115.34C631.579 1113.61 631.737 1111.35 631.947 1108.25C631.947 1107.84 632 1107.47 632 1107.1V1105.58C632 1105.32 631.947 1105.05 631.947 1104.84C631.947 1104.74 631.947 1104.63 631.894 1104.53C631.842 1104.27 631.842 1104 631.79 1103.74C631.79 1103.64 631.737 1103.48 631.737 1103.38C631.737 1103.22 631.684 1103.11 631.632 1102.96C631.579 1102.85 631.579 1102.69 631.527 1102.59C631.474 1102.43 631.422 1102.27 631.422 1102.12C631.422 1102.06 631.369 1102.01 631.369 1101.96C631.369 1101.91 631.317 1101.85 631.317 1101.8V1101.75L631.264 1101.59C631.212 1101.49 631.159 1101.38 631.159 1101.28V1101.22L631.107 1101.12L631.054 1101.01C630.949 1100.8 630.897 1100.59 630.792 1100.44L630.739 1100.28C630.634 1100.12 630.529 1099.91 630.424 1099.75L630.372 1099.7L630.319 1099.65C630.214 1099.55 630.162 1099.44 630.057 1099.34L629.952 1099.18C629.847 1099.02 629.742 1098.92 629.637 1098.81L629.217 1098.39C629.059 1098.29 628.902 1098.18 628.744 1098.13C628.692 1098.08 628.639 1098.08 628.587 1098.08L628.272 1097.92C628.219 1097.92 628.167 1097.87 628.114 1097.87C628.009 1097.81 627.904 1097.81 627.852 1097.76C627.799 1097.76 627.747 1097.71 627.642 1097.71C627.537 1097.71 627.484 1097.66 627.379 1097.66H626.225C626.172 1097.66 626.12 1097.66 626.067 1097.71C626.015 1097.71 625.962 1097.71 625.91 1097.76C625.805 1097.76 625.7 1097.81 625.542 1097.87H625.437C625.122 1097.97 624.86 1098.08 624.545 1098.18L624.44 1098.23C624.335 1098.29 624.229 1098.34 624.072 1098.39L623.914 1098.44L623.599 1098.6L623.442 1098.71L623.127 1098.86L622.969 1098.97C622.864 1099.02 622.759 1099.13 622.654 1099.18L622.549 1099.23C622.444 1099.34 622.287 1099.39 622.182 1099.49L622.129 1099.55C621.972 1099.65 621.867 1099.75 621.709 1099.81C621.447 1099.96 621.184 1100.17 620.922 1100.33C620.712 1100.49 620.502 1100.65 620.239 1100.8L620.134 1100.86C619.919 1101.02 619.691 1101.16 619.452 1101.28L619.347 1101.33C619.137 1101.49 618.874 1101.59 618.664 1101.75L618.559 1101.8C618.349 1101.96 618.087 1102.06 617.824 1102.17L617.719 1102.22C617.457 1102.33 617.247 1102.43 616.984 1102.54L616.879 1102.59C616.617 1102.69 616.354 1102.75 616.092 1102.85H616.039C615.777 1102.9 615.462 1102.96 615.199 1103.01C614.727 1103.06 614.202 1103.11 613.729 1103.11C612.942 1103.11 612.154 1103.06 611.314 1102.96L610.527 1102.8C610.422 1102.8 610.317 1102.75 610.264 1102.75C609.582 1102.59 608.847 1102.43 608.164 1102.27C607.849 1102.22 607.587 1102.12 607.272 1102.06C606.799 1101.96 606.327 1101.85 605.802 1101.75C605.697 1101.75 605.592 1101.7 605.539 1101.7C605.487 1101.7 605.382 1101.64 605.329 1101.64C605.224 1101.64 605.119 1101.59 605.014 1101.59C604.909 1101.59 604.804 1101.54 604.699 1101.54H604.594C604.489 1101.54 604.384 1101.49 604.332 1101.49C604.122 1101.43 603.912 1101.38 603.649 1101.38C603.597 1101.38 603.492 1101.38 603.439 1101.33C603.282 1101.33 603.124 1101.28 602.967 1101.28C602.862 1101.28 602.809 1101.28 602.704 1101.22C602.547 1101.22 602.442 1101.17 602.284 1101.17H599.869C599.607 1101.17 599.397 1101.22 599.134 1101.22H598.924C598.767 1101.22 598.609 1101.28 598.452 1101.28H598.399C598.294 1101.28 598.242 1101.33 598.137 1101.33C597.979 1101.38 597.822 1101.38 597.664 1101.43C597.559 1101.43 597.454 1101.49 597.402 1101.49C597.244 1101.54 597.087 1101.59 596.929 1101.59C596.824 1101.59 596.772 1101.64 596.667 1101.7C596.509 1101.75 596.299 1101.8 596.142 1101.85C596.037 1101.91 595.984 1101.91 595.932 1101.96C595.669 1102.06 595.407 1102.17 595.197 1102.27C593.202 1103.43 591.469 1105 590.157 1106.79C589.684 1107.42 589.264 1108.04 588.896 1108.67C588.476 1109.36 588.161 1110.09 587.846 1110.83C587.741 1111.04 587.689 1111.25 587.584 1111.46C587.479 1111.82 587.321 1112.19 587.216 1112.56C587.216 1112.61 587.216 1112.66 587.164 1112.66C587.059 1113.08 586.954 1113.5 586.849 1113.97C586.744 1114.45 586.691 1114.87 586.639 1115.34C586.586 1115.6 586.586 1115.81 586.586 1116.07C586.534 1116.74 586.534 1117.4 586.586 1118.07V1118.22C586.586 1118.38 586.586 1118.54 586.639 1118.75C586.691 1119.22 586.744 1119.69 586.849 1120.16C586.901 1120.32 586.954 1120.48 586.954 1120.69C587.006 1120.85 587.006 1121 587.059 1121.16C587.374 1122.37 587.846 1123.47 588.424 1124.41C590.577 1128.14 594.147 1130.4 596.772 1131.6C597.769 1132.02 598.819 1132.44 599.922 1132.81L599.817 1132.91C599.607 1132.97 599.397 1133.02 599.134 1133.07C598.767 1133.18 598.294 1133.33 597.822 1133.49C597.297 1133.65 596.667 1133.91 596.037 1134.17C594.357 1134.86 592.467 1135.85 590.787 1137.22C590.577 1137.37 590.367 1137.58 590.157 1137.74C589.798 1138.05 589.465 1138.38 589.159 1138.74L589.054 1138.84L588.896 1139C588.791 1139.16 588.634 1139.26 588.529 1139.42L588.371 1139.58C588.214 1139.79 588.056 1140 587.951 1140.21C587.794 1140.42 587.689 1140.63 587.531 1140.84C586.534 1142.57 585.956 1144.67 586.114 1147.19V1147.08C586.114 1147.03 586.114 1146.98 586.166 1146.92V1146.87C586.166 1146.82 586.219 1146.77 586.219 1146.66V1146.61C586.219 1146.56 586.271 1146.45 586.271 1146.35C586.271 1146.24 586.324 1146.19 586.376 1146.08V1146.03C586.429 1145.93 586.429 1145.82 586.481 1145.72V1145.66C586.534 1145.56 586.534 1145.45 586.586 1145.35V1145.3C586.639 1145.19 586.691 1145.09 586.744 1144.93L586.796 1144.88C586.849 1144.77 586.901 1144.61 587.006 1144.51C587.111 1144.3 587.216 1144.14 587.321 1143.93C587.374 1143.88 587.426 1143.78 587.479 1143.72L587.531 1143.67L587.846 1143.2C587.951 1143.09 588.056 1142.94 588.161 1142.83L588.266 1142.73C588.371 1142.62 588.424 1142.52 588.529 1142.46L588.634 1142.36C588.739 1142.25 588.896 1142.15 589.001 1141.99C589.001 1141.99 586.744 1147.13 587.741 1151.17V1150.39C587.741 1150.28 587.741 1150.18 587.794 1150.07C587.794 1149.97 587.794 1149.86 587.846 1149.76V1149.7C587.846 1149.6 587.899 1149.44 587.899 1149.34V1149.23C587.951 1149.07 587.951 1148.97 588.004 1148.81V1148.76C588.056 1148.6 588.109 1148.45 588.109 1148.34C588.109 1148.29 588.161 1148.24 588.161 1148.18L588.214 1148.08C588.266 1147.97 588.319 1147.82 588.371 1147.71C588.424 1147.55 588.529 1147.4 588.634 1147.24C588.634 1147.19 588.686 1147.13 588.686 1147.13L589.001 1146.66C589.001 1146.66 588.896 1147.92 588.896 1149.44C588.896 1149.7 588.896 1149.91 588.949 1150.18C588.949 1150.33 588.949 1150.49 589.001 1150.65C589.106 1149.02 589.421 1147.5 589.842 1146.08C589.421 1147.5 589.106 1149.02 589.001 1150.65C588.949 1151.7 588.949 1152.75 589.054 1153.85C589.211 1155.69 589.684 1157.68 590.472 1159.73C590.472 1159.73 589.737 1157.36 590.787 1155L591.102 1155.63C591.207 1156.32 591.312 1157.31 591.522 1158.41C591.732 1160.25 592.572 1165.76 596.352 1169.59C596.352 1169.59 594.934 1167.75 595.144 1165.39C595.302 1165.71 595.459 1165.97 595.564 1166.23C596.194 1167.44 597.454 1169.64 598.872 1171.22C598.872 1171.22 597.769 1169.06 598.032 1168.59C598.032 1168.59 601.707 1173.16 602.862 1173.58L601.339 1171.06L601.287 1171.01C606.589 1174.89 613.939 1176.31 622.969 1173.79C624.545 1173.37 626.12 1172.79 627.8 1172.11C628.797 1171.69 629.794 1171.16 630.792 1170.64L630.949 1170.53C631.632 1170.17 632.315 1169.75 632.997 1169.33C633.522 1169.01 634.047 1168.65 634.52 1168.33C635.36 1167.75 636.2 1167.12 637.04 1166.44C637.092 1166.39 637.145 1166.34 637.197 1166.34C637.985 1165.65 638.772 1164.92 639.455 1164.19C640.4 1163.19 641.24 1162.19 641.975 1161.19L642.027 1161.14C642.237 1160.88 642.395 1160.67 642.552 1160.41L642.605 1160.36C642.657 1160.25 642.71 1160.2 642.762 1160.09C643.025 1159.73 643.235 1159.41 643.497 1159.04C643.55 1158.94 643.602 1158.89 643.655 1158.78C643.76 1158.57 643.865 1158.41 644.022 1158.2C644.127 1158.05 644.18 1157.94 644.285 1157.78C644.39 1157.63 644.495 1157.47 644.547 1157.31C644.705 1157.05 644.862 1156.73 645.02 1156.47L645.177 1156.16L645.492 1155.53L645.65 1155.21L645.702 1155.11C645.807 1154.85 645.965 1154.58 646.07 1154.32V1154.27C646.542 1153.85 646.857 1153.43 647.172 1153.06C647.225 1153.01 647.277 1152.96 647.277 1152.9C647.75 1152.22 647.96 1151.44 647.96 1150.7ZM563.066 1137.32C562.909 1137.37 562.751 1137.58 562.541 1137.85C562.489 1137.95 562.384 1138.06 562.331 1138.21C561.859 1139.11 561.439 1140.37 561.439 1140.37C561.491 1139.95 561.544 1139.53 561.544 1139.11V1138.95C561.596 1138.53 561.649 1138.06 561.701 1137.64V1137.48C561.754 1136.95 561.859 1136.48 561.964 1136.01C561.964 1135.96 561.964 1135.91 562.016 1135.8V1135.75C562.016 1135.7 562.016 1135.64 562.069 1135.59C562.069 1135.49 562.121 1135.43 562.121 1135.33C562.174 1134.96 562.279 1134.59 562.331 1134.23C562.384 1133.91 562.436 1133.6 562.489 1133.33V1133.23C562.489 1133.18 562.489 1133.12 562.541 1133.12V1133.02C562.541 1132.97 562.594 1132.86 562.594 1132.81C562.594 1132.76 562.594 1132.7 562.646 1132.65C562.646 1132.55 562.699 1132.44 562.699 1132.39C562.699 1132.34 562.751 1132.23 562.751 1132.18C562.751 1132.08 562.804 1131.97 562.804 1131.92C562.804 1131.87 562.804 1131.81 562.856 1131.76C562.856 1131.71 562.856 1131.66 562.909 1131.66C562.909 1131.55 562.961 1131.5 562.961 1131.45V1131.29L562.856 1131.39C562.751 1131.45 562.699 1131.55 562.594 1131.6L562.489 1131.71C562.384 1131.81 562.279 1131.92 562.226 1132.02L562.174 1132.08L561.859 1132.55L561.806 1132.6C561.806 1132.65 561.754 1132.65 561.754 1132.7L561.596 1133.02V1133.12C561.544 1133.28 561.439 1133.44 561.386 1133.6C561.229 1134.02 561.071 1134.44 560.966 1134.8C560.914 1134.91 560.914 1135.07 560.861 1135.12C560.809 1135.33 560.756 1135.54 560.756 1135.59V1135.64V1135.59C560.756 1135.43 560.756 1135.33 560.809 1135.17C560.809 1134.91 560.861 1134.59 560.861 1134.33C560.861 1134.12 560.914 1133.86 560.966 1133.65C560.966 1133.6 560.966 1133.49 561.019 1133.44C561.019 1133.33 561.071 1133.23 561.071 1133.12C561.071 1133.02 561.124 1132.91 561.124 1132.81V1132.65C561.124 1132.55 561.176 1132.39 561.176 1132.28V1131.92C561.176 1131.87 561.176 1131.81 561.229 1131.76C561.281 1131.6 561.334 1131.39 561.334 1131.24V1131.18C561.386 1131.08 561.386 1130.92 561.439 1130.82V1130.76C561.491 1130.5 561.596 1130.24 561.649 1129.98V1129.87C561.649 1129.82 561.649 1129.77 561.701 1129.71C561.806 1129.29 561.964 1128.87 562.069 1128.51V1128.45C562.174 1128.14 562.331 1127.77 562.436 1127.46V1127.41C562.489 1127.25 562.541 1127.14 562.594 1126.99C562.699 1126.78 562.751 1126.57 562.856 1126.36C562.856 1126.3 562.909 1126.2 563.014 1125.99C563.066 1125.94 563.066 1125.83 563.119 1125.78C563.171 1125.67 563.224 1125.57 563.276 1125.41L563.329 1125.31C563.276 1125.25 563.171 1125.25 563.119 1125.2H563.066L562.961 1125.15C562.489 1124.94 561.964 1124.73 561.439 1124.57H561.334C560.966 1124.47 560.651 1124.41 560.284 1124.36C560.074 1124.36 559.864 1124.31 559.654 1124.31H559.129C558.866 1124.31 558.604 1124.36 558.341 1124.36C558.236 1124.36 558.184 1124.36 558.079 1124.41C557.974 1124.41 557.816 1124.47 557.711 1124.47C557.659 1124.47 557.606 1124.47 557.554 1124.52C557.449 1124.52 557.396 1124.57 557.291 1124.57C557.134 1124.62 556.924 1124.68 556.766 1124.73C556.714 1124.73 556.609 1124.78 556.556 1124.78C556.346 1124.89 556.084 1124.94 555.874 1125.04C555.769 1125.1 555.716 1125.15 555.611 1125.15L555.296 1125.31L555.191 1125.36C555.086 1125.41 554.981 1125.46 554.876 1125.57C554.771 1125.62 554.666 1125.67 554.561 1125.78C554.456 1125.83 554.351 1125.94 554.246 1125.99C554.194 1126.04 554.089 1126.09 554.036 1126.15C553.879 1126.3 553.669 1126.46 553.511 1126.62L553.249 1126.88C553.091 1127.04 552.986 1127.2 552.829 1127.35L552.776 1127.41C552.724 1127.51 552.619 1127.56 552.566 1127.67L552.409 1127.83C552.146 1128.19 551.884 1128.61 551.674 1129.03C551.621 1129.08 551.621 1129.14 551.569 1129.19C551.464 1129.4 551.411 1129.61 551.306 1129.82C551.254 1129.92 551.254 1129.98 551.201 1130.08C551.149 1130.29 551.044 1130.5 550.991 1130.76V1130.97C550.939 1131.13 550.939 1131.29 550.886 1131.45C550.886 1131.55 550.886 1131.6 550.834 1131.71C550.834 1131.81 550.834 1131.87 550.781 1131.97V1132.18C550.781 1132.44 550.729 1132.7 550.781 1132.97C550.781 1133.18 550.781 1133.39 550.834 1133.6V1133.7C550.834 1133.81 550.886 1133.91 550.886 1134.02C550.939 1134.44 551.044 1134.8 551.149 1135.22C551.254 1135.54 551.359 1135.8 551.464 1136.06C551.674 1136.59 551.936 1137.06 552.251 1137.53C552.881 1138.48 553.721 1139.32 554.719 1139.95C555.244 1140.31 555.874 1140.57 556.504 1140.78C557.081 1140.99 557.711 1141.15 558.394 1141.2C558.551 1141.2 558.709 1141.26 558.814 1141.26H559.496C559.706 1141.26 559.916 1141.2 560.126 1141.2C560.231 1141.2 560.389 1141.2 560.494 1141.15C560.809 1141.1 561.071 1141.05 561.386 1140.99H561.439C561.544 1140.94 561.649 1140.94 561.806 1140.89C562.174 1140.78 562.541 1140.63 562.856 1140.47L562.909 1140.42C563.014 1140.37 563.119 1140.31 563.171 1140.31C563.014 1139.42 562.856 1138.48 562.804 1137.53C563.066 1137.43 563.066 1137.37 563.066 1137.32Z" fill="#FCE9CD"/>
<path d="M598.521 1063.19L598.688 1063.3L598.521 1063.19Z" fill="#4D9ED7"/>
<path d="M644.595 1148.7C644.595 1148.65 644.595 1148.6 644.543 1148.6C644.49 1148.49 644.49 1148.44 644.49 1148.39C644.228 1147.55 643.914 1146.92 643.6 1146.44C643.233 1145.86 642.919 1145.55 642.919 1145.55L643.076 1144.92C643.129 1144.65 643.181 1144.39 643.181 1144.13C643.39 1142.23 642.919 1140.76 642.5 1139.92C642.448 1139.76 642.395 1139.66 642.343 1139.55C642.029 1139.76 641.767 1139.97 641.453 1140.18C635.796 1144.02 629.459 1146.49 622.598 1147.55C617.884 1148.28 612.909 1148.34 607.724 1147.7L607.829 1147.76C607.829 1147.76 604.686 1148.18 603.848 1151.18L603.901 1151.23L603.639 1153.23C603.743 1155.96 604.948 1157.65 606.362 1158.54C607.829 1159.12 609.609 1159.54 611.599 1159.8C615.004 1160.22 618.984 1160.12 622.965 1159.49C628.307 1158.75 635.849 1155.91 641.243 1152.23C642.448 1151.39 643.6 1150.49 644.543 1149.6L644.595 1149.55L644.647 1149.49C644.647 1149.12 644.595 1148.91 644.595 1148.7Z" fill="white"/>
<path d="M634.473 1122.74C631.586 1120.95 631.166 1120.37 631.429 1115.58C631.534 1113.84 631.691 1111.58 631.901 1108.48C631.901 1108.06 631.954 1107.69 631.954 1107.32V1105.79C631.954 1105.53 631.901 1105.27 631.901 1105.06C631.901 1104.95 631.901 1104.85 631.849 1104.74C631.796 1104.48 631.796 1104.22 631.744 1103.95C631.744 1103.85 631.691 1103.69 631.691 1103.58C631.691 1103.43 631.639 1103.32 631.586 1103.16C631.534 1103.06 631.534 1102.9 631.481 1102.8C631.061 1102.16 630.589 1101.64 630.011 1101.16L629.906 1101.06L629.801 1101.01H629.749C629.644 1100.95 629.592 1100.9 629.487 1100.85C629.382 1100.8 629.277 1100.74 629.224 1100.69C628.384 1100.16 627.387 1099.85 626.39 1099.69C625.812 1099.59 625.235 1099.59 624.657 1099.59C624.395 1099.59 624.08 1099.64 623.818 1099.64C623.083 1099.74 622.348 1099.9 621.561 1100.11C621.298 1100.27 621.036 1100.48 620.773 1100.64C620.563 1100.8 620.353 1100.95 620.091 1101.11L619.986 1101.16C619.771 1101.32 619.542 1101.46 619.304 1101.59L619.199 1101.64C618.989 1101.8 618.726 1101.9 618.516 1102.06L618.411 1102.11C618.201 1102.27 617.939 1102.37 617.676 1102.48L617.571 1102.53C617.309 1102.64 617.099 1102.74 616.837 1102.85L616.732 1102.9C616.469 1103.01 616.207 1103.06 615.944 1103.16H615.892C615.629 1103.22 615.314 1103.27 615.052 1103.32C614.58 1103.37 614.055 1103.43 613.582 1103.43C612.795 1103.43 612.008 1103.37 611.168 1103.27L610.38 1103.11C610.275 1103.11 610.17 1103.06 610.118 1103.06C609.436 1102.9 608.701 1102.74 608.018 1102.58C607.703 1102.53 607.441 1102.43 607.126 1102.37C606.654 1102.27 606.181 1102.16 605.656 1102.06C605.551 1102.06 605.446 1102.01 605.394 1102.01C604.974 1102.01 604.554 1102.06 604.187 1102.11H604.082C602.874 1102.27 601.72 1102.53 600.512 1102.95C600.46 1102.95 600.407 1103.01 600.302 1103.01C600.092 1103.06 599.935 1103.16 599.725 1103.22C599.463 1103.32 599.253 1103.43 598.99 1103.53C597.258 1104.27 595.631 1105.32 594.056 1106.64C593.426 1107.16 592.849 1107.74 592.272 1108.32C591.432 1109.21 590.697 1110.16 590.014 1111.16C589.962 1111.21 589.962 1111.27 589.91 1111.32C589.542 1111.84 589.227 1112.42 588.965 1112.95C588.86 1113.16 588.755 1113.37 588.65 1113.53V1113.58C588.335 1114.26 588.072 1114.9 587.862 1115.58C587.862 1115.63 587.862 1115.69 587.81 1115.69C587.757 1115.79 587.757 1115.9 587.705 1116C587.6 1116.32 587.495 1116.63 587.443 1116.95C587.338 1117.26 587.285 1117.58 587.233 1117.95C587.233 1118 587.18 1118.11 587.18 1118.16C587.128 1118.37 587.128 1118.58 587.075 1118.74C586.97 1119.47 586.918 1120.21 586.865 1120.95V1121.47C587.18 1122.68 587.652 1123.79 588.23 1124.73C590.382 1128.47 593.951 1130.73 596.576 1131.94C597.573 1132.36 598.623 1132.78 599.725 1133.15L599.777 1133.2L599.83 1133.15C599.987 1133.05 600.092 1132.94 600.25 1132.84C600.302 1132.78 600.355 1132.78 600.407 1132.73L600.88 1132.42C600.932 1132.36 600.985 1132.36 601.037 1132.31L601.51 1131.99C601.562 1131.94 601.615 1131.94 601.667 1131.89C601.825 1131.78 601.982 1131.68 602.192 1131.57C602.244 1131.52 602.297 1131.52 602.349 1131.47C602.507 1131.36 602.717 1131.26 602.874 1131.15C602.927 1131.1 602.979 1131.1 603.032 1131.05C603.189 1130.94 603.399 1130.84 603.557 1130.73C603.609 1130.68 603.714 1130.68 603.767 1130.63C603.924 1130.52 604.134 1130.42 604.292 1130.31C604.344 1130.26 604.449 1130.21 604.502 1130.21C604.659 1130.1 604.869 1130 605.079 1129.89C605.184 1129.84 605.236 1129.79 605.341 1129.79C605.551 1129.68 605.709 1129.57 605.919 1129.52C606.024 1129.47 606.076 1129.42 606.181 1129.42C606.391 1129.31 606.549 1129.26 606.759 1129.15L607.074 1129C607.284 1128.89 607.441 1128.84 607.651 1128.73C607.756 1128.68 607.861 1128.63 608.018 1128.57C608.228 1128.52 608.386 1128.42 608.596 1128.36C608.701 1128.31 608.858 1128.26 608.963 1128.21C609.173 1128.15 609.331 1128.05 609.541 1128C609.698 1127.94 609.803 1127.89 609.961 1127.84C610.171 1127.79 610.328 1127.68 610.538 1127.63L611.01 1127.47C611.168 1127.42 611.378 1127.36 611.535 1127.26C611.693 1127.21 611.903 1127.15 612.06 1127.1C612.218 1127.05 612.428 1127 612.585 1126.94C612.795 1126.89 613.005 1126.84 613.162 1126.79C613.32 1126.73 613.477 1126.68 613.687 1126.63C613.897 1126.58 614.107 1126.52 614.37 1126.42C614.475 1126.37 614.58 1126.37 614.685 1126.31C615.524 1124.16 618.096 1118.79 622.453 1118.21C622.925 1118.16 623.345 1118.11 623.765 1118.11H624.08C624.028 1117.79 623.975 1117.47 623.975 1117.11C623.818 1114.79 624.553 1112.84 625.55 1112.79C626.337 1112.74 626.967 1113.9 627.072 1114.26C627.387 1114.95 627.597 1115.84 627.649 1116.84C627.702 1117.74 627.597 1118.58 627.439 1119.32C627.544 1119.42 627.597 1119.53 627.702 1119.58C628.699 1120.84 628.857 1122.52 628.804 1123.79C629.172 1123.73 629.592 1123.73 630.011 1123.68C630.116 1123.68 630.221 1123.68 630.326 1123.63H630.536C631.009 1123.58 631.533 1123.52 632.059 1123.52C633.213 1123.42 634.368 1123.37 635.575 1123.31C634.893 1122.95 634.473 1122.74 634.473 1122.74ZM645.443 1155.14C643.554 1156.83 641.559 1158.2 639.564 1159.3C638.567 1159.83 637.57 1160.3 636.625 1160.72C634.473 1161.67 632.426 1162.3 630.589 1162.77C626.547 1163.77 623.765 1163.77 623.765 1163.77C625.97 1164.98 628.752 1164.98 630.641 1164.82C631.954 1164.72 632.846 1164.46 632.846 1164.46C632.793 1165.25 632.688 1165.98 632.583 1166.72C632.426 1167.51 632.216 1168.19 631.954 1168.82V1168.88C631.638 1169.66 631.219 1170.35 630.799 1170.98C630.746 1171.03 630.694 1171.14 630.641 1171.19L630.799 1171.09C631.481 1170.72 632.164 1170.3 632.846 1169.88C633.371 1169.56 633.896 1169.19 634.368 1168.88C635.233 1168.28 636.073 1167.65 636.887 1166.98C636.94 1166.93 636.992 1166.88 637.045 1166.88C637.832 1166.19 638.62 1165.46 639.302 1164.72C640.247 1163.72 641.087 1162.72 641.822 1161.72L641.874 1161.67C642.084 1161.4 642.241 1161.19 642.399 1160.93L642.451 1160.88C642.504 1160.77 642.556 1160.72 642.609 1160.62C642.871 1160.25 643.081 1159.93 643.344 1159.56C643.396 1159.46 643.449 1159.41 643.501 1159.3C643.606 1159.09 643.711 1158.93 643.869 1158.72C643.974 1158.56 644.026 1158.46 644.131 1158.3C644.236 1158.14 644.341 1157.98 644.394 1157.83C644.551 1157.56 644.708 1157.25 644.866 1156.99L645.023 1156.67L645.338 1156.04L645.496 1155.72L645.548 1155.62C645.653 1155.35 645.811 1155.09 645.916 1154.83C645.706 1154.88 645.601 1154.99 645.443 1155.14ZM597.573 1133.94C597.048 1134.1 596.418 1134.36 595.788 1134.63C594.109 1135.31 592.219 1136.31 590.539 1137.68C590.329 1137.83 590.119 1138.04 589.909 1138.2C589.551 1138.51 589.218 1138.84 588.912 1139.2L588.807 1139.31L588.65 1139.47C588.545 1139.62 588.387 1139.73 588.282 1139.89L588.125 1140.04C587.967 1140.25 587.81 1140.47 587.705 1140.68C587.547 1140.89 587.443 1141.1 587.285 1141.31C586.288 1143.04 585.71 1145.15 585.868 1147.67V1147.57C585.868 1147.52 585.868 1147.46 585.92 1147.41V1147.36C585.92 1147.3 585.973 1147.25 585.973 1147.15V1147.09C585.973 1147.04 586.025 1146.94 586.025 1146.83C586.025 1146.73 586.078 1146.67 586.13 1146.57V1146.52C586.183 1146.41 586.183 1146.3 586.235 1146.2V1146.15C586.288 1146.04 586.288 1145.94 586.34 1145.83V1145.78C586.393 1145.67 586.445 1145.57 586.498 1145.41L586.55 1145.36C586.603 1145.25 586.655 1145.1 586.76 1144.99C586.865 1144.78 586.97 1144.62 587.075 1144.41C587.128 1144.36 587.18 1144.25 587.233 1144.2L587.285 1144.15L587.6 1143.67C587.705 1143.57 587.81 1143.41 587.915 1143.31L588.02 1143.2C588.125 1143.1 588.177 1142.99 588.282 1142.94L588.387 1142.83C588.492 1142.73 588.65 1142.62 588.755 1142.46C588.755 1142.46 586.498 1147.62 587.495 1151.67V1150.88C587.495 1150.78 587.495 1150.67 587.547 1150.57C587.547 1150.46 587.547 1150.36 587.6 1150.25V1150.2C587.6 1150.09 587.652 1149.94 587.652 1149.83V1149.72C587.705 1149.57 587.705 1149.46 587.757 1149.3V1149.25C587.81 1149.09 587.862 1148.94 587.862 1148.83C587.862 1148.78 587.915 1148.73 587.915 1148.67L587.967 1148.57C588.02 1148.46 588.072 1148.3 588.125 1148.2C588.177 1148.04 588.282 1147.88 588.387 1147.73C588.387 1147.67 588.44 1147.62 588.44 1147.62L588.755 1147.15C588.755 1147.15 588.65 1148.41 588.65 1149.94C588.65 1150.2 588.65 1150.41 588.702 1150.67C588.702 1150.83 588.702 1150.99 588.755 1151.15C588.86 1149.51 589.175 1147.99 589.595 1146.57C589.7 1146.2 589.857 1145.78 589.962 1145.41C589.962 1145.36 590.015 1145.31 590.015 1145.25C590.172 1144.88 590.277 1144.57 590.434 1144.2C590.487 1144.15 590.487 1144.1 590.539 1143.99C590.697 1143.67 590.854 1143.31 591.012 1142.99C591.064 1142.94 591.064 1142.89 591.064 1142.83C591.432 1142.15 591.799 1141.52 592.167 1140.94C592.219 1140.89 592.219 1140.83 592.272 1140.78C592.429 1140.57 592.587 1140.36 592.744 1140.1C592.796 1140.04 592.796 1139.99 592.849 1139.94C592.901 1139.89 592.901 1139.83 592.954 1139.78C593.164 1139.52 593.321 1139.25 593.531 1138.99C593.584 1138.94 593.584 1138.89 593.636 1138.89C593.846 1138.62 594.056 1138.36 594.266 1138.15C594.529 1137.83 594.791 1137.57 595.053 1137.26C595.263 1137.05 595.421 1136.83 595.631 1136.68L595.841 1136.47C596.261 1136.05 596.681 1135.62 597.1 1135.26C598.255 1134.2 599.2 1133.52 599.515 1133.31C599.305 1133.36 599.095 1133.42 598.833 1133.47C598.518 1133.63 598.098 1133.78 597.573 1133.94Z" fill="#F2D2AC"/>
<path d="M627.807 1122.52C627.807 1122.52 627.807 1122.42 627.755 1122.21C627.545 1121.47 626.81 1119.68 623.923 1119.94C620.879 1120.26 619.829 1122.73 619.567 1123.57C619.514 1123.73 619.514 1123.84 619.514 1123.84L619.619 1123.89C619.986 1123.57 620.721 1123.57 621.404 1124.05C621.719 1124.26 621.929 1124.47 622.139 1124.73C622.401 1125.15 622.453 1125.57 622.296 1125.89L622.139 1126.05C622.139 1126.05 622.244 1126.1 622.453 1126.15C623.293 1126.42 625.655 1126.89 626.915 1125.26C626.968 1125.15 627.02 1125.1 627.073 1124.99C626.81 1124.89 626.705 1124.52 626.705 1124.05C626.705 1123.84 626.758 1123.63 626.81 1123.36C626.968 1122.73 627.44 1122.36 627.807 1122.52ZM612.638 1145.04C610.643 1145.46 608.911 1145.78 607.599 1145.99C607.652 1145.99 607.756 1145.99 607.809 1146.04C610.066 1146.3 613.635 1146.67 617.939 1146.41C625.813 1145.93 636.153 1143.46 645.549 1134.94V1134.89C645.601 1134.15 645.496 1132.89 644.604 1131.89C644.446 1131.73 644.289 1131.57 644.079 1131.41C644.027 1131.41 644.027 1131.36 643.974 1131.36C643.712 1131.2 643.502 1131.1 643.292 1130.94L642.819 1130.62V1130.57C642.242 1131.41 641.56 1132.2 640.825 1132.94C640.562 1133.2 640.3 1133.47 639.985 1133.73C637.413 1136.04 634.054 1138.04 630.432 1139.62C624.448 1142.25 617.729 1143.99 612.638 1145.04ZM562.878 1131.31C562.773 1131.36 562.721 1131.47 562.616 1131.52L562.511 1131.62C562.406 1131.73 562.301 1131.83 562.248 1131.94L562.196 1131.99L561.881 1132.47L561.828 1132.52C561.828 1132.57 561.776 1132.57 561.776 1132.62L561.618 1132.94V1133.04C561.566 1133.2 561.461 1133.36 561.408 1133.52C561.251 1133.94 561.093 1134.36 560.988 1134.73C560.936 1134.83 560.936 1134.99 560.884 1135.04C560.831 1135.25 560.779 1135.46 560.779 1135.52V1135.57V1135.52C560.779 1135.36 560.779 1135.25 560.831 1135.1C560.831 1134.83 560.884 1134.52 560.884 1134.25C560.884 1134.04 560.936 1133.78 560.989 1133.57C560.989 1133.52 560.989 1133.41 561.041 1133.36C561.041 1133.25 561.093 1133.15 561.093 1133.04C561.093 1132.94 561.146 1132.83 561.146 1132.73V1132.57C561.146 1132.47 561.198 1132.31 561.198 1132.2V1131.83C561.198 1131.78 561.198 1131.73 561.251 1131.68C561.303 1131.52 561.356 1131.31 561.356 1131.15V1131.1C561.408 1130.99 561.408 1130.83 561.461 1130.73V1130.68C561.513 1130.41 561.618 1130.15 561.671 1129.89V1129.78C561.671 1129.73 561.671 1129.68 561.723 1129.62C561.828 1129.2 561.986 1128.78 562.091 1128.41V1128.36C562.196 1128.05 562.353 1127.68 562.458 1127.36V1127.31C562.511 1127.15 562.563 1127.05 562.616 1126.89C562.721 1126.68 562.773 1126.47 562.878 1126.26C562.878 1126.2 562.931 1126.1 563.036 1125.89C563.088 1125.84 563.088 1125.73 563.141 1125.68C563.193 1125.57 563.246 1125.47 563.298 1125.31L563.351 1125.21C563.298 1125.15 563.193 1125.15 563.141 1125.1H563.088L562.983 1125.05C562.511 1124.84 561.986 1124.63 561.461 1124.47H561.356C560.989 1124.36 560.674 1124.31 560.306 1124.26C560.096 1124.26 559.886 1124.21 559.676 1124.21H559.151C558.889 1124.21 558.626 1124.26 558.364 1124.26C558.259 1124.26 558.207 1124.26 558.102 1124.31C557.997 1124.31 557.839 1124.36 557.734 1124.36C557.682 1124.36 557.629 1124.36 557.577 1124.42C557.472 1124.42 557.419 1124.47 557.314 1124.47C557.157 1124.52 556.947 1124.57 556.789 1124.63C556.737 1124.63 556.632 1124.68 556.579 1124.68C556.369 1124.78 556.107 1124.84 555.897 1124.94C555.792 1124.99 555.74 1125.05 555.635 1125.05L555.32 1125.21L555.215 1125.26C555.11 1125.31 555.005 1125.36 554.9 1125.47C554.795 1125.52 554.69 1125.57 554.585 1125.68C554.48 1125.73 554.375 1125.84 554.27 1125.89C554.217 1125.94 554.112 1125.99 554.06 1126.05C553.902 1126.2 553.692 1126.36 553.535 1126.52L553.273 1126.78C553.115 1126.94 553.01 1127.1 552.853 1127.26L552.8 1127.31C552.748 1127.41 552.643 1127.47 552.59 1127.57L552.433 1127.73C552.17 1128.1 551.908 1128.52 551.698 1128.94C551.645 1128.99 551.645 1129.05 551.593 1129.1C551.488 1129.31 551.435 1129.52 551.33 1129.73C551.278 1129.84 551.278 1129.89 551.225 1129.99C551.225 1130.05 551.278 1130.1 551.278 1130.15C551.33 1130.36 551.383 1130.52 551.435 1130.73V1130.83C551.488 1130.99 551.593 1131.2 551.645 1131.36C551.855 1131.89 552.065 1132.36 552.328 1132.78C552.38 1132.83 552.38 1132.89 552.433 1132.94V1132.99L552.485 1133.04C552.643 1133.36 552.8 1133.62 552.958 1133.83C553.22 1134.2 553.43 1134.46 553.588 1134.68L553.692 1134.78C553.692 1134.83 553.745 1134.83 553.745 1134.83L553.85 1134.94C553.85 1134.83 553.797 1134.73 553.797 1134.68C553.64 1133.99 553.587 1133.36 553.587 1132.68V1132.57C553.587 1132.15 553.587 1131.73 553.64 1131.36L553.797 1131.83C553.85 1132.04 553.955 1132.26 554.007 1132.47V1132.57C554.322 1133.47 554.69 1134.2 555.057 1134.78C555.477 1135.52 555.845 1135.99 556.107 1136.31C556.159 1136.36 556.212 1136.41 556.212 1136.46L556.317 1136.57C556.159 1135.83 556.054 1135.15 556.054 1134.46V1133.78C556.054 1133.47 556.054 1133.2 556.107 1132.94C556.212 1133.41 556.369 1133.89 556.527 1134.31V1134.36C557.104 1135.89 557.787 1136.99 558.259 1137.67L558.312 1137.73C558.417 1137.83 558.469 1137.94 558.522 1138.04C558.574 1138.1 558.626 1138.15 558.626 1138.2L558.731 1138.31L558.784 1138.36V1138.25C558.784 1138.15 558.731 1138.04 558.731 1137.94C558.679 1137.57 558.626 1137.2 558.574 1136.89C558.574 1136.67 558.521 1136.41 558.521 1136.2V1135.04C558.521 1134.78 558.574 1134.46 558.574 1134.2C558.626 1134.36 558.679 1134.57 558.731 1134.73C558.784 1134.83 558.836 1134.99 558.889 1135.1V1135.15L558.941 1135.2C558.994 1135.36 559.046 1135.52 559.099 1135.62C559.204 1135.89 559.309 1136.15 559.466 1136.36C559.624 1136.67 559.729 1136.94 559.886 1137.15C559.991 1137.31 560.044 1137.41 560.096 1137.52C560.201 1137.67 560.306 1137.83 560.359 1137.94C560.464 1138.04 560.516 1138.15 560.569 1138.25L560.621 1138.31C560.674 1138.41 560.779 1138.46 560.831 1138.57C560.884 1138.62 560.936 1138.67 560.936 1138.73C561.041 1138.83 561.093 1138.94 561.146 1138.94L561.198 1138.99V1138.83C561.251 1138.41 561.303 1137.94 561.356 1137.52V1137.36C561.408 1136.83 561.513 1136.36 561.618 1135.89C561.618 1135.83 561.618 1135.78 561.671 1135.67V1135.62C561.671 1135.57 561.671 1135.52 561.723 1135.46C561.723 1135.36 561.776 1135.31 561.776 1135.2C561.828 1134.83 561.933 1134.46 561.986 1134.1C562.038 1133.78 562.091 1133.47 562.143 1133.2V1133.1C562.143 1133.04 562.143 1132.99 562.196 1132.99V1132.89C562.196 1132.83 562.248 1132.73 562.248 1132.68C562.248 1132.62 562.248 1132.57 562.301 1132.52C562.301 1132.41 562.353 1132.31 562.353 1132.26C562.353 1132.2 562.406 1132.1 562.406 1132.04C562.406 1131.94 562.458 1131.83 562.458 1131.78C562.458 1131.73 562.458 1131.68 562.511 1131.62C562.511 1131.57 562.511 1131.52 562.563 1131.52C562.563 1131.41 562.616 1131.36 562.616 1131.31V1131.15L562.878 1131.31ZM626.495 1153.3C627.23 1153.04 627.86 1152.83 628.385 1152.62C629.382 1152.2 629.907 1151.88 629.907 1151.77C629.854 1151.67 629.277 1151.72 628.227 1151.98C627.702 1152.09 627.073 1152.2 626.285 1152.41C625.918 1152.51 625.498 1152.56 625.078 1152.62C624.658 1152.67 624.186 1152.77 623.713 1152.83C622.768 1152.98 621.719 1153.09 620.564 1153.19L618.832 1153.35C618.254 1153.41 617.624 1153.41 616.995 1153.46C614.475 1153.51 611.693 1153.41 608.859 1152.88C607.389 1152.62 605.342 1151.93 603.925 1151.14L603.872 1151.09C604.712 1148.09 607.861 1147.67 607.861 1147.67L607.756 1147.62H607.599C607.127 1147.57 606.759 1147.51 606.392 1147.46C606.129 1147.41 605.919 1147.41 605.762 1147.35C605.604 1147.35 605.447 1147.3 605.394 1147.3C603.505 1147.2 602.455 1148.78 602.14 1149.46L601.983 1149.78C601.72 1150.41 601.51 1151.09 601.458 1151.88C601.353 1153.3 601.72 1154.83 602.822 1156.14C603.557 1157.04 604.817 1157.82 606.444 1158.46C605.027 1157.56 603.767 1155.83 603.715 1153.14C605.342 1153.83 607.179 1154.25 608.596 1154.51C611.588 1155.09 614.528 1155.14 617.1 1154.98C617.729 1154.93 618.412 1154.88 618.989 1154.83C619.619 1154.72 620.196 1154.67 620.774 1154.62C621.929 1154.4 622.926 1154.25 623.923 1154.04C624.396 1153.93 624.868 1153.83 625.288 1153.67C625.76 1153.56 626.128 1153.46 626.495 1153.3Z" fill="#F2D2AC"/>
<path d="M624.024 1118.07C625.601 1118.13 626.653 1118.6 627.39 1119.33C627.575 1118.53 627.646 1117.69 627.6 1116.86C627.547 1115.87 627.337 1114.97 627.021 1114.29C626.916 1113.87 626.285 1112.76 625.496 1112.82C624.497 1112.87 623.761 1114.81 623.918 1117.13C623.918 1117.44 623.971 1117.76 624.024 1118.07ZM626.653 1124.01C626.653 1124.43 626.811 1124.8 627.021 1124.96C627.39 1125.17 627.863 1124.75 628.073 1124.07C628.073 1124.01 628.126 1123.96 628.126 1123.91C628.284 1123.28 628.126 1122.65 627.758 1122.49C627.39 1122.28 626.916 1122.7 626.706 1123.38C626.706 1123.59 626.653 1123.8 626.653 1124.01ZM619.501 1125.17C619.658 1125.43 619.921 1125.7 620.237 1125.91C620.921 1126.33 621.657 1126.38 622.078 1126.01L622.235 1125.85C622.393 1125.54 622.341 1125.12 622.078 1124.7C621.92 1124.43 621.657 1124.17 621.341 1124.01C620.658 1123.59 619.921 1123.54 619.553 1123.86C619.501 1123.91 619.448 1123.96 619.395 1124.07C619.238 1124.33 619.29 1124.75 619.501 1125.17ZM644.798 1149.35C643.755 1150.34 642.629 1151.24 641.432 1152.03C636.015 1155.71 628.442 1158.6 623.077 1159.29C619.027 1159.92 615.083 1160.02 611.664 1159.6C609.666 1159.34 607.93 1158.92 606.405 1158.34C604.774 1157.71 603.512 1156.92 602.776 1156.03C601.671 1154.71 601.356 1153.14 601.408 1151.77C601.461 1151.03 601.619 1150.3 601.934 1149.67L602.092 1149.35C602.46 1148.67 603.46 1147.04 605.353 1147.2C605.406 1147.2 605.563 1147.2 605.721 1147.25C605.879 1147.25 606.142 1147.3 606.352 1147.35C606.72 1147.41 607.089 1147.46 607.562 1147.51H607.72C612.926 1148.14 617.923 1148.09 622.656 1147.35C629.546 1146.3 635.91 1143.83 641.59 1139.99C641.905 1139.78 642.168 1139.57 642.484 1139.36L645.587 1134.74C636.173 1143.31 625.812 1145.78 617.923 1146.25C613.61 1146.51 610.034 1146.2 607.772 1145.88C607.667 1145.88 607.614 1145.88 607.562 1145.83C606.878 1145.72 606.352 1145.67 605.931 1145.62C605.721 1145.62 605.563 1145.57 605.458 1145.57C604.88 1145.51 604.301 1145.62 603.775 1145.78C602.723 1146.09 601.777 1146.83 601.093 1147.77C600.251 1148.93 599.725 1150.51 599.725 1152.09C599.726 1153.46 600.069 1154.82 600.725 1156.03C600.777 1156.08 600.777 1156.13 600.83 1156.19C600.935 1156.34 600.988 1156.45 601.093 1156.61C601.198 1156.76 601.356 1156.97 601.514 1157.13C603.144 1159.18 606.72 1160.65 611.454 1161.29C614.662 1161.71 618.396 1161.65 622.446 1161.07C634.437 1158.92 640.117 1155.03 642.747 1152.35C642.957 1152.14 643.115 1151.98 643.273 1151.77C644.219 1150.67 644.64 1149.82 644.798 1149.51V1149.46C644.851 1149.35 644.851 1149.3 644.851 1149.3L644.798 1149.35Z" fill="#664F44"/>
<path d="M606.617 1107.83C606.25 1107.62 605.831 1107.46 605.411 1107.35C605.133 1107.3 604.853 1107.24 604.572 1107.2C604.467 1107.2 604.362 1107.2 604.258 1107.14C602.842 1107.04 601.635 1107.25 601.635 1107.25C601.373 1107.3 601.111 1107.35 600.901 1107.46C599.013 1108.04 597.702 1109.04 596.758 1110.2C596.024 1111.14 595.5 1112.14 595.237 1113.14C595.185 1113.25 595.185 1113.3 595.185 1113.41C595.133 1113.67 595.028 1113.93 594.975 1114.14C594.818 1114.99 594.713 1115.72 594.713 1116.35C594.713 1117.2 594.766 1117.72 594.766 1117.72C595.08 1116.99 595.447 1116.35 595.814 1115.72C596.706 1114.2 597.65 1112.93 598.646 1111.93C600.534 1109.99 602.475 1108.93 603.943 1108.41C605.516 1107.88 606.617 1107.83 606.617 1107.83ZM629.325 1105.14L629.273 1105.04C629.063 1104.77 628.801 1104.51 628.486 1104.3C627.752 1103.83 626.755 1103.56 625.392 1103.83C625.392 1103.83 623.766 1104.2 622.822 1105.3C622.822 1105.3 625.654 1104.09 628.696 1106.25C628.958 1106.46 629.273 1106.67 629.535 1106.93C629.797 1107.2 630.112 1107.46 630.374 1107.83C630.374 1107.83 630.269 1106.51 629.482 1105.35C629.43 1105.25 629.377 1105.2 629.325 1105.14Z" fill="#E9B784"/>
<path d="M607.06 1126.16C608.14 1125.84 609.271 1125.53 610.557 1125.21C610.763 1124.21 610.814 1123 610.66 1121.68C610.3 1118.62 608.963 1116.25 607.626 1116.41C606.288 1116.57 605.517 1119.2 605.877 1122.26C606.083 1123.84 606.494 1125.21 607.06 1126.16Z" fill="#664F44"/>
<path d="M600.98 1057.37L598.14 1057.99L598.718 1063.1L591.197 1059.3L588.094 1060.23L588.147 1060.29L597.298 1070.6L597.403 1070.55L597.509 1070.49C597.771 1070.34 598.087 1070.13 598.35 1069.97C598.455 1069.92 598.56 1069.87 598.666 1069.76C599.086 1069.5 599.507 1069.24 599.928 1069.04L596.036 1064.61L602.294 1067.63C602.505 1067.52 602.663 1067.42 602.873 1067.32L602.294 1062.89L605.134 1066.17H605.187C605.45 1066.07 605.66 1065.91 605.923 1065.81L606.029 1065.75L606.134 1065.7C606.186 1065.7 606.239 1065.65 606.239 1065.65L606.555 1065.49C606.555 1065.49 606.607 1065.49 606.607 1065.44C606.923 1065.29 607.291 1065.13 607.606 1064.97L600.98 1057.37Z" fill="#FFD250"/>
<path d="M598.042 1058.14V1057.98V1058.14ZM598.042 1057.98L598.46 1057.88C597.78 1057.56 596.942 1057.35 595.999 1057.2C594.113 1056.93 591.704 1057.2 588.981 1057.88C586.258 1058.56 583.167 1059.76 579.921 1061.39C573.374 1064.64 566.146 1069.61 559.128 1076.01C556.667 1078.21 554.415 1080.51 552.32 1082.77L560.804 1093.25C563.109 1090.73 565.57 1088.22 568.294 1085.75C571.907 1082.45 575.573 1079.52 579.187 1077C582.696 1074.54 586.205 1072.44 589.505 1070.77L588.038 1064.06L588.091 1060.29L588.038 1060.24L591.128 1059.29L597.151 1062.38L596.994 1060.29L598.041 1057.98" fill="#4D9ED7"/>
<path d="M598.048 1058.08L596.984 1060.4L597.144 1062.55L598.633 1063.28L598.048 1058.08ZM595.867 1064.76L602.25 1067.85L599.803 1069.22L595.867 1064.76ZM602.25 1063.02L602.835 1067.49L605.122 1066.33L602.25 1063.02Z" fill="#132134"/>
<path d="M625.858 1061.41H627.013C628.063 1061.41 629.061 1061.56 630.006 1061.77C630.058 1061.77 630.111 1061.77 630.163 1061.83H630.216L630.321 1061.88H630.426C630.321 1061.83 630.216 1061.72 630.111 1061.67C629.061 1061.25 627.958 1060.99 626.803 1060.83C621.133 1060.09 614.623 1062.19 610.948 1063.66C610.738 1063.77 610.528 1063.82 610.318 1063.93C610.003 1064.08 609.688 1064.19 609.373 1064.35C608.848 1064.56 608.323 1064.82 607.746 1065.08C607.641 1065.14 607.588 1065.14 607.483 1065.19C607.168 1065.35 606.801 1065.5 606.486 1065.66C606.486 1065.66 606.433 1065.66 606.433 1065.71L606.118 1065.87C606.066 1065.87 606.013 1065.92 606.013 1065.92H605.803L605.751 1065.98C605.488 1066.08 605.278 1066.19 605.016 1066.34H604.963C604.911 1066.4 604.858 1066.4 604.806 1066.45H604.753C604.701 1066.45 604.648 1066.5 604.648 1066.5C604.28 1066.71 603.913 1066.87 603.545 1067.08C603.283 1067.24 603.02 1067.34 602.758 1067.5H602.705C602.495 1067.6 602.338 1067.71 602.128 1067.81C601.498 1068.13 600.92 1068.5 600.29 1068.86C600.238 1068.92 600.185 1068.92 600.08 1068.97C600.028 1069.02 599.975 1069.02 599.923 1069.08C599.87 1069.13 599.818 1069.13 599.765 1069.18L599.713 1069.23C599.293 1069.5 598.873 1069.71 598.453 1069.97C598.348 1070.02 598.243 1070.07 598.138 1070.18C597.875 1070.34 597.56 1070.55 597.298 1070.7L597.193 1070.76L597.088 1070.81L594.725 1072.38C593.413 1073.28 592.153 1074.17 590.893 1075.12C590.735 1075.22 590.578 1075.38 590.42 1075.48C587.113 1077.95 583.963 1080.63 580.918 1083.36C577.715 1086.31 574.617 1089.3 571.73 1092.35C570.155 1093.92 568.79 1095.34 567.74 1096.5C565.535 1098.86 564.327 1100.33 564.38 1100.39C564.38 1100.39 564.59 1100.23 564.957 1099.86C564.695 1100.17 564.38 1100.54 564.117 1100.86C568.948 1095.71 574.25 1090.46 579.973 1085.52C583.438 1082.52 587.06 1079.63 590.788 1076.96C592.415 1075.8 594.095 1074.64 595.775 1073.54C596.3 1073.17 596.878 1072.86 597.403 1072.49C597.665 1072.33 597.928 1072.17 598.243 1072.02C598.4 1071.91 598.558 1071.81 598.715 1071.75C599.03 1071.6 599.293 1071.39 599.608 1071.23C599.87 1071.07 600.185 1070.91 600.448 1070.7C600.605 1070.6 600.763 1070.55 600.92 1070.44L602.023 1069.81C602.233 1069.71 602.443 1069.55 602.653 1069.44C603.335 1069.08 604.018 1068.71 604.753 1068.34C604.806 1068.29 604.858 1068.29 604.911 1068.23L605.226 1068.08C605.383 1068.02 605.488 1067.92 605.646 1067.87C605.698 1067.81 605.751 1067.81 605.803 1067.76L606.118 1067.6C606.118 1067.6 606.171 1067.6 606.171 1067.55H606.223C606.538 1067.39 606.853 1067.24 607.116 1067.13C607.168 1067.13 607.221 1067.08 607.273 1067.03L607.588 1066.87C607.956 1066.71 608.271 1066.55 608.638 1066.4C608.743 1066.34 608.848 1066.29 608.901 1066.24C608.953 1066.24 609.006 1066.19 609.058 1066.19C609.163 1066.13 609.268 1066.08 609.373 1066.08C609.793 1065.92 610.161 1065.71 610.581 1065.56C610.948 1065.4 611.263 1065.24 611.631 1065.08C613.626 1064.24 615.463 1063.56 617.196 1062.98C620.451 1062.09 623.338 1061.51 625.858 1061.41Z" fill="white"/>
</g>
<g filter="url(#filter4_d)">
<path d="M134.426 1008.74C196.052 1008.74 246.01 958.78 246.01 897.158C246.01 835.532 196.052 785.574 134.426 785.574C72.7998 785.574 22.8418 835.532 22.8418 897.158C22.8418 958.78 72.7998 1008.74 134.426 1008.74Z" fill="#F8F8F8"/>
<path d="M134.425 1005.74C194.395 1005.74 243.01 957.13 243.01 897.158C243.01 837.188 194.395 788.572 134.425 788.572C74.4548 788.572 25.8398 837.188 25.8398 897.158C25.8398 957.13 74.4548 1005.74 134.425 1005.74Z" stroke="white" stroke-width="1.66841"/>
<path d="M196.882 913.664L142.792 967.76C137.857 972.69 129.853 972.69 124.918 967.76C119.978 962.82 119.984 954.82 124.918 949.88L179.014 895.785C183.948 890.85 191.953 890.85 196.887 895.785C201.822 900.725 201.822 908.724 196.882 913.664Z" fill="#FBBC04"/>
<path d="M142.786 967.77C147.721 962.83 147.721 954.83 142.786 949.9C137.85 944.963 129.849 944.963 124.914 949.9C119.979 954.83 119.979 962.83 124.914 967.77C129.849 972.71 137.85 972.71 142.786 967.77Z" fill="#34A853"/>
<path d="M152.395 869.165L125.35 896.206L143.22 914.076L170.265 887.036C175.198 882.102 175.198 874.099 170.265 869.165C165.326 864.226 157.329 864.226 152.395 869.165Z" fill="#FBBC04"/>
<path d="M116.164 941.135L143.207 914.093L125.335 896.221L98.2923 923.264C93.3583 928.198 93.3583 936.201 98.2923 941.135C103.227 946.07 111.23 946.07 116.164 941.135Z" fill="#3B80EF"/>
<path d="M143.255 914.024C148.19 909.089 148.19 901.087 143.255 896.152C138.32 891.217 130.318 891.217 125.383 896.152C120.448 901.087 120.448 909.089 125.383 914.024C130.318 918.959 138.32 918.959 143.255 914.024Z" fill="#34A853"/>
<path d="M143.641 860.413L89.5452 914.509C84.6102 919.443 76.6062 919.443 71.6712 914.509C66.7372 909.574 66.7372 901.57 71.6712 896.635L125.768 842.539C130.702 837.604 138.707 837.604 143.641 842.539C148.576 847.473 148.576 855.478 143.641 860.412V860.413Z" fill="#3B80EF"/>
<path d="M134.691 864.138C141.677 864.138 147.341 858.474 147.341 851.488C147.341 844.501 141.677 838.838 134.691 838.838C127.705 838.838 122.041 844.501 122.041 851.488C122.041 858.474 127.705 864.138 134.691 864.138Z" fill="#34A853"/>
</g>
<g filter="url(#filter5_d)">
<path d="M1061.87 1008.74C1123.49 1008.74 1173.45 958.78 1173.45 897.158C1173.45 835.532 1123.49 785.574 1061.87 785.574C1000.24 785.574 950.279 835.532 950.279 897.158C950.279 958.78 1000.24 1008.74 1061.87 1008.74Z" fill="#F8F8F8"/>
<path d="M1061.87 1005.24C1121.56 1005.24 1169.95 956.85 1169.95 897.155C1169.95 837.462 1121.56 789.07 1061.87 789.07C1002.17 789.07 953.779 837.462 953.779 897.155C953.779 956.85 1002.17 1005.24 1061.87 1005.24Z" stroke="white" stroke-width="1.94648"/>
<path d="M1027.12 848.764L992.439 871.003L1027.12 892.916L1061.8 871.003L1027.12 848.764ZM1096.49 848.764L1061.8 871.003L1096.49 892.916L1131.17 871.003L1096.49 848.764ZM992.439 915.155L1027.12 937.395L1061.8 915.155L1027.12 892.916L992.439 915.155ZM1096.49 892.916L1061.8 915.155L1096.49 937.395L1131.17 915.155L1096.49 892.916ZM1027.12 944.59L1061.8 966.83L1096.49 944.59L1061.8 922.677L1027.12 944.59Z" fill="#0062FF"/>
</g>
<g filter="url(#filter6_d)">
<path d="M123.643 516.263C185.269 516.263 235.227 466.306 235.227 404.68C235.227 343.053 185.269 293.096 123.643 293.096C62.0167 293.096 12.0586 343.053 12.0586 404.68C12.0586 466.306 62.0167 516.263 123.643 516.263Z" fill="#F8F8F8"/>
<path d="M80.8147 461.18L58.0137 421.67L100.695 347.648L123.496 387.158L80.8147 461.18Z" fill="#0DA960"/>
<path d="M80.8145 461.18L103.615 421.67H188.977L166.176 461.18H80.8145Z" fill="url(#paint1_radial)"/>
<path d="M188.976 421.67H143.374L100.693 347.648H146.295L188.976 421.67Z" fill="url(#paint2_radial)"/>
<path d="M123.495 421.67H103.615L113.508 404.414L80.8145 461.18L123.495 421.67Z" fill="#2D6FDD"/>
<path d="M143.375 421.67H188.977L133.482 404.414L143.375 421.67Z" fill="#E5B93C"/>
<path d="M113.507 404.414L123.494 387.158L100.693 347.648L113.507 404.414Z" fill="#0C9B57"/>
<path d="M123.643 511.265C182.508 511.265 230.228 463.545 230.228 404.68C230.228 345.814 182.508 298.094 123.643 298.094C64.7766 298.094 17.0566 345.814 17.0566 404.68C17.0566 463.545 64.7766 511.265 123.643 511.265Z" stroke="white" stroke-width="2.78068"/>
</g>
<g filter="url(#filter7_d)">
<path d="M594.552 232.279C656.178 232.279 706.136 182.321 706.136 120.695C706.136 59.069 656.178 9.11133 594.552 9.11133C532.926 9.11133 482.969 59.069 482.969 120.695C482.969 182.321 532.926 232.279 594.552 232.279Z" fill="#F8F8F8"/>
<path d="M594.552 227.029C653.28 227.029 700.888 179.421 700.888 120.693C700.888 61.966 653.28 14.3574 594.552 14.3574C535.825 14.3574 488.217 61.966 488.217 120.693C488.217 179.421 535.825 227.029 594.552 227.029Z" stroke="white" stroke-width="2.91972"/>
<path d="M578.1 57.1133C571.284 57.1183 565.768 62.6553 565.773 69.4773C565.768 76.2993 571.29 81.8363 578.105 81.8413H590.437V69.4823C590.442 62.6603 584.921 57.1233 578.1 57.1133C578.105 57.1133 578.105 57.1133 578.1 57.1133ZM578.1 90.0903H545.225C538.409 90.0953 532.888 95.6323 532.893 102.454C532.883 109.277 538.404 114.813 545.22 114.823H578.1C584.916 114.818 590.437 109.282 590.432 102.459C590.437 95.6323 584.916 90.0963 578.1 90.0903Z" fill="#36C5F0"/>
<path d="M656.084 102.454C656.088 95.6323 650.567 90.0953 643.75 90.0903C636.934 90.0953 631.412 95.6323 631.417 102.454V114.823H643.75C650.567 114.818 656.088 109.282 656.084 102.454ZM623.2 102.454V69.4773C623.205 62.6603 617.688 57.1233 610.872 57.1133C604.056 57.1183 598.534 62.6553 598.539 69.4773V102.454C598.529 109.277 604.051 114.813 610.867 114.823C617.684 114.818 623.205 109.282 623.2 102.454Z" fill="#2EB67D"/>
<path d="M610.871 180.8C617.687 180.795 623.208 175.259 623.203 168.437C623.208 161.615 617.686 156.079 610.871 156.074H598.539V168.437C598.534 175.254 604.055 180.79 610.871 180.8ZM610.871 147.82H643.751C650.567 147.815 656.088 142.279 656.083 135.458C656.093 128.636 650.572 123.1 643.756 123.09H610.876C604.06 123.095 598.539 128.631 598.544 135.453C598.539 142.279 604.055 147.815 610.871 147.82Z" fill="#ECB22E"/>
<path d="M532.893 135.454C532.888 142.276 538.41 147.813 545.226 147.817C552.042 147.813 557.564 142.276 557.559 135.454V123.09H545.226C538.41 123.095 532.888 128.631 532.893 135.454ZM565.776 135.454V168.431C565.766 175.253 571.288 180.79 578.104 180.8C584.921 180.795 590.442 175.258 590.437 168.436V135.464C590.447 128.641 584.926 123.105 578.109 123.095C571.288 123.095 565.771 128.631 565.776 135.454C565.776 135.459 565.776 135.454 565.776 135.454Z" fill="#E01E5A"/>
</g>
<defs>
<filter id="filter0_d" x="63.9285" y="89.0642" width="1075.04" height="1075.03" filterUnits="userSpaceOnUse" color-interpolation-filters="sRGB">
<feFlood flood-opacity="0" result="BackgroundImageFix"/>
<feColorMatrix in="SourceAlpha" type="matrix" values="0 0 0 0 0 0 0 0 0 0 0 0 0 0 0 0 0 0 127 0"/>
<feOffset dy="2.91892"/>
<feGaussianBlur stdDeviation="4.61975"/>
<feColorMatrix type="matrix" values="0 0 0 0 0.0280315 0 0 0 0 0.273587 0 0 0 0 0.641921 0 0 0 0.12 0"/>
<feBlend mode="normal" in2="BackgroundImageFix" result="effect1_dropShadow"/>
<feBlend mode="normal" in="SourceGraphic" in2="effect1_dropShadow" result="shape"/>
</filter>
<filter id="filter1_d" x="390.946" y="415.499" width="425.179" height="425.179" filterUnits="userSpaceOnUse" color-interpolation-filters="sRGB">
<feFlood flood-opacity="0" result="BackgroundImageFix"/>
<feColorMatrix in="SourceAlpha" type="matrix" values="0 0 0 0 0 0 0 0 0 0 0 0 0 0 0 0 0 0 127 0"/>
<feOffset dy="2.33577"/>
<feGaussianBlur stdDeviation="4.67155"/>
<feColorMatrix type="matrix" values="0 0 0 0 0.0337141 0 0 0 0 0.325004 0 0 0 0 0.593886 0 0 0 0.12 0"/>
<feBlend mode="normal" in2="BackgroundImageFix" result="effect1_dropShadow"/>
<feBlend mode="normal" in="SourceGraphic" in2="effect1_dropShadow" result="shape"/>
</filter>
<filter id="filter2_d" x="940.936" y="286.088" width="241.856" height="241.853" filterUnits="userSpaceOnUse" color-interpolation-filters="sRGB">
<feFlood flood-opacity="0" result="BackgroundImageFix"/>
<feColorMatrix in="SourceAlpha" type="matrix" values="0 0 0 0 0 0 0 0 0 0 0 0 0 0 0 0 0 0 127 0"/>
<feOffset dy="2.33577"/>
<feGaussianBlur stdDeviation="4.67155"/>
<feColorMatrix type="matrix" values="0 0 0 0 0.0337141 0 0 0 0 0.325004 0 0 0 0 0.593886 0 0 0 0.12 0"/>
<feBlend mode="normal" in2="BackgroundImageFix" result="effect1_dropShadow"/>
<feBlend mode="normal" in="SourceGraphic" in2="effect1_dropShadow" result="shape"/>
</filter>
<filter id="filter3_d" x="476.207" y="1003.38" width="236.69" height="236.683" filterUnits="userSpaceOnUse" color-interpolation-filters="sRGB">
<feFlood flood-opacity="0" result="BackgroundImageFix"/>
<feColorMatrix in="SourceAlpha" type="matrix" values="0 0 0 0 0 0 0 0 0 0 0 0 0 0 0 0 0 0 127 0"/>
<feOffset dy="1.69035"/>
<feGaussianBlur stdDeviation="3.38069"/>
<feColorMatrix type="matrix" values="0 0 0 0 0.0352941 0 0 0 0 0.356863 0 0 0 0 0.65098 0 0 0 0.12 0"/>
<feBlend mode="normal" in2="BackgroundImageFix" result="effect1_dropShadow"/>
<feBlend mode="normal" in="SourceGraphic" in2="effect1_dropShadow" result="shape"/>
</filter>
<filter id="filter4_d" x="16.1682" y="780.569" width="236.515" height="236.513" filterUnits="userSpaceOnUse" color-interpolation-filters="sRGB">
<feFlood flood-opacity="0" result="BackgroundImageFix"/>
<feColorMatrix in="SourceAlpha" type="matrix" values="0 0 0 0 0 0 0 0 0 0 0 0 0 0 0 0 0 0 127 0"/>
<feOffset dy="1.66841"/>
<feGaussianBlur stdDeviation="3.33682"/>
<feColorMatrix type="matrix" values="0 0 0 0 0.0352941 0 0 0 0 0.32549 0 0 0 0 0.592157 0 0 0 0.12 0"/>
<feBlend mode="normal" in2="BackgroundImageFix" result="effect1_dropShadow"/>
<feBlend mode="normal" in="SourceGraphic" in2="effect1_dropShadow" result="shape"/>
</filter>
<filter id="filter5_d" x="942.493" y="779.735" width="238.742" height="238.738" filterUnits="userSpaceOnUse" color-interpolation-filters="sRGB">
<feFlood flood-opacity="0" result="BackgroundImageFix"/>
<feColorMatrix in="SourceAlpha" type="matrix" values="0 0 0 0 0 0 0 0 0 0 0 0 0 0 0 0 0 0 127 0"/>
<feOffset dy="1.94648"/>
<feGaussianBlur stdDeviation="3.89296"/>
<feColorMatrix type="matrix" values="0 0 0 0 0.0352941 0 0 0 0 0.32549 0 0 0 0 0.592157 0 0 0 0.12 0"/>
<feBlend mode="normal" in2="BackgroundImageFix" result="effect1_dropShadow"/>
<feBlend mode="normal" in="SourceGraphic" in2="effect1_dropShadow" result="shape"/>
</filter>
<filter id="filter6_d" x="0.935854" y="284.754" width="245.414" height="245.412" filterUnits="userSpaceOnUse" color-interpolation-filters="sRGB">
<feFlood flood-opacity="0" result="BackgroundImageFix"/>
<feColorMatrix in="SourceAlpha" type="matrix" values="0 0 0 0 0 0 0 0 0 0 0 0 0 0 0 0 0 0 127 0"/>
<feOffset dy="2.78068"/>
<feGaussianBlur stdDeviation="5.56137"/>
<feColorMatrix type="matrix" values="0 0 0 0 0.0352941 0 0 0 0 0.32549 0 0 0 0 0.592157 0 0 0 0.12 0"/>
<feBlend mode="normal" in2="BackgroundImageFix" result="effect1_dropShadow"/>
<feBlend mode="normal" in="SourceGraphic" in2="effect1_dropShadow" result="shape"/>
</filter>
<filter id="filter7_d" x="471.29" y="0.352168" width="246.525" height="246.525" filterUnits="userSpaceOnUse" color-interpolation-filters="sRGB">
<feFlood flood-opacity="0" result="BackgroundImageFix"/>
<feColorMatrix in="SourceAlpha" type="matrix" values="0 0 0 0 0 0 0 0 0 0 0 0 0 0 0 0 0 0 127 0"/>
<feOffset dy="2.91972"/>
<feGaussianBlur stdDeviation="5.83944"/>
<feColorMatrix type="matrix" values="0 0 0 0 0.0352941 0 0 0 0 0.32549 0 0 0 0 0.592157 0 0 0 0.12 0"/>
<feBlend mode="normal" in2="BackgroundImageFix" result="effect1_dropShadow"/>
<feBlend mode="normal" in="SourceGraphic" in2="effect1_dropShadow" result="shape"/>
</filter>
<linearGradient id="paint0_linear" x1="1045.51" y1="408.452" x2="1020.09" y2="452.487" gradientUnits="userSpaceOnUse">
<stop stop-color="#0052CC"/>
<stop offset="0.923" stop-color="#2684FF"/>
</linearGradient>
<radialGradient id="paint1_radial" cx="0" cy="0" r="1" gradientUnits="userSpaceOnUse" gradientTransform="translate(109.043 520.383) rotate(57.7002) scale(413.626 157.532)">
<stop stop-color="#4387FD"/>
<stop offset="0.65" stop-color="#3078F0"/>
<stop offset="0.9099" stop-color="#2B72EA"/>
<stop offset="1" stop-color="#286EE6"/>
</radialGradient>
<radialGradient id="paint2_radial" cx="0" cy="0" r="1" gradientUnits="userSpaceOnUse" gradientTransform="translate(174.849 520.4) rotate(34.5733) scale(268.402 242.734)">
<stop stop-color="#FFD24D"/>
<stop offset="1" stop-color="#F6C338"/>
</radialGradient>
</defs>
</svg>
