<svg width="1308" height="748" viewBox="0 0 1308 748" fill="none" xmlns="http://www.w3.org/2000/svg">
<g filter="url(#filter0_d)">
<mask id="mask0" mask-type="alpha" maskUnits="userSpaceOnUse" x="14" y="9" width="1280" height="721">
<path d="M1286.04 9.89062H21.9611C17.5772 9.89062 14.0234 13.4445 14.0234 17.8283V721.926C14.0234 726.31 17.5772 729.864 21.9611 729.864H1286.04C1290.42 729.864 1293.98 726.31 1293.98 721.926V17.8283C1293.98 13.4445 1290.42 9.89062 1286.04 9.89062Z" fill="white"/>
</mask>
<g mask="url(#mask0)">
<g filter="url(#filter1_d)">
<path d="M1286.04 9.89062H21.9611C17.5772 9.89062 14.0234 13.4445 14.0234 17.8283V722.599C14.0234 726.983 17.5772 730.536 21.9611 730.536H1286.04C1290.42 730.536 1293.98 726.983 1293.98 722.599V17.8283C1293.98 13.4445 1290.42 9.89062 1286.04 9.89062Z" fill="#2D3748"/>
</g>
<path d="M388.496 50.2246H338.685C337.589 50.2246 336.701 51.1131 336.701 52.209V56.3071C336.701 57.4031 337.589 58.2915 338.685 58.2915H388.496C389.592 58.2915 390.48 57.4031 390.48 56.3071V52.209C390.48 51.1131 389.592 50.2246 388.496 50.2246Z" fill="#1976D2"/>
<path d="M482.61 50.2246H422.044C420.948 50.2246 420.059 51.1131 420.059 52.209V56.3071C420.059 57.4031 420.948 58.2915 422.044 58.2915H482.61C483.706 58.2915 484.595 57.4031 484.595 56.3071V52.209C484.595 51.1131 483.706 50.2246 482.61 50.2246Z" fill="#A9A9B9"/>
<path d="M552.523 50.2246H518.846C517.75 50.2246 516.861 51.1131 516.861 52.209V56.3071C516.861 57.4031 517.75 58.2915 518.846 58.2915H552.523C553.619 58.2915 554.507 57.4031 554.507 56.3071V52.209C554.507 51.1131 553.619 50.2246 552.523 50.2246Z" fill="#A9A9B9"/>
<path d="M649.326 50.2246H588.759C587.663 50.2246 586.775 51.1131 586.775 52.209V56.3071C586.775 57.4031 587.663 58.2915 588.759 58.2915H649.326C650.422 58.2915 651.31 57.4031 651.31 56.3071V52.209C651.31 51.1131 650.422 50.2246 649.326 50.2246Z" fill="#A9A9B9"/>
<path d="M746.129 50.2246H685.562C684.466 50.2246 683.578 51.1131 683.578 52.209V56.3071C683.578 57.4031 684.466 58.2915 685.562 58.2915H746.129C747.225 58.2915 748.113 57.4031 748.113 56.3071V52.209C748.113 51.1131 747.225 50.2246 746.129 50.2246Z" fill="#A9A9B9"/>
<path d="M821.42 50.2246H782.365C781.269 50.2246 780.381 51.1131 780.381 52.209V56.3071C780.381 57.4031 781.269 58.2915 782.365 58.2915H821.42C822.516 58.2915 823.405 57.4031 823.405 56.3071V52.209C823.405 51.1131 822.516 50.2246 821.42 50.2246Z" fill="#A9A9B9"/>
<path d="M896.711 50.2246H857.657C856.561 50.2246 855.672 51.1131 855.672 52.209V56.3071C855.672 57.4031 856.561 58.2915 857.657 58.2915H896.711C897.807 58.2915 898.696 57.4031 898.696 56.3071V52.209C898.696 51.1131 897.807 50.2246 896.711 50.2246Z" fill="#A9A9B9"/>
<path d="M266.787 10.5684H269.476V731.214H266.787V10.5684Z" fill="#F1F1F4"/>
<path d="M268.03 9.89062H14.0234V107.127H268.03V9.89062Z" fill="#262636"/>
<g filter="url(#filter2_d)">
<path d="M1245.7 50.2246H992.68C988.3 50.2246 984.74 53.7784 984.74 58.1623V354.208C984.74 358.592 988.3 362.146 992.68 362.146H1245.7C1250.09 362.146 1253.64 358.592 1253.64 354.208V58.1623C1253.64 53.7784 1250.09 50.2246 1245.7 50.2246Z" fill="#2D3748"/>
</g>
<g filter="url(#filter3_d)">
<path d="M1245.7 389.037H992.68C988.3 389.037 984.74 392.591 984.74 396.975V682.265C984.74 686.649 988.3 690.202 992.68 690.202H1245.7C1250.09 690.202 1253.64 686.649 1253.64 682.265V396.975C1253.64 392.591 1250.09 389.037 1245.7 389.037Z" fill="#2D3748"/>
</g>
<path d="M1230.47 412.848H1002.27C1001.17 412.848 1000.28 413.736 1000.28 414.832V438.645C1000.28 439.741 1001.17 440.63 1002.27 440.63H1230.47C1231.57 440.63 1232.46 439.741 1232.46 438.645V414.832C1232.46 413.736 1231.57 412.848 1230.47 412.848Z" fill="#69698A"/>
<path d="M1228.49 460.473H1004.25C1002.06 460.473 1000.28 462.25 1000.28 464.441V565.647C1000.28 567.839 1002.06 569.616 1004.25 569.616H1228.49C1230.68 569.616 1232.46 567.839 1232.46 565.647V464.441C1232.46 462.25 1230.68 460.473 1228.49 460.473Z" fill="#658B9C"/>
<path d="M1000.88 583.922C1000.88 581.731 1002.66 579.953 1004.85 579.953H1228.16C1230.35 579.953 1232.13 581.731 1232.13 583.922V690.201H1000.88V583.922Z" fill="#517764"/>
<path d="M184.266 146.816H89.8483C88.5223 146.816 87.4473 147.892 87.4473 149.218V164.259C87.4473 165.586 88.5223 166.661 89.8483 166.661H184.266C185.593 166.661 186.668 165.586 186.668 164.259V149.218C186.668 147.892 185.593 146.816 184.266 146.816Z" fill="#C3C3D8"/>
<path d="M225.939 182.533H89.8483C88.5223 182.533 87.4473 183.608 87.4473 184.935V199.976C87.4473 201.302 88.5223 202.377 89.8483 202.377H225.939C227.266 202.377 228.341 201.302 228.341 199.976V184.935C228.341 183.608 227.266 182.533 225.939 182.533Z" fill="#C3C3D8"/>
<path d="M214.033 218.254H89.8483C88.5223 218.254 87.4473 219.329 87.4473 220.655V235.697C87.4473 237.023 88.5223 238.098 89.8483 238.098H214.033C215.359 238.098 216.434 237.023 216.434 235.697V220.655C216.434 219.329 215.359 218.254 214.033 218.254Z" fill="#1976D2"/>
<path d="M196.173 253.973H89.8483C88.5223 253.973 87.4473 255.048 87.4473 256.374V271.416C87.4473 272.742 88.5223 273.817 89.8483 273.817H196.173C197.499 273.817 198.574 272.742 198.574 271.416V256.374C198.574 255.048 197.499 253.973 196.173 253.973Z" fill="#C3C3D8"/>
<path d="M225.939 289.695H89.8483C88.5223 289.695 87.4473 290.77 87.4473 292.097V307.138C87.4473 308.464 88.5223 309.54 89.8483 309.54H225.939C227.266 309.54 228.341 308.464 228.341 307.138V292.097C228.341 290.77 227.266 289.695 225.939 289.695Z" fill="#C3C3D8"/>
<path d="M223.956 670.703H56.1142C54.788 670.703 53.7129 671.778 53.7129 673.104V688.146C53.7129 689.472 54.788 690.547 56.1142 690.547H223.956C225.282 690.547 226.357 689.472 226.357 688.146V673.104C226.357 671.778 225.282 670.703 223.956 670.703Z" fill="#C3C3D8"/>
<path d="M71.1555 146.816H56.1142C54.788 146.816 53.7129 147.892 53.7129 149.218V164.259C53.7129 165.586 54.788 166.661 56.1142 166.661H71.1555C72.4825 166.661 73.5575 165.586 73.5575 164.259V149.218C73.5575 147.892 72.4825 146.816 71.1555 146.816Z" fill="#9696B1"/>
<path d="M71.1555 182.533H56.1142C54.788 182.533 53.7129 183.608 53.7129 184.935V199.976C53.7129 201.302 54.788 202.377 56.1142 202.377H71.1555C72.4825 202.377 73.5575 201.302 73.5575 199.976V184.935C73.5575 183.608 72.4825 182.533 71.1555 182.533Z" fill="#9696B1"/>
<path d="M71.1555 253.973H56.1142C54.788 253.973 53.7129 255.048 53.7129 256.374V271.416C53.7129 272.742 54.788 273.817 56.1142 273.817H71.1555C72.4825 273.817 73.5575 272.742 73.5575 271.416V256.374C73.5575 255.048 72.4825 253.973 71.1555 253.973Z" fill="#9696B1"/>
<path d="M71.1555 218.254H56.1142C54.788 218.254 53.7129 219.329 53.7129 220.655V235.697C53.7129 237.023 54.788 238.098 56.1142 238.098H71.1555C72.4825 238.098 73.5575 237.023 73.5575 235.697V220.655C73.5575 219.329 72.4825 218.254 71.1555 218.254Z" fill="#1976D2"/>
<path d="M71.1555 289.695H56.1142C54.788 289.695 53.7129 290.77 53.7129 292.097V307.138C53.7129 308.464 54.788 309.54 56.1142 309.54H71.1555C72.4825 309.54 73.5575 308.464 73.5575 307.138V292.097C73.5575 290.77 72.4825 289.695 71.1555 289.695Z" fill="#9696B1"/>
<path d="M984.74 57.5177C984.74 53.1338 988.3 49.5801 992.68 49.5801H1246.69C1251.07 49.5801 1254.63 53.1338 1254.63 57.5177V136.895H984.74V57.5177Z" fill="#595E6D"/>
<g filter="url(#filter4_d)">
<path d="M1146.94 90.5605H1091.44C1083.01 90.5605 1076.17 97.3985 1076.17 105.834V161.334C1076.17 169.77 1083.01 176.608 1091.44 176.608H1146.94C1155.38 176.608 1162.22 169.77 1162.22 161.334V105.834C1162.22 97.3985 1155.38 90.5605 1146.94 90.5605Z" fill="#1976D2"/>
</g>
<path d="M1196.74 231.855H1043.94C1034.08 231.855 1026.08 239.852 1026.08 249.715C1026.08 259.579 1034.08 267.575 1043.94 267.575H1196.74C1206.6 267.575 1214.6 259.579 1214.6 249.715C1214.6 239.852 1206.6 231.855 1196.74 231.855Z" fill="#344F8E"/>
<path d="M1196.74 283.447H1043.94C1034.08 283.447 1026.08 291.443 1026.08 301.307C1026.08 311.171 1034.08 319.167 1043.94 319.167H1196.74C1206.6 319.167 1214.6 311.171 1214.6 301.307C1214.6 291.443 1206.6 283.447 1196.74 283.447Z" fill="#4BA2ED"/>
<path d="M944.409 77.1152H307.121V82.4932H944.409V77.1152Z" fill="#F2F2F7"/>
<path d="M403.925 74.4258H323.256V82.4927H403.925V74.4258Z" fill="#1976D2"/>
<g filter="url(#filter5_d)">
<path d="M936.471 114.76H315.059C310.675 114.76 307.121 118.314 307.121 122.697V682.263C307.121 686.647 310.675 690.201 315.059 690.201H936.471C940.855 690.201 944.409 686.647 944.409 682.263V122.697C944.409 118.314 940.855 114.76 936.471 114.76Z" fill="#2D3748"/>
</g>
<path d="M307.121 122.697C307.121 118.314 310.676 114.76 315.059 114.76H939.16C943.543 114.76 947.097 118.314 947.097 122.697V168.539H307.121V122.697Z" fill="#E1E1EF"/>
<path d="M514.878 133.584H335.996C334.9 133.584 334.012 134.472 334.012 135.568V147.733C334.012 148.829 334.9 149.718 335.996 149.718H514.878C515.974 149.718 516.862 148.829 516.862 147.733V135.568C516.862 134.472 515.974 133.584 514.878 133.584Z" fill="#D9D9E9"/>
<path d="M460.393 198.119H352.834C346.893 198.119 342.078 202.935 342.078 208.875V316.434C342.078 322.374 346.893 327.19 352.834 327.19H460.393C466.333 327.19 471.149 322.374 471.149 316.434V208.875C471.149 202.935 466.333 198.119 460.393 198.119Z" fill="#888899"/>
<path d="M890.629 348.701H352.834C346.893 348.701 342.078 353.517 342.078 359.457V504.662C342.078 510.602 346.893 515.418 352.834 515.418H890.629C896.569 515.418 901.385 510.602 901.385 504.662V359.457C901.385 353.517 896.569 348.701 890.629 348.701Z" fill="#888899"/>
<path d="M602.909 198.119H495.35C489.41 198.119 484.594 202.935 484.594 208.875V316.434C484.594 322.374 489.41 327.19 495.35 327.19H602.909C608.85 327.19 613.665 322.374 613.665 316.434V208.875C613.665 202.935 608.85 198.119 602.909 198.119Z" fill="#888899"/>
<path d="M342.078 553.063C342.078 542.667 350.505 534.24 360.901 534.24H589.464C599.859 534.24 608.286 542.667 608.286 553.063V690.201H342.078V553.063Z" fill="#888899"/>
<path d="M635.176 553.063C635.176 542.667 643.603 534.24 653.999 534.24H882.562C892.958 534.24 901.385 542.667 901.385 553.063V690.201H635.176V553.063Z" fill="#888899"/>
<path d="M748.114 198.119H640.555C634.615 198.119 629.799 202.935 629.799 208.875V316.434C629.799 322.374 634.615 327.19 640.555 327.19H748.114C754.055 327.19 758.87 322.374 758.87 316.434V208.875C758.87 202.935 754.055 198.119 748.114 198.119Z" fill="#888899"/>
<path d="M890.629 198.119H783.07C777.13 198.119 772.314 202.935 772.314 208.875V316.434C772.314 322.374 777.13 327.19 783.07 327.19H890.629C896.569 327.19 901.385 322.374 901.385 316.434V208.875C901.385 202.935 896.569 198.119 890.629 198.119Z" fill="#888899"/>
</g>
</g>
<defs>
<filter id="filter0_d" x="0.713437" y="0.580625" width="1306.58" height="746.593" filterUnits="userSpaceOnUse" color-interpolation-filters="sRGB">
<feFlood flood-opacity="0" result="BackgroundImageFix"/>
<feColorMatrix in="SourceAlpha" type="matrix" values="0 0 0 0 0 0 0 0 0 0 0 0 0 0 0 0 0 0 127 0"/>
<feOffset dy="4"/>
<feGaussianBlur stdDeviation="6.655"/>
<feColorMatrix type="matrix" values="0 0 0 0 0.14902 0 0 0 0 0.376471 0 0 0 0 0.721569 0 0 0 0.16 0"/>
<feBlend mode="normal" in2="BackgroundImageFix" result="effect1_dropShadow"/>
<feBlend mode="normal" in="SourceGraphic" in2="effect1_dropShadow" result="shape"/>
</filter>
<filter id="filter1_d" x="-1.47424" y="0.296825" width="1310.95" height="751.641" filterUnits="userSpaceOnUse" color-interpolation-filters="sRGB">
<feFlood flood-opacity="0" result="BackgroundImageFix"/>
<feColorMatrix in="SourceAlpha" type="matrix" values="0 0 0 0 0 0 0 0 0 0 0 0 0 0 0 0 0 0 127 0"/>
<feOffset dy="5.90388"/>
<feGaussianBlur stdDeviation="7.74884"/>
<feColorMatrix type="matrix" values="0 0 0 0 0.118533 0 0 0 0 0.299407 0 0 0 0 0.646288 0 0 0 0.18 0"/>
<feBlend mode="normal" in2="BackgroundImageFix" result="effect1_dropShadow"/>
<feBlend mode="normal" in="SourceGraphic" in2="effect1_dropShadow" result="shape"/>
</filter>
<filter id="filter2_d" x="977.36" y="45.7967" width="283.66" height="326.681" filterUnits="userSpaceOnUse" color-interpolation-filters="sRGB">
<feFlood flood-opacity="0" result="BackgroundImageFix"/>
<feColorMatrix in="SourceAlpha" type="matrix" values="0 0 0 0 0 0 0 0 0 0 0 0 0 0 0 0 0 0 127 0"/>
<feOffset dy="2.95194"/>
<feGaussianBlur stdDeviation="3.68992"/>
<feColorMatrix type="matrix" values="0 0 0 0 0.185961 0 0 0 0 0.321818 0 0 0 0 0.803493 0 0 0 0.1 0"/>
<feBlend mode="normal" in2="BackgroundImageFix" result="effect1_dropShadow"/>
<feBlend mode="normal" in="SourceGraphic" in2="effect1_dropShadow" result="shape"/>
</filter>
<filter id="filter3_d" x="977.36" y="384.609" width="283.66" height="315.925" filterUnits="userSpaceOnUse" color-interpolation-filters="sRGB">
<feFlood flood-opacity="0" result="BackgroundImageFix"/>
<feColorMatrix in="SourceAlpha" type="matrix" values="0 0 0 0 0 0 0 0 0 0 0 0 0 0 0 0 0 0 127 0"/>
<feOffset dy="2.95194"/>
<feGaussianBlur stdDeviation="3.68992"/>
<feColorMatrix type="matrix" values="0 0 0 0 0.185961 0 0 0 0 0.321818 0 0 0 0 0.803493 0 0 0 0.1 0"/>
<feBlend mode="normal" in2="BackgroundImageFix" result="effect1_dropShadow"/>
<feBlend mode="normal" in="SourceGraphic" in2="effect1_dropShadow" result="shape"/>
</filter>
<filter id="filter4_d" x="1070.65" y="86.8805" width="97.0899" height="97.087" filterUnits="userSpaceOnUse" color-interpolation-filters="sRGB">
<feFlood flood-opacity="0" result="BackgroundImageFix"/>
<feColorMatrix in="SourceAlpha" type="matrix" values="0 0 0 0 0 0 0 0 0 0 0 0 0 0 0 0 0 0 127 0"/>
<feOffset dy="1.84"/>
<feGaussianBlur stdDeviation="2.76"/>
<feColorMatrix type="matrix" values="0 0 0 0 0.136039 0 0 0 0 0.273272 0 0 0 0 0.759825 0 0 0 0.09 0"/>
<feBlend mode="normal" in2="BackgroundImageFix" result="effect1_dropShadow"/>
<feBlend mode="normal" in="SourceGraphic" in2="effect1_dropShadow" result="shape"/>
</filter>
<filter id="filter5_d" x="299.741" y="110.332" width="652.048" height="590.201" filterUnits="userSpaceOnUse" color-interpolation-filters="sRGB">
<feFlood flood-opacity="0" result="BackgroundImageFix"/>
<feColorMatrix in="SourceAlpha" type="matrix" values="0 0 0 0 0 0 0 0 0 0 0 0 0 0 0 0 0 0 127 0"/>
<feOffset dy="2.95194"/>
<feGaussianBlur stdDeviation="3.68992"/>
<feColorMatrix type="matrix" values="0 0 0 0 0.185961 0 0 0 0 0.321818 0 0 0 0 0.803493 0 0 0 0.1 0"/>
<feBlend mode="normal" in2="BackgroundImageFix" result="effect1_dropShadow"/>
<feBlend mode="normal" in="SourceGraphic" in2="effect1_dropShadow" result="shape"/>
</filter>
</defs>
</svg>
