<svg width="532" height="484" viewBox="0 0 532 484" fill="none" xmlns="http://www.w3.org/2000/svg">
<path d="M413.583 120.221C467.006 166.815 525.472 215.109 531.169 268.94C537.015 322.913 489.837 382.429 436.394 415.812C382.951 449.196 323.224 456.433 251.387 468.226C179.699 480.153 96.0353 496.771 47.6092 463.394C-0.816932 430.018 -14.1068 346.633 16.1073 293.387C46.3214 240.14 120.12 217.098 168.58 170.363C217.04 123.775 240.127 53.6085 275.904 41.1032C311.681 28.4635 360.141 73.6331 413.583 120.221Z" fill="#F7F9FC"/>
<path d="M337.266 21.7539H477.576C483.375 21.7539 488.076 26.4549 488.076 32.2539V132.727C488.076 138.526 483.375 143.227 477.576 143.227H337.266C331.467 143.227 326.766 138.526 326.766 132.727V32.2539C326.766 26.4549 331.467 21.7539 337.266 21.7539Z" fill="#F7F9FC" stroke="#1976D2"/>
<path d="M461.424 55.2822C461.424 49.2071 456.499 44.2822 450.424 44.2822H424.895C418.819 44.2822 413.895 49.2071 413.895 55.2822V118.206C413.895 124.281 418.819 129.206 424.895 129.206H450.424C456.499 129.206 461.424 124.281 461.424 118.206V55.2822Z" fill="#EDF1F7"/>
<path d="M398.241 62.9639C398.242 66.828 397.094 70.6054 394.94 73.8188C392.787 77.0321 389.726 79.5372 386.145 81.0162C382.562 82.4959 378.62 82.883 374.817 82.1297C371.015 81.3764 367.522 79.5157 364.78 76.7835C362.039 74.0513 360.172 70.5698 359.415 66.7799C358.659 62.99 359.048 59.0619 360.532 55.4922C362.016 51.9225 364.53 48.8717 367.755 46.7259C370.979 44.5799 374.77 43.4352 378.647 43.4365C383.843 43.4365 388.828 45.4939 392.502 49.156C396.177 52.8181 398.241 57.7849 398.241 62.9639Z" fill="#1976D2"/>
<path d="M490.535 271.475C490.535 280.926 487.724 290.164 482.455 298.022C477.186 305.88 469.698 312.005 460.937 315.621C452.175 319.238 442.535 320.185 433.234 318.341C423.933 316.497 415.39 311.946 408.684 305.263C401.979 298.581 397.412 290.066 395.562 280.797C393.712 271.528 394.661 261.92 398.29 253.189C401.919 244.458 408.065 236.995 415.95 231.744C423.834 226.494 433.105 223.691 442.588 223.691C455.305 223.691 467.5 228.726 476.492 237.687C485.484 246.648 490.535 258.802 490.535 271.475Z" fill="white"/>
<path d="M520.238 193.729C520.238 187.653 515.313 182.729 509.238 182.729H428.5C422.425 182.729 417.5 187.653 417.5 193.729V274.116C417.5 280.191 422.425 285.116 428.5 285.116H509.238C515.313 285.116 520.238 280.191 520.238 274.116V193.729Z" stroke="#1976D2" stroke-width="3" stroke-linecap="round" stroke-linejoin="round"/>
<path d="M191.767 181.962C191.767 175.887 186.843 170.962 180.767 170.962H25.1445C19.0694 170.962 14.1445 175.887 14.1445 181.962V213.37C14.1445 219.445 19.0694 224.37 25.1445 224.37H180.767C186.843 224.37 191.767 219.445 191.767 213.37V181.962Z" fill="#1976D2"/>
<path d="M176.49 197.397C176.491 200.481 175.575 203.495 173.857 206.06C172.139 208.625 169.696 210.624 166.837 211.805C163.979 212.986 160.834 213.295 157.799 212.695C154.764 212.094 151.976 210.61 149.787 208.43C147.599 206.25 146.108 203.472 145.504 200.448C144.9 197.424 145.21 194.289 146.394 191.44C147.577 188.591 149.582 186.155 152.155 184.442C154.728 182.729 157.752 181.814 160.847 181.814C164.994 181.814 168.972 183.456 171.905 186.378C174.839 189.3 176.488 193.264 176.49 197.397Z" fill="#1976D2"/>
<path d="M131.301 188.359H43.0117" stroke="#EDF1F7" stroke-width="3.69" stroke-linecap="round" stroke-linejoin="round"/>
<path d="M131.297 206.442H84.5156" stroke="#EDF1F7" stroke-width="3.69" stroke-linecap="round" stroke-linejoin="round"/>
<path d="M252.486 11C252.486 4.92486 247.561 0 241.486 0H157.922C151.847 0 146.922 4.92487 146.922 11V122.493C146.922 128.568 151.847 133.493 157.922 133.493H241.486C247.561 133.493 252.486 128.568 252.486 122.493V11Z" fill="#EDF1F7"/>
<path d="M210.19 54.2517C201.284 51.6933 193.399 60.6202 197.037 69.1429L213.611 107.967C216.344 114.369 224.261 116.655 229.986 112.694L264.776 88.624C272.408 83.3438 270.474 71.5677 261.555 69.0055L210.19 54.2517Z" stroke="#1976D2" stroke-width="3" stroke-linecap="round" stroke-linejoin="round"/>
<path d="M95.848 78.1094C95.848 72.0342 90.9232 67.1094 84.848 67.1094H46.0625C39.9874 67.1094 35.0625 72.0342 35.0625 78.1094V81.4089C35.0625 87.484 39.9874 92.4089 46.0625 92.4089H84.848C90.9232 92.4089 95.848 87.484 95.848 81.4089V78.1094Z" fill="#EDF1F7"/>
<path d="M67.563 109.383C67.563 103.308 62.6382 98.3828 56.563 98.3828H17.7774C11.7022 98.3828 6.77734 103.308 6.77734 109.383V112.682C6.77734 118.758 11.7022 123.682 17.7773 123.682H56.563C62.6382 123.682 67.563 118.758 67.563 112.682V109.383Z" fill="#EDF1F7"/>
<g clip-path="url(#clip0)">
<path d="M154.944 225.246C130.186 244.094 139.401 320.421 190.161 330.051C249.606 341.327 253.623 282.288 298.692 287.583C337.884 292.191 349.647 333.416 325.379 359.266" stroke="white" stroke-width="6" stroke-linecap="round" stroke-linejoin="round" stroke-dasharray="36 36"/>
<path d="M238.989 249.435L138.281 302.405C127.91 307.86 124.048 320.461 129.655 330.549C135.262 340.637 148.216 344.393 158.587 338.938L259.295 285.968C269.666 280.513 273.528 267.912 267.921 257.824C262.314 247.736 249.36 243.98 238.989 249.435Z" fill="#1976D2"/>
<path d="M191.924 305.514L181.062 302.123L184.551 291.555" stroke="white" stroke-width="5.3" stroke-linecap="round" stroke-linejoin="round"/>
<path d="M210.008 278.825L220.87 282.219L217.384 292.785" stroke="white" stroke-width="5.3" stroke-linecap="round" stroke-linejoin="round"/>
<path d="M194.676 277.858L202.488 309.287" stroke="white" stroke-width="5.3" stroke-linecap="round" stroke-linejoin="round"/>
<path d="M162.277 336.994L179.423 350.653L177.061 329.217" fill="#1976D2"/>
<path d="M359.432 394.499L379.638 386.506L321.824 366.652L340.985 423.303L349.636 403.825" fill="#1976D2"/>
<path d="M359.433 394.499L381.944 416.874L372.148 426.2L349.637 403.825" fill="#1976D2"/>
<path d="M328.822 227.659L303.488 252.447L364.063 266.083L328.822 227.659Z" stroke="#EDF1F7" stroke-width="3.95" stroke-linecap="round" stroke-linejoin="round"/>
<path d="M164.962 395.674L160.996 434.33L206.166 438.716L210.132 400.06L164.962 395.674Z" stroke="#EDF1F7" stroke-width="3.95" stroke-linecap="round" stroke-linejoin="round"/>
<path d="M158.951 468.415C171.074 468.415 180.902 458.855 180.902 447.062C180.902 435.268 171.074 425.708 158.951 425.708C146.828 425.708 137 435.268 137 447.062C137 458.855 146.828 468.415 158.951 468.415Z" stroke="#EDF1F7" stroke-width="3.95" stroke-linecap="round" stroke-linejoin="round"/>
</g>
<defs>
<clipPath id="clip0">
<rect width="265" height="258.3" fill="white" transform="translate(117 224.475)"/>
</clipPath>
</defs>
</svg>
