<svg width="1328" height="808" viewBox="0 0 1328 808" fill="none" xmlns="http://www.w3.org/2000/svg">
<g filter="url(#filter0_d)">
<path d="M508.613 10.4345L18.518 114.607C12.517 115.883 8.68631 121.782 9.96181 127.783L149.921 786.241C151.197 792.242 157.095 796.072 163.096 794.797L653.191 690.624C659.192 689.348 663.023 683.45 661.747 677.449L521.788 18.9908C520.512 12.9897 514.614 9.15896 508.613 10.4345Z" fill="white"/>
</g>
<path d="M9.5599 125.893C8.5058 120.934 11.6717 116.059 16.6307 115.005L510.497 10.0306C515.458 8.97651 520.333 12.1422 521.387 17.1015L583.418 308.932L71.5904 417.725L9.5599 125.893Z" fill="#E6E4FF"/>
<path d="M189.993 157.931L104.689 176.063C83.6125 180.543 70.1579 201.261 74.6379 222.337L92.7695 307.642C97.2495 328.718 117.968 342.172 139.045 337.692L224.349 319.56C245.425 315.08 258.88 294.363 254.4 273.286L236.268 187.982C231.788 166.905 211.07 153.451 189.993 157.931Z" fill="#8C84E5"/>
<path d="M491.562 119.636L264.832 167.829C262.353 168.356 260.77 170.793 261.297 173.273L267.179 200.944C267.706 203.424 270.143 205.006 272.623 204.479L499.352 156.287C501.832 155.759 503.415 153.322 502.888 150.842L497.006 123.171C496.479 120.692 494.042 119.109 491.562 119.636Z" fill="#6A5FDA"/>
<path d="M501.788 167.742L275.058 215.935C272.578 216.462 270.995 218.9 271.523 221.379L283.247 276.539C283.774 279.018 286.211 280.601 288.691 280.074L515.421 231.881C517.9 231.354 519.483 228.917 518.956 226.437L507.232 171.278C506.705 168.798 504.267 167.215 501.788 167.742Z" fill="#9F98EE"/>
<path d="M260.754 501.867L153.001 524.77C146.802 526.088 142.845 532.182 144.163 538.381L167.066 646.133C168.384 652.332 174.477 656.288 180.676 654.971L288.429 632.068C294.628 630.751 298.585 624.657 297.268 618.458L274.364 510.705C273.046 504.506 266.953 500.549 260.754 501.867Z" fill="#FFDB96"/>
<path d="M404.425 471.329L298.917 493.756C292.718 495.073 288.761 501.167 290.079 507.366L312.982 615.119C314.3 621.318 320.393 625.275 326.592 623.957L432.1 601.531C438.299 600.213 442.256 594.12 440.938 587.921L418.035 480.168C416.717 473.969 410.624 470.012 404.425 471.329Z" fill="#5977BB"/>
<path d="M552.586 439.837L444.833 462.74C438.634 464.058 434.677 470.151 435.995 476.35L458.898 584.103C460.216 590.302 466.309 594.259 472.508 592.941L580.261 570.038C586.46 568.72 590.417 562.627 589.099 556.428L566.196 448.675C564.878 442.476 558.785 438.519 552.586 439.837Z" fill="#4BA2ED"/>
<path d="M516.49 489.754L516.487 489.743L519.338 489.138L520.422 489.124C521.146 489.11 521.813 489.154 522.427 489.254C523.04 489.353 523.643 489.492 524.235 489.671C524.827 489.851 525.369 490.048 525.866 490.258C526.356 490.468 526.807 490.703 527.219 490.968C527.628 491.237 528.17 491.212 528.847 490.896C529.525 490.581 530.244 490.189 531.004 489.721C531.765 489.254 532.508 488.753 533.233 488.217C533.96 487.681 534.4 487.343 534.555 487.208C534.704 487.069 534.784 486.995 534.795 486.986L534.801 486.967L534.851 486.928L534.9 486.89L534.95 486.848L534.997 486.81L535.005 486.793L535.019 486.776L535.033 486.762L535.041 486.743L535.091 486.715L535.144 486.693L535.152 486.779V486.865L535.144 486.951L535.133 487.039L535.116 487.1L535.102 487.161L535.091 487.249C535.086 487.307 535.083 487.385 535.083 487.479C535.083 487.575 534.989 487.976 534.795 488.687C534.602 489.395 534.328 490.133 533.977 490.894C533.623 491.657 533.285 492.249 532.965 492.669C532.644 493.092 532.434 493.385 532.334 493.548C532.235 493.714 532.107 493.875 531.95 494.029L531.715 494.27L531.665 494.309L531.615 494.347L531.607 494.367L531.593 494.381L531.579 494.394L531.571 494.414L531.524 494.452L531.474 494.491L531.466 494.511L531.452 494.524L531.438 494.538L531.43 494.558L531.424 494.577L531.411 494.591L531.397 494.605L531.389 494.624L531.662 494.566L533.128 493.91C534.104 493.474 535.025 493.001 535.89 492.492L537.265 491.685L537.419 491.596L537.494 491.549L537.544 491.51L537.594 491.472L537.641 491.433L537.69 491.394L537.798 491.355L537.903 491.32L537.928 491.43L537.903 491.447L537.878 491.469L537.87 491.488L537.856 491.502L537.842 491.516L537.834 491.535L537.829 491.555L537.815 491.568L537.801 491.582L537.793 491.602L537.784 491.621L537.771 491.635L537.754 491.696L537.74 491.756L537.726 491.77C537.721 491.784 537.555 492.144 537.226 492.851C536.9 493.562 536.72 493.924 536.684 493.941C536.651 493.958 536.612 494.024 536.568 494.137C536.526 494.253 536.225 494.743 535.663 495.606C535.102 496.471 534.541 497.254 533.974 497.953C533.407 498.658 533.205 499.419 533.371 500.234C533.532 501.05 533.686 501.977 533.83 503.013C533.974 504.053 534.074 505.187 534.123 506.417C534.176 507.648 534.151 509.055 534.049 510.645C533.946 512.233 533.744 513.803 533.446 515.354C533.144 516.909 532.788 518.322 532.37 519.593C531.953 520.868 531.554 521.955 531.173 522.856C530.791 523.758 530.393 524.618 529.973 525.431C529.555 526.247 529.005 527.181 528.322 528.235C527.636 529.285 527.263 529.861 527.202 529.963C527.133 530.06 526.84 530.436 526.317 531.091C525.8 531.746 525.236 532.413 524.622 533.088C524.014 533.76 523.444 534.335 522.913 534.81C522.385 535.286 521.744 535.836 520.986 536.464C520.234 537.092 519.404 537.703 518.5 538.297C517.596 538.892 516.628 539.47 515.602 540.031C514.576 540.592 513.57 541.073 512.585 541.474C511.604 541.873 510.475 542.276 509.206 542.68L507.301 543.286L507.307 543.313L503.742 544.068L503.737 544.043L503.267 544.112C502.951 544.162 502.691 544.198 502.487 544.223C502.282 544.245 501.502 544.306 500.147 544.403C498.793 544.5 497.722 544.538 496.934 544.513C496.146 544.491 494.957 544.381 493.37 544.184C491.78 543.985 490.403 543.739 489.242 543.44C488.083 543.145 487.353 542.954 487.057 542.874C486.767 542.793 486.435 542.688 486.062 542.556L485.506 542.359L485.492 542.345L485.473 542.34L485.453 542.332L485.439 542.318L485.379 542.301L485.318 542.285L485.304 542.271L485.285 542.265L485.265 542.257L485.251 542.243L485.238 542.229L485.218 542.221L485.191 542.227L485.166 542.116H485.224L485.282 542.121L485.536 542.097C485.702 542.08 486.156 542.011 486.897 541.892C487.635 541.773 488.409 541.61 489.225 541.397C490.041 541.187 490.862 540.924 491.694 540.614C492.527 540.305 493.492 539.871 494.595 539.309C495.698 538.751 496.697 538.153 497.584 537.517C498.469 536.879 499.094 536.411 499.462 536.11C499.827 535.817 500.369 535.294 501.09 534.55L502.169 533.433L502.177 533.414L502.191 533.4L502.205 533.386L502.213 533.367L502.221 533.348L502.235 533.334L502.249 533.32L502.255 533.301L502.307 533.273L502.36 533.248V533.193L502.362 533.135L502.379 533.118L502.384 533.101L501.942 533.165C501.643 533.209 501.359 533.251 501.079 533.292C500.803 533.331 500.355 533.342 499.738 533.32C499.124 533.298 498.447 533.212 497.709 533.063C496.97 532.913 496.237 532.709 495.513 532.441C494.789 532.175 494.255 531.94 493.915 531.733C493.577 531.531 493.132 531.235 492.579 530.848C492.032 530.458 491.537 530.04 491.1 529.598C490.663 529.156 490.223 528.633 489.781 528.027L489.114 527.129L489.067 527.051L489.023 526.974L488.995 526.924L488.973 526.871L489.056 526.863H489.142L489.764 526.816C490.176 526.786 490.812 526.672 491.667 526.471C492.521 526.269 493.107 526.106 493.425 525.981C493.741 525.857 493.934 525.779 494.003 525.743L494.108 525.694L494.238 525.638L494.371 525.58L494.377 525.561L494.393 525.547L494.407 525.533L494.412 525.514L494.299 525.511L494.183 525.505L494.067 525.503L493.951 525.497L493.837 525.494C493.76 525.492 493.624 525.481 493.428 525.467C493.234 525.45 492.698 525.353 491.822 525.176C490.945 524.999 490.232 524.798 489.687 524.571C489.142 524.341 488.611 524.079 488.1 523.78C487.588 523.476 487.01 523.069 486.366 522.555C485.721 522.043 485.113 521.419 484.535 520.683C483.957 519.945 483.49 519.223 483.131 518.518C482.771 517.816 482.478 517.083 482.251 516.325L481.908 515.197L481.966 515.194L482.024 515.2L482.085 515.216L482.146 515.233L482.207 515.247L482.265 515.263L483.197 515.465C483.819 515.601 484.568 515.672 485.448 515.675C486.327 515.681 486.85 515.672 487.018 515.656L487.273 515.631L487.765 515.526L487.751 515.512L487.732 515.504L487.712 515.498L487.699 515.484L487.685 515.471L487.665 515.462L487.646 515.454L487.632 515.44L487.571 515.424L487.511 515.41L487.497 515.396L487.477 515.388L487.458 515.379L487.444 515.366L487.383 515.349L487.323 515.335L487.309 515.321C487.295 515.316 487.115 515.23 486.761 515.07C486.413 514.904 486.037 514.671 485.63 514.376C485.224 514.08 484.812 513.767 484.4 513.435C483.982 513.101 483.598 512.733 483.247 512.332C482.895 511.931 482.5 511.409 482.066 510.761C481.635 510.12 481.272 509.459 480.974 508.779C480.675 508.096 480.446 507.41 480.28 506.719C480.114 506.03 480.006 505.433 479.953 504.927C479.904 504.421 479.895 503.84 479.928 503.185C479.962 502.53 480.058 501.822 480.222 501.061L480.465 499.919L480.476 499.831L480.487 499.745L480.501 499.728L480.506 499.709L480.515 499.692L480.528 499.676L480.548 499.684L480.562 499.698L480.575 499.712L480.595 499.72L480.614 499.728L480.628 499.742L480.642 499.756L480.661 499.764L480.7 499.811L480.739 499.861L480.758 499.869L480.772 499.883L481.687 500.547C482.298 500.992 483.012 501.479 483.833 502.012C484.651 502.543 485.102 502.814 485.18 502.825C485.26 502.839 485.368 502.903 485.509 503.019C485.647 503.13 486.081 503.376 486.811 503.757C487.541 504.136 488.478 504.556 489.629 505.018C490.776 505.483 492.032 505.911 493.398 506.31C494.761 506.708 496.202 507.02 497.722 507.252C499.24 507.482 500.302 507.62 500.902 507.665C501.505 507.709 502.517 507.712 503.941 507.676C505.365 507.642 506.433 507.587 507.143 507.512C507.854 507.438 508.338 507.377 508.595 507.335L508.982 507.264L508.955 507.183L508.919 507.106L508.664 506.445C508.493 506.003 508.321 505.372 508.147 504.548C507.973 503.727 507.876 502.955 507.854 502.234C507.835 501.512 507.879 500.768 507.981 499.999C508.086 499.233 508.216 498.609 508.368 498.125C508.526 497.643 508.747 497.088 509.032 496.454C509.32 495.821 509.718 495.144 510.235 494.422C510.749 493.703 511.369 493.026 512.093 492.395C512.82 491.765 513.503 491.256 514.148 490.869C514.792 490.484 515.342 490.205 515.804 490.031C516.263 489.857 516.49 489.765 516.49 489.754Z" fill="white"/>
<path d="M284.02 649.433L191.769 669.041C189.968 669.424 188.818 671.194 189.201 672.995L191.632 684.432C192.015 686.233 193.785 687.383 195.586 687L287.837 667.391C289.638 667.009 290.788 665.238 290.405 663.437L287.974 652C287.591 650.199 285.821 649.05 284.02 649.433Z" fill="#A4B1D0"/>
<path d="M429.934 618.417L337.683 638.026C335.882 638.408 334.732 640.179 335.115 641.98L337.546 653.417C337.929 655.218 339.699 656.367 341.5 655.984L433.752 636.376C435.553 635.993 436.702 634.223 436.319 632.422L433.888 620.985C433.506 619.184 431.735 618.034 429.934 618.417Z" fill="#A4B1D0"/>
<path d="M575.85 587.399L483.598 607.008C481.797 607.391 480.648 609.161 481.031 610.962L483.462 622.399C483.844 624.2 485.615 625.35 487.416 624.967L579.667 605.358C581.468 604.975 582.618 603.205 582.235 601.404L579.804 589.967C579.421 588.166 577.651 587.017 575.85 587.399Z" fill="#8E95A6"/>
<g filter="url(#filter1_d)">
<path d="M1309.56 114.604L819.466 10.4306C813.465 9.15499 807.566 12.9858 806.29 18.9868L666.331 677.445C665.055 683.446 668.886 689.345 674.887 690.62L1164.98 794.793C1170.98 796.069 1176.88 792.238 1178.16 786.237L1318.12 127.779C1319.39 121.778 1315.56 115.879 1309.56 114.604Z" fill="white"/>
</g>
<path d="M1133.48 278.954L913.481 232.193C912.241 231.929 911.022 232.721 910.759 233.961L906.941 251.919C906.678 253.159 907.469 254.378 908.709 254.641L1128.7 301.403C1129.94 301.666 1131.16 300.875 1131.43 299.635L1135.24 281.676C1135.51 280.437 1134.72 279.218 1133.48 278.954Z" fill="#C9CEDB"/>
<path d="M753.727 266.277L1265.56 375.071L1204.48 662.412L692.65 553.618L753.727 266.277Z" fill="#BDDCFF"/>
<g filter="url(#filter2_d)">
<path d="M1090.55 105.594L1023.21 91.2786C1004.61 87.3266 986.329 99.1976 982.379 117.795L968.062 185.14C964.109 203.737 975.98 222.018 994.579 225.97L1061.92 240.285C1080.52 244.238 1098.8 232.367 1102.75 213.77L1117.07 146.424C1121.02 127.827 1109.15 109.547 1090.55 105.594Z" fill="white"/>
</g>
<path d="M1081.29 113.681L1028.38 102.433C1011.11 98.7634 994.141 109.786 990.471 127.055L979.219 179.969C975.549 197.238 986.571 214.212 1003.84 217.883L1056.75 229.13C1074.02 232.801 1091 221.777 1094.67 204.509L1105.92 151.594C1109.59 134.326 1098.56 117.351 1081.29 113.681Z" fill="#7EB9FF"/>
<path d="M1084.12 676.718L796.785 615.642C780.667 612.217 764.824 622.505 761.399 638.622L761.398 638.623C757.973 654.74 768.261 670.583 784.378 674.009L1071.72 735.085C1087.84 738.51 1103.68 728.222 1107.1 712.105V712.104C1110.53 695.987 1100.24 680.144 1084.12 676.718Z" fill="#96EDCE"/>
<path d="M1000.14 679.312L827.313 642.576C825.512 642.193 823.742 643.343 823.359 645.144L820.587 658.187C820.204 659.988 821.354 661.759 823.155 662.142L995.98 698.878C997.79 699.26 999.56 698.111 999.94 696.31L1002.71 683.266C1003.09 681.465 1001.94 679.695 1000.14 679.312Z" fill="#C8F9E8"/>
<g filter="url(#filter3_d)">
<path d="M898.478 8.12109H397.435C391.3 8.12109 386.326 13.0946 386.326 19.2297V692.398C386.326 698.533 391.3 703.506 397.435 703.506H898.478C904.614 703.506 909.587 698.533 909.587 692.398V19.2297C909.587 13.0946 904.614 8.12109 898.478 8.12109Z" fill="white"/>
</g>
<path d="M799.427 283.521H494.191C492.924 283.521 491.896 284.549 491.896 285.816V313.357C491.896 314.624 492.924 315.652 494.191 315.652H799.427C800.695 315.652 801.721 314.624 801.721 313.357V285.816C801.721 284.549 800.695 283.521 799.427 283.521Z" fill="#8F94A6"/>
<path d="M794.834 370.732H501.075C484.598 370.732 471.24 384.09 471.24 400.567V400.568C471.24 417.045 484.598 430.403 501.075 430.403H794.834C811.312 430.403 824.669 417.045 824.669 400.568V400.567C824.669 384.09 811.312 370.732 794.834 370.732Z" fill="#5977BB"/>
<path d="M737.949 392.482H561.258C559.417 392.482 557.924 393.975 557.924 395.816V409.151C557.924 410.993 559.417 412.485 561.258 412.485H737.949C739.79 412.485 741.283 410.993 741.283 409.151V395.816C741.283 393.975 739.79 392.482 737.949 392.482Z" fill="#A4B7E3"/>
<path d="M794.834 545.154H501.075C484.598 545.154 471.24 558.512 471.24 574.989C471.24 591.467 484.598 604.824 501.075 604.824H794.834C811.312 604.824 824.669 591.467 824.669 574.989C824.669 558.512 811.312 545.154 794.834 545.154Z" fill="#4F98CB"/>
<path d="M737.949 563.924H561.258C559.417 563.924 557.924 565.416 557.924 567.258V580.593C557.924 582.434 559.417 583.927 561.258 583.927H737.949C739.79 583.927 741.283 582.434 741.283 580.593V567.258C741.283 565.416 739.79 563.924 737.949 563.924Z" fill="#B2D8F2"/>
<path d="M794.834 457.943H501.075C484.598 457.943 471.24 471.301 471.24 487.778V487.779C471.24 504.256 484.598 517.613 501.075 517.613H794.834C811.312 517.613 824.669 504.256 824.669 487.779V487.778C824.669 471.301 811.312 457.943 794.834 457.943Z" fill="#83C0F4"/>
<path d="M737.949 475.438H561.258C559.417 475.438 557.924 476.93 557.924 478.771V492.105C557.924 493.947 559.417 495.44 561.258 495.44H737.949C739.79 495.44 741.283 493.947 741.283 492.105V478.771C741.283 476.93 739.79 475.438 737.949 475.438Z" fill="#BADAF5"/>
<path d="M386.326 17.3012C386.326 12.2311 390.435 8.12109 395.507 8.12109H900.407C905.475 8.12109 909.587 12.2311 909.587 17.3012V196.311H386.326V17.3012Z" fill="#BFCFF8"/>
<g filter="url(#filter4_d)">
<path d="M680.088 129.758H615.827C598.083 129.758 583.697 144.143 583.697 161.888V226.148C583.697 243.893 598.083 258.278 615.827 258.278H680.088C697.833 258.278 712.218 243.893 712.218 226.148V161.888C712.218 144.143 697.833 129.758 680.088 129.758Z" fill="white"/>
</g>
<path d="M673.204 138.934H622.714C606.236 138.934 592.879 152.291 592.879 168.769V219.259C592.879 235.736 606.236 249.094 622.714 249.094H673.204C689.682 249.094 703.039 235.736 703.039 219.259V168.769C703.039 152.291 689.682 138.934 673.204 138.934Z" fill="#1976D2"/>
<defs>
<filter id="filter0_d" x="0.666797" y="4.6751" width="670.376" height="802.952" filterUnits="userSpaceOnUse" color-interpolation-filters="sRGB">
<feFlood flood-opacity="0" result="BackgroundImageFix"/>
<feColorMatrix in="SourceAlpha" type="matrix" values="0 0 0 0 0 0 0 0 0 0 0 0 0 0 0 0 0 0 127 0"/>
<feOffset dy="3.53565"/>
<feGaussianBlur stdDeviation="4.525"/>
<feColorMatrix type="matrix" values="0 0 0 0 0.14788 0 0 0 0 0.376938 0 0 0 0 0.720524 0 0 0 0.06 0"/>
<feBlend mode="normal" in2="BackgroundImageFix" result="effect1_dropShadow"/>
<feBlend mode="normal" in="SourceGraphic" in2="effect1_dropShadow" result="shape"/>
</filter>
<filter id="filter1_d" x="657.036" y="4.6712" width="670.376" height="802.953" filterUnits="userSpaceOnUse" color-interpolation-filters="sRGB">
<feFlood flood-opacity="0" result="BackgroundImageFix"/>
<feColorMatrix in="SourceAlpha" type="matrix" values="0 0 0 0 0 0 0 0 0 0 0 0 0 0 0 0 0 0 127 0"/>
<feOffset dy="3.53565"/>
<feGaussianBlur stdDeviation="4.525"/>
<feColorMatrix type="matrix" values="0 0 0 0 0.14788 0 0 0 0 0.376938 0 0 0 0 0.720524 0 0 0 0.06 0"/>
<feBlend mode="normal" in2="BackgroundImageFix" result="effect1_dropShadow"/>
<feBlend mode="normal" in="SourceGraphic" in2="effect1_dropShadow" result="shape"/>
</filter>
<filter id="filter2_d" x="962.394" y="87.2471" width="160.342" height="160.342" filterUnits="userSpaceOnUse" color-interpolation-filters="sRGB">
<feFlood flood-opacity="0" result="BackgroundImageFix"/>
<feColorMatrix in="SourceAlpha" type="matrix" values="0 0 0 0 0 0 0 0 0 0 0 0 0 0 0 0 0 0 127 0"/>
<feOffset dy="1.63621"/>
<feGaussianBlur stdDeviation="2.45432"/>
<feColorMatrix type="matrix" values="0 0 0 0 0.0558619 0 0 0 0 0.140618 0 0 0 0 0.441116 0 0 0 0.1 0"/>
<feBlend mode="normal" in2="BackgroundImageFix" result="effect1_dropShadow"/>
<feBlend mode="normal" in="SourceGraphic" in2="effect1_dropShadow" result="shape"/>
</filter>
<filter id="filter3_d" x="375.279" y="0.609164" width="545.356" height="717.48" filterUnits="userSpaceOnUse" color-interpolation-filters="sRGB">
<feFlood flood-opacity="0" result="BackgroundImageFix"/>
<feColorMatrix in="SourceAlpha" type="matrix" values="0 0 0 0 0 0 0 0 0 0 0 0 0 0 0 0 0 0 127 0"/>
<feOffset dy="3.53565"/>
<feGaussianBlur stdDeviation="5.52379"/>
<feColorMatrix type="matrix" values="0 0 0 0 0.040508 0 0 0 0 0.229145 0 0 0 0 0.515352 0 0 0 0.19 0"/>
<feBlend mode="normal" in2="BackgroundImageFix" result="effect1_dropShadow"/>
<feBlend mode="normal" in="SourceGraphic" in2="effect1_dropShadow" result="shape"/>
</filter>
<filter id="filter4_d" x="579.116" y="126.704" width="137.684" height="137.683" filterUnits="userSpaceOnUse" color-interpolation-filters="sRGB">
<feFlood flood-opacity="0" result="BackgroundImageFix"/>
<feColorMatrix in="SourceAlpha" type="matrix" values="0 0 0 0 0 0 0 0 0 0 0 0 0 0 0 0 0 0 127 0"/>
<feOffset dy="1.52713"/>
<feGaussianBlur stdDeviation="2.2907"/>
<feColorMatrix type="matrix" values="0 0 0 0 0.136039 0 0 0 0 0.273272 0 0 0 0 0.759825 0 0 0 0.09 0"/>
<feBlend mode="normal" in2="BackgroundImageFix" result="effect1_dropShadow"/>
<feBlend mode="normal" in="SourceGraphic" in2="effect1_dropShadow" result="shape"/>
</filter>
</defs>
</svg>
