<svg width="160" height="160" viewBox="0 0 160 160" fill="none" xmlns="http://www.w3.org/2000/svg">
<rect width="160" height="160" fill="#F7F9FC"/>
<rect x="10" y="27" width="139" height="108" rx="4" fill="white"/>
<rect x="17" y="50" width="38" height="35" rx="4" fill="#F7F9FC"/>
<rect x="20" y="87" width="32" height="5" rx="1" fill="#EDF1F7"/>
<rect x="25" y="95" width="22" height="5" rx="1" fill="#F7F9FC"/>
<rect x="17" y="105" width="38" height="9" rx="2" fill="#1976D2"/>
<rect x="61" y="50" width="38" height="35" rx="4" fill="#F7F9FC"/>
<rect x="64" y="87" width="32" height="5" rx="1" fill="#EDF1F7"/>
<rect x="69" y="95" width="22" height="5" rx="1" fill="#F7F9FC"/>
<rect x="61" y="105" width="38" height="9" rx="2" fill="#1976D2"/>
<rect x="104" y="50" width="38" height="35" rx="4" fill="#F7F9FC"/>
<rect x="107" y="87" width="32" height="5" rx="1" fill="#EDF1F7"/>
<rect x="112" y="95" width="22" height="5" rx="1" fill="#F7F9FC"/>
<rect x="104" y="105" width="38" height="9" rx="2" fill="#1976D2"/>
</svg>
