<svg width="160" height="160" viewBox="0 0 160 160" fill="none" xmlns="http://www.w3.org/2000/svg">
<rect width="160" height="160" fill="#1A2138"/>
<rect x="10" y="26" width="139" height="108" rx="4" fill="#222B45"/>
<rect x="90" y="32" width="52" height="27" rx="4" fill="#1A2138"/>
<rect x="115" y="39" width="20" height="3" rx="1" fill="#151A30"/>
<rect x="115" y="44" width="12" height="3" rx="1" fill="#151A30"/>
<rect x="90" y="65" width="52" height="27" rx="4" fill="#1A2138"/>
<rect x="90" y="98" width="52" height="27" rx="4" fill="#1A2138"/>
<rect x="17" y="50" width="65" height="6" rx="1" fill="#151A30"/>
<rect x="95" y="35" width="18" height="21" rx="1" fill="#151A30"/>
<rect x="95" y="68" width="18" height="21" rx="1" fill="#151A30"/>
<rect x="95" y="101" width="18" height="21" rx="1" fill="#151A30"/>
<rect x="17" y="59" width="52" height="6" rx="1" fill="#1A2138"/>
<rect x="17" y="73" width="65" height="9" rx="2" fill="#1976D2"/>
<rect x="115" y="73" width="20" height="3" rx="1" fill="#151A30"/>
<rect x="115" y="106" width="20" height="3" rx="1" fill="#151A30"/>
<rect x="115" y="78" width="12" height="3" rx="1" fill="#151A30"/>
<rect x="115" y="111" width="12" height="3" rx="1" fill="#151A30"/>
</svg>
