<svg width="160" height="160" viewBox="0 0 160 160" fill="none" xmlns="http://www.w3.org/2000/svg">
<rect width="160" height="160" fill="#1A2138"/>
<rect x="10" y="26" width="139" height="108" rx="4" fill="#222B45"/>
<rect x="17" y="36" width="33" height="87" rx="4" fill="#1A2138"/>
<rect x="54.25" y="36.25" width="87.5" height="86.5" rx="3.75" stroke="#151A30" stroke-width="0.5" stroke-dasharray="2 2"/>
<rect x="22" y="41" width="23" height="13" rx="1" fill="#151A30"/>
<rect x="22" y="57" width="23" height="13" rx="1" fill="#151A30"/>
<rect x="22" y="73" width="23" height="13" rx="1" fill="#151A30"/>
<rect x="22" y="89" width="23" height="13" rx="1" fill="#151A30"/>
<rect x="22" y="105" width="23" height="13" rx="1" fill="#151A30"/>
<path d="M78 88L89.465 76.535C90.4026 75.5976 91.6742 75.0711 93 75.0711C94.3258 75.0711 95.5974 75.5976 96.535 76.535L108 88H78ZM103 83L106.965 79.035C107.903 78.0976 109.174 77.5711 110.5 77.5711C111.826 77.5711 113.097 78.0976 114.035 79.035L118 83H103ZM103 68H103.025H103ZM83 98H113C114.326 98 115.598 97.4732 116.536 96.5355C117.473 95.5979 118 94.3261 118 93V63C118 61.6739 117.473 60.4021 116.536 59.4645C115.598 58.5268 114.326 58 113 58H83C81.6739 58 80.4021 58.5268 79.4645 59.4645C78.5268 60.4021 78 61.6739 78 63V93C78 94.3261 78.5268 95.5979 79.4645 96.5355C80.4021 97.4732 81.6739 98 83 98Z" stroke="#151A30" stroke-width="2" stroke-linecap="round" stroke-linejoin="round"/>
</svg>
