<svg width="160" height="160" viewBox="0 0 160 160" fill="none" xmlns="http://www.w3.org/2000/svg">
<rect width="160" height="160" fill="#F7F9FC"/>
<rect x="10" y="26" width="139" height="108" rx="4" fill="white"/>
<rect x="55" y="39" width="60" height="6" rx="1" fill="#EDF1F7"/>
<rect x="55" y="46" width="48" height="6" rx="1" fill="#F7F9FC"/>
<rect x="45" y="39" width="8" height="8" rx="4" fill="#1976D2"/>
<rect x="39.25" y="32.25" width="80.5" height="27.5" rx="1.75" stroke="#F7F9FC" stroke-width="0.5"/>
<rect x="55" y="73" width="60" height="6" rx="1" fill="#EDF1F7"/>
<rect x="55" y="80" width="48" height="6" rx="1" fill="#F7F9FC"/>
<rect x="45" y="73" width="8" height="8" rx="4" fill="#1976D2"/>
<rect x="39.25" y="66.25" width="80.5" height="27.5" rx="1.75" stroke="#F7F9FC" stroke-width="0.5"/>
<rect x="55" y="106" width="60" height="6" rx="1" fill="#EDF1F7"/>
<rect x="55" y="113" width="48" height="6" rx="1" fill="#F7F9FC"/>
<rect x="45" y="106" width="8" height="8" rx="4" fill="#1976D2"/>
<rect x="39.25" y="99.25" width="80.5" height="27.5" rx="1.75" stroke="#F7F9FC" stroke-width="0.5"/>
</svg>
