<svg width="160" height="160" viewBox="0 0 160 160" fill="none" xmlns="http://www.w3.org/2000/svg">
<rect width="160" height="160" fill="#1A2138"/>
<rect x="10" y="27" width="139" height="108" rx="4" fill="#222B45"/>
<rect x="21" y="79" width="30.7532" height="3" rx="1" fill="#151A30"/>
<rect x="26" y="85" width="21.1429" height="3" rx="1" fill="#1A2138"/>
<circle cx="37" cy="68" r="6" fill="#151A30"/>
<rect x="24" y="91" width="25" height="5" rx="1" fill="#1976D2"/>
<path d="M35.1367 65.3125L36.9961 69.9531L38.8555 65.3125H39.8281V71H39.0781V68.7852L39.1484 66.3945L37.2812 71H36.707L34.8438 66.4062L34.918 68.7852V71H34.168V65.3125H35.1367Z" fill="#1976D2"/>
<rect x="17.25" y="58.25" width="38.2532" height="41.5" rx="3.75" stroke="#1A2138" stroke-width="0.5"/>
<rect x="64" y="79" width="30.7532" height="3" rx="1" fill="#151A30"/>
<rect x="69" y="85" width="21.1429" height="3" rx="1" fill="#1A2138"/>
<circle cx="80" cy="68" r="5.75" fill="#151A30" stroke="#1976D2" stroke-width="0.5"/>
<path d="M79.9609 68.4648C79.3177 68.2799 78.849 68.0534 78.5547 67.7852C78.263 67.5143 78.1172 67.181 78.1172 66.7852C78.1172 66.3372 78.2956 65.9674 78.6523 65.6758C79.0117 65.3815 79.4779 65.2344 80.0508 65.2344C80.4414 65.2344 80.7891 65.3099 81.0938 65.4609C81.401 65.612 81.638 65.8203 81.8047 66.0859C81.974 66.3516 82.0586 66.6419 82.0586 66.957H81.3047C81.3047 66.6133 81.1953 66.3438 80.9766 66.1484C80.7578 65.9505 80.4492 65.8516 80.0508 65.8516C79.681 65.8516 79.3919 65.9336 79.1836 66.0977C78.9779 66.2591 78.875 66.4844 78.875 66.7734C78.875 67.0052 78.9727 67.2018 79.168 67.3633C79.3659 67.5221 79.7005 67.668 80.1719 67.8008C80.6458 67.9336 81.0156 68.0807 81.2812 68.2422C81.5495 68.401 81.7474 68.5872 81.875 68.8008C82.0052 69.0143 82.0703 69.2656 82.0703 69.5547C82.0703 70.0156 81.8906 70.3854 81.5312 70.6641C81.1719 70.9401 80.6914 71.0781 80.0898 71.0781C79.6992 71.0781 79.3346 71.0039 78.9961 70.8555C78.6576 70.7044 78.3958 70.4987 78.2109 70.2383C78.0286 69.9779 77.9375 69.6823 77.9375 69.3516H78.6914C78.6914 69.6953 78.8177 69.9674 79.0703 70.168C79.3255 70.3659 79.6654 70.4648 80.0898 70.4648C80.4857 70.4648 80.7891 70.3841 81 70.2227C81.2109 70.0612 81.3164 69.8411 81.3164 69.5625C81.3164 69.2839 81.2188 69.069 81.0234 68.918C80.8281 68.7643 80.474 68.6133 79.9609 68.4648Z" fill="#1976D2"/>
<rect x="67" y="91" width="25" height="5" rx="1" fill="#1976D2"/>
<rect x="60.25" y="58.25" width="38.2532" height="41.5" rx="3.75" stroke="#1A2138" stroke-width="0.5"/>
<rect x="107" y="79" width="30.7532" height="3" rx="1" fill="#151A30"/>
<rect x="112" y="85" width="21.1429" height="3" rx="1" fill="#1A2138"/>
<circle cx="123" cy="68" r="6" fill="#151A30"/>
<path d="M121.137 65.3125L122.996 69.9531L124.855 65.3125H125.828V71H125.078V68.7852L125.148 66.3945L123.281 71H122.707L120.844 66.4062L120.918 68.7852V71H120.168V65.3125H121.137Z" fill="#1976D2"/>
<rect x="110" y="91" width="25" height="5" rx="1" fill="#1976D2"/>
<rect x="103.25" y="58.25" width="38.2532" height="41.5" rx="3.75" stroke="#1A2138" stroke-width="0.5"/>
</svg>
