<svg width="160" height="160" viewBox="0 0 160 160" fill="none" xmlns="http://www.w3.org/2000/svg">
<rect width="160" height="160" fill="#1A2138"/>
<rect x="10" y="26" width="139" height="108" rx="4" fill="#222B45"/>
<rect x="19" y="49" width="32" height="35" rx="2" fill="#1A2138"/>
<rect x="19" y="87" width="32" height="5" rx="1" fill="#151A30"/>
<rect x="19" y="95" width="23" height="6" rx="1" fill="#1A2138"/>
<rect x="19" y="104" width="32" height="6" rx="2" fill="#1976D2"/>
<g clip-path="url(#clip0_1170_273)">
<path d="M25.7422 71.4708L31.0501 66.3003C31.4842 65.8776 32.0728 65.6401 32.6866 65.6401C33.3004 65.6401 33.8891 65.8776 34.3232 66.3003L39.6311 71.4708H25.7422ZM37.3163 69.2159L39.1519 67.4278C39.586 67.005 40.1747 66.7676 40.7885 66.7676C41.4023 66.7676 41.991 67.005 42.4251 67.4278L44.2607 69.2159H37.3163ZM37.3163 62.4512H37.3278H37.3163ZM28.057 75.9806H41.9459C42.5598 75.9806 43.1486 75.7431 43.5827 75.3202C44.0168 74.8973 44.2607 74.3238 44.2607 73.7257V60.1963C44.2607 59.5983 44.0168 59.0247 43.5827 58.6019C43.1486 58.179 42.5598 57.9414 41.9459 57.9414H28.057C27.4431 57.9414 26.8543 58.179 26.4202 58.6019C25.9861 59.0247 25.7422 59.5983 25.7422 60.1963V73.7257C25.7422 74.3238 25.9861 74.8973 26.4202 75.3202C26.8543 75.7431 27.4431 75.9806 28.057 75.9806Z" stroke="#222B45" stroke-width="2" stroke-linecap="round" stroke-linejoin="round"/>
</g>
<rect x="15.1" y="45.1" width="39.8" height="68.8" rx="3.9" stroke="#151A30" stroke-width="0.2"/>
<rect x="64" y="49" width="32" height="35" rx="2" fill="#1A2138"/>
<rect x="64" y="87" width="32" height="5" rx="1" fill="#151A30"/>
<rect x="64" y="95" width="23" height="6" rx="1" fill="#1A2138"/>
<rect x="64" y="104" width="32" height="6" rx="2" fill="#1976D2"/>
<g clip-path="url(#clip1_1170_273)">
<path d="M70.7422 71.4708L76.0501 66.3003C76.4842 65.8776 77.0728 65.6401 77.6866 65.6401C78.3004 65.6401 78.8891 65.8776 79.3232 66.3003L84.6311 71.4708H70.7422ZM82.3163 69.2159L84.1519 67.4278C84.586 67.005 85.1747 66.7676 85.7885 66.7676C86.4023 66.7676 86.991 67.005 87.4251 67.4278L89.2607 69.2159H82.3163ZM82.3163 62.4512H82.3278H82.3163ZM73.057 75.9806H86.9459C87.5598 75.9806 88.1486 75.7431 88.5827 75.3202C89.0168 74.8973 89.2607 74.3238 89.2607 73.7257V60.1963C89.2607 59.5983 89.0168 59.0247 88.5827 58.6019C88.1486 58.179 87.5598 57.9414 86.9459 57.9414H73.057C72.4431 57.9414 71.8543 58.179 71.4202 58.6019C70.9861 59.0247 70.7422 59.5983 70.7422 60.1963V73.7257C70.7422 74.3238 70.9861 74.8973 71.4202 75.3202C71.8543 75.7431 72.4431 75.9806 73.057 75.9806Z" stroke="#222B45" stroke-width="2" stroke-linecap="round" stroke-linejoin="round"/>
</g>
<rect x="60.1" y="45.1" width="39.8" height="68.8" rx="3.9" stroke="#151A30" stroke-width="0.2"/>
<rect x="108" y="49" width="32" height="35" rx="2" fill="#1A2138"/>
<rect x="108" y="87" width="32" height="5" rx="1" fill="#151A30"/>
<rect x="108" y="95" width="23" height="6" rx="1" fill="#1A2138"/>
<rect x="108" y="104" width="32" height="6" rx="2" fill="#1976D2"/>
<g clip-path="url(#clip2_1170_273)">
<path d="M114.742 71.4708L120.05 66.3003C120.484 65.8776 121.073 65.6401 121.687 65.6401C122.3 65.6401 122.889 65.8776 123.323 66.3003L128.631 71.4708H114.742ZM126.316 69.2159L128.152 67.4278C128.586 67.005 129.175 66.7676 129.788 66.7676C130.402 66.7676 130.991 67.005 131.425 67.4278L133.261 69.2159H126.316ZM126.316 62.4512H126.328H126.316ZM117.057 75.9806H130.946C131.56 75.9806 132.149 75.7431 132.583 75.3202C133.017 74.8973 133.261 74.3238 133.261 73.7257V60.1963C133.261 59.5983 133.017 59.0247 132.583 58.6019C132.149 58.179 131.56 57.9414 130.946 57.9414H117.057C116.443 57.9414 115.854 58.179 115.42 58.6019C114.986 59.0247 114.742 59.5983 114.742 60.1963V73.7257C114.742 74.3238 114.986 74.8973 115.42 75.3202C115.854 75.7431 116.443 75.9806 117.057 75.9806Z" stroke="#222B45" stroke-width="2" stroke-linecap="round" stroke-linejoin="round"/>
</g>
<rect x="104.1" y="45.1" width="39.8" height="68.8" rx="3.9" stroke="#151A30" stroke-width="0.2"/>
<defs>
<clipPath id="clip0_1170_273">
<rect width="20" height="20" fill="white" transform="translate(25 57)"/>
</clipPath>
<clipPath id="clip1_1170_273">
<rect width="20" height="20" fill="white" transform="translate(70 57)"/>
</clipPath>
<clipPath id="clip2_1170_273">
<rect width="20" height="20" fill="white" transform="translate(114 57)"/>
</clipPath>
</defs>
</svg>
