<svg width="160" height="160" viewBox="0 0 160 160" fill="none" xmlns="http://www.w3.org/2000/svg">
<rect width="160" height="160" fill="#1A2138"/>
<rect x="10" y="26" width="139" height="108" rx="4" fill="#222B45"/>
<rect x="45" y="32" width="69" height="61" rx="2" fill="#1A2138"/>
<rect x="65" y="99" width="30" height="5" rx="1" fill="#151A30"/>
<rect x="56" y="106" width="47" height="5" rx="1" fill="#151A30"/>
<rect x="52" y="118" width="56" height="5" rx="2" fill="#1976D2"/>
<path d="M66.1094 69.7062L74.0712 61.9505C74.7223 61.3164 75.6053 60.9602 76.526 60.9602C77.4467 60.9602 78.3298 61.3164 78.9809 61.9505L86.9427 69.7062H66.1094ZM83.4705 66.3239L86.224 63.6417C86.8751 63.0076 87.7581 62.6514 88.6788 62.6514C89.5995 62.6514 90.4825 63.0076 91.1337 63.6417L93.8871 66.3239H83.4705ZM83.4705 56.1768H83.4878H83.4705ZM69.5816 76.4709H90.4149C91.3358 76.4709 92.219 76.1146 92.8702 75.4803C93.5213 74.8459 93.8871 73.9856 93.8871 73.0886V52.7945C93.8871 51.8974 93.5213 51.0371 92.8702 50.4028C92.219 49.7685 91.3358 49.4121 90.4149 49.4121H69.5816C68.6607 49.4121 67.7775 49.7685 67.1264 50.4028C66.4752 51.0371 66.1094 51.8974 66.1094 52.7945V73.0886C66.1094 73.9856 66.4752 74.8459 67.1264 75.4803C67.7775 76.1146 68.6607 76.4709 69.5816 76.4709Z" stroke="#1976D2" stroke-width="2" stroke-linecap="round" stroke-linejoin="round"/>
</svg>
