<svg width="160" height="160" viewBox="0 0 160 160" fill="none" xmlns="http://www.w3.org/2000/svg">
<rect width="160" height="160" fill="#1A2138"/>
<rect x="10" y="26" width="139" height="108" rx="4" fill="#222B45"/>
<rect x="28" y="36" width="33" height="87" rx="4" fill="#1A2138"/>
<rect x="33" y="41" width="23" height="13" rx="1" fill="#151A30"/>
<rect x="33" y="57" width="23" height="13" rx="1" fill="#151A30"/>
<rect x="33" y="73" width="23" height="13" rx="1" fill="#151A30"/>
<rect x="33" y="89" width="23" height="13" rx="1" fill="#151A30"/>
<rect x="33" y="105" width="23" height="13" rx="1" fill="#151A30"/>
<rect x="66" y="90" width="65" height="6" rx="1" fill="#151A30"/>
<rect x="66" y="99" width="52" height="6" rx="1" fill="#1A2138"/>
<rect x="66" y="113" width="65" height="9" rx="2" fill="#1976D2"/>
<path d="M66.0703 69.2141L78.3542 56.9302C79.3589 55.9259 80.7212 55.3617 82.1417 55.3617C83.5623 55.3617 84.9246 55.9259 85.9292 56.9302L98.2132 69.2141H66.0703ZM92.856 63.857L97.1042 59.6088C98.1089 58.6045 99.4712 58.0403 100.892 58.0403C102.312 58.0403 103.675 58.6045 104.679 59.6088L108.927 63.857H92.856ZM92.856 47.7856H92.8828H92.856ZM71.4275 79.9284H103.57C104.991 79.9284 106.354 79.364 107.358 78.3594C108.363 77.3547 108.927 75.9921 108.927 74.5713V42.4284C108.927 41.0076 108.363 39.645 107.358 38.6404C106.354 37.6357 104.991 37.0713 103.57 37.0713H71.4275C70.0067 37.0713 68.644 37.6357 67.6394 38.6404C66.6347 39.645 66.0703 41.0076 66.0703 42.4284V74.5713C66.0703 75.9921 66.6347 77.3547 67.6394 78.3594C68.644 79.364 70.0067 79.9284 71.4275 79.9284Z" stroke="#151A30" stroke-width="2" stroke-linecap="round" stroke-linejoin="round"/>
</svg>
