<svg width="160" height="160" viewBox="0 0 160 160" fill="none" xmlns="http://www.w3.org/2000/svg">
<rect width="160" height="160" fill="#F7F9FC"/>
<rect x="10" y="26" width="139" height="108" rx="4" fill="white"/>
<rect x="34" y="58.667" width="20" height="6.66667" rx="3.33333" fill="#F7F9FC"/>
<rect x="44" y="58.667" width="10" height="6.66667" rx="3.33333" fill="#1976D2"/>
<rect x="58" y="58" width="68" height="8" rx="1" fill="#EDF1F7"/>
<rect x="34" y="70" width="91.9997" height="8.58105" rx="1" fill="#EDF1F7"/>
<rect x="44" y="72.8604" width="64" height="2.86035" rx="1" fill="#F7F9FC"/>
<path d="M117.5 75.5811L114.469 72.5811H120.531L117.5 75.5811Z" fill="#1976D2"/>
<rect x="62" y="80.5811" width="64" height="3.87097" rx="1" fill="#F7F9FC"/>
<rect x="62" y="86.5811" width="64" height="3.87097" rx="1" fill="#F7F9FC"/>
<rect x="62" y="92.5811" width="64" height="3.87097" rx="1" fill="#F7F9FC"/>
<rect x="62" y="98.5811" width="64" height="3.87097" rx="1" fill="#F7F9FC"/>
</svg>
