<svg width="160" height="160" viewBox="0 0 160 160" fill="none" xmlns="http://www.w3.org/2000/svg">
<rect width="160" height="160" fill="#1A2138"/>
<rect x="10" y="26" width="139" height="108" rx="4" fill="#222B45"/>
<rect x="25" y="50" width="52" height="27" rx="4" fill="#1A2138"/>
<rect x="50" y="57" width="20" height="3" rx="1" fill="#151A30"/>
<rect x="50" y="62" width="12" height="3" rx="1" fill="#151A30"/>
<rect x="25" y="83" width="52" height="27" rx="4" fill="#1A2138"/>
<rect x="83" y="50" width="52" height="27" rx="4" fill="#1A2138"/>
<rect x="30" y="53" width="18" height="21" rx="1" fill="#151A30"/>
<rect x="30" y="86" width="18" height="21" rx="1" fill="#151A30"/>
<rect x="88" y="53" width="18" height="21" rx="1" fill="#151A30"/>
<rect x="50" y="91" width="20" height="3" rx="1" fill="#151A30"/>
<rect x="108" y="58" width="20" height="3" rx="1" fill="#151A30"/>
<rect x="50" y="96" width="12" height="3" rx="1" fill="#151A30"/>
<rect x="108" y="63" width="12" height="3" rx="1" fill="#151A30"/>
<rect x="83" y="83" width="52" height="27" rx="4" fill="#1A2138"/>
<path d="M101.875 89C101.643 89 101.42 89.093 101.256 89.2584C101.092 89.4239 101 89.6483 101 89.8824C101 90.1164 101.092 90.3408 101.256 90.5063C101.42 90.6717 101.643 90.7647 101.875 90.7647H102.942L103.209 91.8429C103.212 91.8554 103.215 91.8677 103.218 91.88L104.406 96.6712L103.625 97.4582C102.523 98.57 103.303 100.471 104.862 100.471H112.375C112.607 100.471 112.83 100.378 112.994 100.212C113.158 100.047 113.25 99.8222 113.25 99.5882C113.25 99.3542 113.158 99.1298 112.994 98.9643C112.83 98.7988 112.607 98.7059 112.375 98.7059H104.862L105.737 97.8235H111.5C111.662 97.8234 111.822 97.7778 111.96 97.6916C112.098 97.6054 112.21 97.4821 112.282 97.3356L114.907 92.0415C114.974 91.907 115.005 91.7576 114.999 91.6074C114.992 91.4572 114.947 91.3112 114.869 91.1833C114.791 91.0554 114.681 90.9498 114.551 90.8765C114.421 90.8033 114.274 90.7648 114.125 90.7647H104.745L104.474 89.6679C104.426 89.4771 104.317 89.3078 104.163 89.1868C104.01 89.0657 103.82 89 103.625 89H101.875ZM113.25 102.676C113.25 103.027 113.112 103.364 112.866 103.612C112.619 103.861 112.286 104 111.938 104C111.589 104 111.256 103.861 111.009 103.612C110.763 103.364 110.625 103.027 110.625 102.676C110.625 102.325 110.763 101.989 111.009 101.741C111.256 101.492 111.589 101.353 111.938 101.353C112.286 101.353 112.619 101.492 112.866 101.741C113.112 101.989 113.25 102.325 113.25 102.676ZM104.938 104C105.286 104 105.619 103.861 105.866 103.612C106.112 103.364 106.25 103.027 106.25 102.676C106.25 102.325 106.112 101.989 105.866 101.741C105.619 101.492 105.286 101.353 104.938 101.353C104.589 101.353 104.256 101.492 104.009 101.741C103.763 101.989 103.625 102.325 103.625 102.676C103.625 103.027 103.763 103.364 104.009 103.612C104.256 103.861 104.589 104 104.938 104V104Z" fill="#1976D2"/>
</svg>
