<svg width="160" height="160" viewBox="0 0 160 160" fill="none" xmlns="http://www.w3.org/2000/svg">
<rect width="160" height="160" fill="#F7F9FC"/>
<rect x="10" y="27" width="139" height="108" rx="4" fill="white"/>
<path d="M17 59C17 56.7909 18.7909 55 21 55V55C23.2091 55 25 56.7909 25 59V59C25 61.2091 23.2091 63 21 63V63C18.7909 63 17 61.2091 17 59V59Z" fill="#1976D2"/>
<rect x="17" y="44" width="124" height="2" rx="1" fill="#F7F9FC"/>
<rect x="17" y="47" width="76.0533" height="2" rx="1" fill="#F7F9FC"/>
<rect x="17" y="50" width="97.5467" height="2" rx="1" fill="#F7F9FC"/>
<rect x="27" y="56" width="62.8267" height="2" rx="1" fill="#EDF1F7"/>
<rect x="27" y="59" width="36.3733" height="2" rx="1" fill="#F7F9FC"/>
<path d="M17 117C17 114.791 18.7909 113 21 113V113C23.2091 113 25 114.791 25 117V117C25 119.209 23.2091 121 21 121V121C18.7909 121 17 119.209 17 117V117Z" fill="#1976D2"/>
<rect x="17" y="102" width="124" height="2" rx="1" fill="#F7F9FC"/>
<rect x="17" y="105" width="76.0533" height="2" rx="1" fill="#F7F9FC"/>
<rect x="17" y="108" width="97.5467" height="2" rx="1" fill="#F7F9FC"/>
<rect x="27" y="114" width="62.8267" height="2" rx="1" fill="#EDF1F7"/>
<rect x="27" y="117" width="36.3733" height="2" rx="1" fill="#F7F9FC"/>
<path d="M17 88C17 85.7909 18.7909 84 21 84V84C23.2091 84 25 85.7909 25 88V88C25 90.2091 23.2091 92 21 92V92C18.7909 92 17 90.2091 17 88V88Z" fill="#1976D2"/>
<rect x="17" y="73" width="124" height="2" rx="1" fill="#F7F9FC"/>
<rect x="17" y="76" width="76.0533" height="2" rx="1" fill="#F7F9FC"/>
<rect x="17" y="79" width="97.5467" height="2" rx="1" fill="#F7F9FC"/>
<rect x="27" y="85" width="62.8267" height="2" rx="1" fill="#EDF1F7"/>
<rect x="27" y="88" width="36.3733" height="2" rx="1" fill="#F7F9FC"/>
</svg>
