<svg width="160" height="160" viewBox="0 0 160 160" fill="none" xmlns="http://www.w3.org/2000/svg">
<rect width="160" height="160" fill="#1A2138"/>
<rect x="10" y="27" width="139" height="108" rx="4" fill="#222B45"/>
<rect x="21" y="79" width="30.7532" height="3" rx="1" fill="#151A30"/>
<rect x="26" y="85" width="21.1429" height="3" rx="1" fill="#1A2138"/>
<ellipse cx="36.7662" cy="68" rx="5.76623" ry="6" fill="#1976D2"/>
<rect x="24" y="91" width="25" height="5" rx="1" fill="#1976D2"/>
<rect x="17.25" y="58.25" width="38.2532" height="41.5" rx="3.75" stroke="#1A2138" stroke-width="0.5"/>
<rect x="64" y="79" width="30.7532" height="3" rx="1" fill="#151A30"/>
<rect x="69" y="85" width="21.1429" height="3" rx="1" fill="#1A2138"/>
<ellipse cx="79.7662" cy="68" rx="5.76623" ry="6" fill="#1976D2"/>
<rect x="67" y="91" width="25" height="5" rx="1" fill="#1976D2"/>
<rect x="60.25" y="58.25" width="38.2532" height="41.5" rx="3.75" stroke="#1A2138" stroke-width="0.5"/>
<rect x="107" y="79" width="30.7532" height="3" rx="1" fill="#151A30"/>
<rect x="112" y="85" width="21.1429" height="3" rx="1" fill="#1A2138"/>
<ellipse cx="122.766" cy="68" rx="5.76623" ry="6" fill="#1976D2"/>
<rect x="110" y="91" width="25" height="5" rx="1" fill="#1976D2"/>
<rect x="103.25" y="58.25" width="38.2532" height="41.5" rx="3.75" stroke="#1A2138" stroke-width="0.5"/>
</svg>
